<ttFont>
    <TTGlyph name=".notdef" xMin="228" yMin="0" xMax="1644" yMax="1416">
      <contour>
        <pt x="228" y="1416" on="1"/>
        <pt x="1644" y="1416" on="1"/>
        <pt x="1644" y="0" on="1"/>
        <pt x="228" y="0" on="1"/>
      </contour>
      <contour>
        <pt x="586" y="219" on="1"/>
        <pt x="933" y="587" on="1"/>
        <pt x="1295" y="219" on="1"/>
        <pt x="1417" y="341" on="1"/>
        <pt x="1054" y="709" on="1"/>
        <pt x="1417" y="1067" on="1"/>
        <pt x="1289" y="1191" on="1"/>
        <pt x="937" y="825" on="1"/>
        <pt x="580" y="1193" on="1"/>
        <pt x="457" y="1068" on="1"/>
        <pt x="816" y="705" on="1"/>
        <pt x="458" y="363" on="1"/>
      </contour>
    </TTGlyph>
    <TTGlyph name="A" xMin="-120" yMin="0" xMax="1329" yMax="1522">
      <contour>
        <pt x="715" y="1522" on="1"/>
        <pt x="920" y="1522" on="1"/>
        <pt x="1173" y="119" on="1"/>
        <pt x="1329" y="87" on="1"/>
        <pt x="1322" y="0" on="1"/>
        <pt x="807" y="0" on="1"/>
        <pt x="812" y="87" on="1"/>
        <pt x="968" y="116" on="1"/>
        <pt x="918" y="435" on="1"/>
        <pt x="351" y="435" on="1"/>
        <pt x="201" y="117" on="1"/>
        <pt x="361" y="87" on="1"/>
        <pt x="355" y="0" on="1"/>
        <pt x="-120" y="0" on="1"/>
        <pt x="-111" y="87" on="1"/>
        <pt x="8" y="116" on="1"/>
      </contour>
      <contour>
        <pt x="899" y="557" on="1"/>
        <pt x="795" y="1233" on="1"/>
        <pt x="784" y="1354" on="1"/>
        <pt x="408" y="557" on="1"/>
      </contour>
    </TTGlyph>
    <TTGlyph name="AE" xMin="-164" yMin="0" xMax="1754" yMax="1522">
      <contour>
        <pt x="705" y="1399" on="1"/>
        <pt x="414" y="1421" on="1"/>
        <pt x="428" y="1522" on="1"/>
        <pt x="1754" y="1522" on="1"/>
        <pt x="1746" y="1230" on="1"/>
        <pt x="1635" y="1230" on="1"/>
        <pt x="1588" y="1399" on="1"/>
        <pt x="1191" y="1414" on="1"/>
        <pt x="1118" y="847" on="1"/>
        <pt x="1519" y="871" on="1"/>
        <pt x="1504" y="704" on="1"/>
        <pt x="1107" y="721" on="1"/>
        <pt x="1034" y="117" on="1"/>
        <pt x="1545" y="141" on="1"/>
        <pt x="1642" y="331" on="1"/>
        <pt x="1749" y="300" on="1"/>
        <pt x="1684" y="0" on="1"/>
        <pt x="695" y="0" on="1"/>
        <pt x="705" y="87" on="1"/>
        <pt x="826" y="116" on="1"/>
        <pt x="868" y="474" on="1"/>
        <pt x="394" y="474" on="1"/>
        <pt x="212" y="117" on="1"/>
        <pt x="401" y="87" on="1"/>
        <pt x="395" y="0" on="1"/>
        <pt x="-164" y="0" on="1"/>
        <pt x="-150" y="87" on="1"/>
        <pt x="4" y="116" on="1"/>
      </contour>
      <contour>
        <pt x="883" y="596" on="1"/>
        <pt x="977" y="1391" on="1"/>
        <pt x="863" y="1396" on="1"/>
        <pt x="456" y="596" on="1"/>
      </contour>
    </TTGlyph>
    <TTGlyph name="AEacute" xMin="-164" yMin="0" xMax="1754" yMax="2001">
      <contour>
        <pt x="1120" y="1659" on="1"/>
        <pt x="1396" y="2001" on="1"/>
        <pt x="1522" y="1880" on="1"/>
        <pt x="1502" y="1838" on="0"/>
        <pt x="1419" y="1754" on="0"/>
        <pt x="1321" y="1681" on="0"/>
        <pt x="1221" y="1624" on="0"/>
        <pt x="1185" y="1611" on="1"/>
      </contour>
      <contour>
        <pt x="705" y="1399" on="1"/>
        <pt x="414" y="1421" on="1"/>
        <pt x="428" y="1522" on="1"/>
        <pt x="1754" y="1522" on="1"/>
        <pt x="1746" y="1230" on="1"/>
        <pt x="1635" y="1230" on="1"/>
        <pt x="1588" y="1399" on="1"/>
        <pt x="1191" y="1414" on="1"/>
        <pt x="1118" y="847" on="1"/>
        <pt x="1519" y="871" on="1"/>
        <pt x="1504" y="704" on="1"/>
        <pt x="1107" y="721" on="1"/>
        <pt x="1034" y="117" on="1"/>
        <pt x="1545" y="141" on="1"/>
        <pt x="1642" y="331" on="1"/>
        <pt x="1749" y="300" on="1"/>
        <pt x="1684" y="0" on="1"/>
        <pt x="695" y="0" on="1"/>
        <pt x="705" y="87" on="1"/>
        <pt x="826" y="116" on="1"/>
        <pt x="868" y="474" on="1"/>
        <pt x="394" y="474" on="1"/>
        <pt x="212" y="117" on="1"/>
        <pt x="401" y="87" on="1"/>
        <pt x="395" y="0" on="1"/>
        <pt x="-164" y="0" on="1"/>
        <pt x="-150" y="87" on="1"/>
        <pt x="4" y="116" on="1"/>
      </contour>
      <contour>
        <pt x="883" y="596" on="1"/>
        <pt x="977" y="1391" on="1"/>
        <pt x="863" y="1396" on="1"/>
        <pt x="456" y="596" on="1"/>
      </contour>
    </TTGlyph>
    <TTGlyph name="Aacute" xMin="-120" yMin="0" xMax="1329" yMax="2001">
      <contour>
        <pt x="715" y="1522" on="1"/>
        <pt x="920" y="1522" on="1"/>
        <pt x="1173" y="119" on="1"/>
        <pt x="1329" y="87" on="1"/>
        <pt x="1322" y="0" on="1"/>
        <pt x="807" y="0" on="1"/>
        <pt x="812" y="87" on="1"/>
        <pt x="968" y="116" on="1"/>
        <pt x="918" y="435" on="1"/>
        <pt x="351" y="435" on="1"/>
        <pt x="201" y="117" on="1"/>
        <pt x="361" y="87" on="1"/>
        <pt x="355" y="0" on="1"/>
        <pt x="-120" y="0" on="1"/>
        <pt x="-111" y="87" on="1"/>
        <pt x="8" y="116" on="1"/>
      </contour>
      <contour>
        <pt x="899" y="557" on="1"/>
        <pt x="795" y="1233" on="1"/>
        <pt x="784" y="1354" on="1"/>
        <pt x="408" y="557" on="1"/>
      </contour>
      <contour>
        <pt x="748" y="1659" on="1"/>
        <pt x="1024" y="2001" on="1"/>
        <pt x="1150" y="1880" on="1"/>
        <pt x="1130" y="1838" on="0"/>
        <pt x="1047" y="1754" on="0"/>
        <pt x="949" y="1681" on="0"/>
        <pt x="849" y="1624" on="0"/>
        <pt x="813" y="1611" on="1"/>
      </contour>
    </TTGlyph>
    <TTGlyph name="Abreve" xMin="-120" yMin="0" xMax="1329" yMax="1980">
      <contour>
        <pt x="715" y="1522" on="1"/>
        <pt x="920" y="1522" on="1"/>
        <pt x="1173" y="119" on="1"/>
        <pt x="1329" y="87" on="1"/>
        <pt x="1322" y="0" on="1"/>
        <pt x="807" y="0" on="1"/>
        <pt x="812" y="87" on="1"/>
        <pt x="968" y="116" on="1"/>
        <pt x="918" y="435" on="1"/>
        <pt x="351" y="435" on="1"/>
        <pt x="201" y="117" on="1"/>
        <pt x="361" y="87" on="1"/>
        <pt x="355" y="0" on="1"/>
        <pt x="-120" y="0" on="1"/>
        <pt x="-111" y="87" on="1"/>
        <pt x="8" y="116" on="1"/>
      </contour>
      <contour>
        <pt x="899" y="557" on="1"/>
        <pt x="795" y="1233" on="1"/>
        <pt x="784" y="1354" on="1"/>
        <pt x="408" y="557" on="1"/>
      </contour>
      <contour>
        <pt x="843" y="1628" on="1"/>
        <pt x="765" y="1628" on="0"/>
        <pt x="655" y="1681" on="0"/>
        <pt x="584" y="1768" on="0"/>
        <pt x="552" y="1878" on="0"/>
        <pt x="552" y="1934" on="1"/>
        <pt x="552" y="1959" on="0"/>
        <pt x="555" y="1980" on="1"/>
        <pt x="666" y="1980" on="1"/>
        <pt x="668" y="1956" on="0"/>
        <pt x="680" y="1887" on="0"/>
        <pt x="717" y="1823" on="0"/>
        <pt x="787" y="1778" on="0"/>
        <pt x="848" y="1778" on="1"/>
        <pt x="903" y="1778" on="0"/>
        <pt x="979" y="1819" on="0"/>
        <pt x="1030" y="1880" on="0"/>
        <pt x="1060" y="1950" on="0"/>
        <pt x="1068" y="1980" on="1"/>
        <pt x="1173" y="1980" on="1"/>
        <pt x="1173" y="1918" on="0"/>
        <pt x="1120" y="1792" on="0"/>
        <pt x="1029" y="1691" on="0"/>
        <pt x="909" y="1628" on="0"/>
      </contour>
    </TTGlyph>
    <TTGlyph name="Acircumflex" xMin="-120" yMin="0" xMax="1329" yMax="2001">
      <contour>
        <pt x="715" y="1522" on="1"/>
        <pt x="920" y="1522" on="1"/>
        <pt x="1173" y="119" on="1"/>
        <pt x="1329" y="87" on="1"/>
        <pt x="1322" y="0" on="1"/>
        <pt x="807" y="0" on="1"/>
        <pt x="812" y="87" on="1"/>
        <pt x="968" y="116" on="1"/>
        <pt x="918" y="435" on="1"/>
        <pt x="351" y="435" on="1"/>
        <pt x="201" y="117" on="1"/>
        <pt x="361" y="87" on="1"/>
        <pt x="355" y="0" on="1"/>
        <pt x="-120" y="0" on="1"/>
        <pt x="-111" y="87" on="1"/>
        <pt x="8" y="116" on="1"/>
      </contour>
      <contour>
        <pt x="899" y="557" on="1"/>
        <pt x="795" y="1233" on="1"/>
        <pt x="784" y="1354" on="1"/>
        <pt x="408" y="557" on="1"/>
      </contour>
      <contour>
        <pt x="499" y="1682" on="1"/>
        <pt x="807" y="2001" on="1"/>
        <pt x="984" y="2001" on="1"/>
        <pt x="1196" y="1682" on="1"/>
        <pt x="1125" y="1623" on="1"/>
        <pt x="886" y="1850" on="1"/>
        <pt x="562" y="1624" on="1"/>
      </contour>
    </TTGlyph>
    <TTGlyph name="Adieresis" xMin="-120" yMin="0" xMax="1329" yMax="1990">
      <contour>
        <pt x="715" y="1522" on="1"/>
        <pt x="920" y="1522" on="1"/>
        <pt x="1173" y="119" on="1"/>
        <pt x="1329" y="87" on="1"/>
        <pt x="1322" y="0" on="1"/>
        <pt x="807" y="0" on="1"/>
        <pt x="812" y="87" on="1"/>
        <pt x="968" y="116" on="1"/>
        <pt x="918" y="435" on="1"/>
        <pt x="351" y="435" on="1"/>
        <pt x="201" y="117" on="1"/>
        <pt x="361" y="87" on="1"/>
        <pt x="355" y="0" on="1"/>
        <pt x="-120" y="0" on="1"/>
        <pt x="-111" y="87" on="1"/>
        <pt x="8" y="116" on="1"/>
      </contour>
      <contour>
        <pt x="899" y="557" on="1"/>
        <pt x="795" y="1233" on="1"/>
        <pt x="784" y="1354" on="1"/>
        <pt x="408" y="557" on="1"/>
      </contour>
      <contour>
        <pt x="1058" y="1724" on="1"/>
        <pt x="1034" y="1724" on="0"/>
        <pt x="992" y="1743" on="0"/>
        <pt x="961" y="1776" on="0"/>
        <pt x="943" y="1819" on="0"/>
        <pt x="943" y="1844" on="1"/>
        <pt x="943" y="1874" on="0"/>
        <pt x="970" y="1927" on="0"/>
        <pt x="1013" y="1967" on="0"/>
        <pt x="1065" y="1990" on="0"/>
        <pt x="1089" y="1990" on="1"/>
        <pt x="1146" y="1990" on="0"/>
        <pt x="1211" y="1924" on="0"/>
        <pt x="1211" y="1878" on="1"/>
        <pt x="1211" y="1848" on="0"/>
        <pt x="1187" y="1792" on="0"/>
        <pt x="1145" y="1749" on="0"/>
        <pt x="1089" y="1724" on="0"/>
      </contour>
      <contour>
        <pt x="638" y="1724" on="1"/>
        <pt x="615" y="1724" on="0"/>
        <pt x="573" y="1743" on="0"/>
        <pt x="542" y="1774" on="0"/>
        <pt x="524" y="1816" on="0"/>
        <pt x="524" y="1840" on="1"/>
        <pt x="524" y="1870" on="0"/>
        <pt x="550" y="1924" on="0"/>
        <pt x="591" y="1966" on="0"/>
        <pt x="642" y="1990" on="0"/>
        <pt x="668" y="1990" on="1"/>
        <pt x="696" y="1990" on="0"/>
        <pt x="742" y="1972" on="0"/>
        <pt x="774" y="1941" on="0"/>
        <pt x="791" y="1900" on="0"/>
        <pt x="791" y="1877" on="1"/>
        <pt x="791" y="1847" on="0"/>
        <pt x="766" y="1791" on="0"/>
        <pt x="724" y="1749" on="0"/>
        <pt x="668" y="1724" on="0"/>
      </contour>
    </TTGlyph>
    <TTGlyph name="Agrave" xMin="-120" yMin="0" xMax="1329" yMax="2001">
      <contour>
        <pt x="715" y="1522" on="1"/>
        <pt x="920" y="1522" on="1"/>
        <pt x="1173" y="119" on="1"/>
        <pt x="1329" y="87" on="1"/>
        <pt x="1322" y="0" on="1"/>
        <pt x="807" y="0" on="1"/>
        <pt x="812" y="87" on="1"/>
        <pt x="968" y="116" on="1"/>
        <pt x="918" y="435" on="1"/>
        <pt x="351" y="435" on="1"/>
        <pt x="201" y="117" on="1"/>
        <pt x="361" y="87" on="1"/>
        <pt x="355" y="0" on="1"/>
        <pt x="-120" y="0" on="1"/>
        <pt x="-111" y="87" on="1"/>
        <pt x="8" y="116" on="1"/>
      </contour>
      <contour>
        <pt x="899" y="557" on="1"/>
        <pt x="795" y="1233" on="1"/>
        <pt x="784" y="1354" on="1"/>
        <pt x="408" y="557" on="1"/>
      </contour>
      <contour>
        <pt x="822" y="1611" on="1"/>
        <pt x="786" y="1624" on="0"/>
        <pt x="687" y="1682" on="0"/>
        <pt x="589" y="1756" on="0"/>
        <pt x="509" y="1840" on="0"/>
        <pt x="492" y="1880" on="1"/>
        <pt x="627" y="2001" on="1"/>
        <pt x="890" y="1659" on="1"/>
        <pt x="822" y="1611" on="1"/>
      </contour>
    </TTGlyph>
    <TTGlyph name="Amacron" xMin="-120" yMin="0" xMax="1329" yMax="1880">
      <contour>
        <pt x="715" y="1522" on="1"/>
        <pt x="920" y="1522" on="1"/>
        <pt x="1173" y="119" on="1"/>
        <pt x="1329" y="87" on="1"/>
        <pt x="1322" y="0" on="1"/>
        <pt x="807" y="0" on="1"/>
        <pt x="812" y="87" on="1"/>
        <pt x="968" y="116" on="1"/>
        <pt x="918" y="435" on="1"/>
        <pt x="351" y="435" on="1"/>
        <pt x="201" y="117" on="1"/>
        <pt x="361" y="87" on="1"/>
        <pt x="355" y="0" on="1"/>
        <pt x="-120" y="0" on="1"/>
        <pt x="-111" y="87" on="1"/>
        <pt x="8" y="116" on="1"/>
      </contour>
      <contour>
        <pt x="899" y="557" on="1"/>
        <pt x="795" y="1233" on="1"/>
        <pt x="784" y="1354" on="1"/>
        <pt x="408" y="557" on="1"/>
      </contour>
      <contour>
        <pt x="593" y="1880" on="1"/>
        <pt x="1105" y="1880" on="1"/>
        <pt x="1085" y="1728" on="1"/>
        <pt x="574" y="1728" on="1"/>
      </contour>
    </TTGlyph>
    <TTGlyph name="Aogonek" xMin="-120" yMin="-419" xMax="1329" yMax="1522">
      <contour>
        <pt x="715" y="1522" on="1"/>
        <pt x="920" y="1522" on="1"/>
        <pt x="1173" y="119" on="1"/>
        <pt x="1329" y="87" on="1"/>
        <pt x="1322" y="0" on="1"/>
        <pt x="1135" y="0" on="1"/>
        <pt x="1101" y="-27" on="0"/>
        <pt x="1043" y="-80" on="0"/>
        <pt x="1000" y="-130" on="0"/>
        <pt x="975" y="-178" on="0"/>
        <pt x="975" y="-202" on="1"/>
        <pt x="973" y="-226" on="0"/>
        <pt x="983" y="-259" on="0"/>
        <pt x="999" y="-278" on="0"/>
        <pt x="1019" y="-287" on="0"/>
        <pt x="1028" y="-287" on="1"/>
        <pt x="1056" y="-287" on="0"/>
        <pt x="1117" y="-260" on="0"/>
        <pt x="1159" y="-227" on="1"/>
        <pt x="1185" y="-322" on="1"/>
        <pt x="1165" y="-340" on="0"/>
        <pt x="1114" y="-375" on="0"/>
        <pt x="1051" y="-402" on="0"/>
        <pt x="976" y="-419" on="0"/>
        <pt x="932" y="-419" on="1"/>
        <pt x="891" y="-419" on="0"/>
        <pt x="832" y="-394" on="0"/>
        <pt x="794" y="-355" on="0"/>
        <pt x="776" y="-305" on="0"/>
        <pt x="777" y="-281" on="1"/>
        <pt x="779" y="-249" on="0"/>
        <pt x="799" y="-181" on="0"/>
        <pt x="818" y="-157" on="1"/>
        <pt x="842" y="-125" on="0"/>
        <pt x="891" y="-79" on="0"/>
        <pt x="941" y="-43" on="0"/>
        <pt x="991" y="-14" on="0"/>
        <pt x="1016" y="0" on="1"/>
        <pt x="807" y="0" on="1"/>
        <pt x="812" y="87" on="1"/>
        <pt x="968" y="116" on="1"/>
        <pt x="918" y="435" on="1"/>
        <pt x="351" y="435" on="1"/>
        <pt x="201" y="117" on="1"/>
        <pt x="361" y="87" on="1"/>
        <pt x="355" y="0" on="1"/>
        <pt x="-120" y="0" on="1"/>
        <pt x="-111" y="87" on="1"/>
        <pt x="8" y="116" on="1"/>
      </contour>
      <contour>
        <pt x="899" y="557" on="1"/>
        <pt x="795" y="1233" on="1"/>
        <pt x="784" y="1354" on="1"/>
        <pt x="408" y="557" on="1"/>
      </contour>
    </TTGlyph>
    <TTGlyph name="Aring" xMin="-120" yMin="0" xMax="1329" yMax="2001">
      <contour>
        <pt x="709" y="1510" on="1"/>
        <pt x="623" y="1533" on="0"/>
        <pt x="536" y="1649" on="0"/>
        <pt x="536" y="1729" on="1"/>
        <pt x="536" y="1793" on="0"/>
        <pt x="600" y="1894" on="0"/>
        <pt x="702" y="1964" on="0"/>
        <pt x="827" y="2001" on="0"/>
        <pt x="887" y="2001" on="1"/>
        <pt x="952" y="2001" on="0"/>
        <pt x="1055" y="1968" on="0"/>
        <pt x="1126" y="1909" on="0"/>
        <pt x="1164" y="1828" on="0"/>
        <pt x="1164" y="1781" on="1"/>
        <pt x="1164" y="1724" on="0"/>
        <pt x="1125" y="1634" on="0"/>
        <pt x="1058" y="1566" on="0"/>
        <pt x="970" y="1521" on="0"/>
        <pt x="922" y="1509" on="1"/>
        <pt x="1173" y="119" on="1"/>
        <pt x="1329" y="87" on="1"/>
        <pt x="1322" y="0" on="1"/>
        <pt x="807" y="0" on="1"/>
        <pt x="812" y="87" on="1"/>
        <pt x="968" y="116" on="1"/>
        <pt x="918" y="435" on="1"/>
        <pt x="351" y="435" on="1"/>
        <pt x="201" y="117" on="1"/>
        <pt x="361" y="87" on="1"/>
        <pt x="355" y="0" on="1"/>
        <pt x="-120" y="0" on="1"/>
        <pt x="-111" y="87" on="1"/>
        <pt x="8" y="116" on="1"/>
      </contour>
      <contour>
        <pt x="833" y="1585" on="1"/>
        <pt x="870" y="1585" on="0"/>
        <pt x="939" y="1606" on="0"/>
        <pt x="990" y="1652" on="0"/>
        <pt x="1021" y="1722" on="0"/>
        <pt x="1021" y="1772" on="1"/>
        <pt x="1021" y="1800" on="0"/>
        <pt x="999" y="1851" on="0"/>
        <pt x="960" y="1889" on="0"/>
        <pt x="904" y="1911" on="0"/>
        <pt x="871" y="1911" on="1"/>
        <pt x="834" y="1911" on="0"/>
        <pt x="765" y="1887" on="0"/>
        <pt x="712" y="1843" on="0"/>
        <pt x="680" y="1780" on="0"/>
        <pt x="680" y="1740" on="1"/>
        <pt x="680" y="1708" on="0"/>
        <pt x="701" y="1651" on="0"/>
        <pt x="740" y="1609" on="0"/>
        <pt x="797" y="1585" on="0"/>
      </contour>
      <contour>
        <pt x="899" y="557" on="1"/>
        <pt x="795" y="1233" on="1"/>
        <pt x="784" y="1354" on="1"/>
        <pt x="408" y="557" on="1"/>
      </contour>
    </TTGlyph>
    <TTGlyph name="Atilde" xMin="-120" yMin="0" xMax="1329" yMax="1971">
      <contour>
        <pt x="715" y="1522" on="1"/>
        <pt x="920" y="1522" on="1"/>
        <pt x="1173" y="119" on="1"/>
        <pt x="1329" y="87" on="1"/>
        <pt x="1322" y="0" on="1"/>
        <pt x="807" y="0" on="1"/>
        <pt x="812" y="87" on="1"/>
        <pt x="968" y="116" on="1"/>
        <pt x="918" y="435" on="1"/>
        <pt x="351" y="435" on="1"/>
        <pt x="201" y="117" on="1"/>
        <pt x="361" y="87" on="1"/>
        <pt x="355" y="0" on="1"/>
        <pt x="-120" y="0" on="1"/>
        <pt x="-111" y="87" on="1"/>
        <pt x="8" y="116" on="1"/>
      </contour>
      <contour>
        <pt x="899" y="557" on="1"/>
        <pt x="795" y="1233" on="1"/>
        <pt x="784" y="1354" on="1"/>
        <pt x="408" y="557" on="1"/>
      </contour>
      <contour>
        <pt x="489" y="1801" on="1"/>
        <pt x="501" y="1833" on="0"/>
        <pt x="543" y="1894" on="0"/>
        <pt x="600" y="1942" on="0"/>
        <pt x="671" y="1971" on="0"/>
        <pt x="714" y="1971" on="1"/>
        <pt x="764" y="1971" on="0"/>
        <pt x="840" y="1927" on="0"/>
        <pt x="907" y="1874" on="0"/>
        <pt x="971" y="1830" on="0"/>
        <pt x="1009" y="1830" on="1"/>
        <pt x="1039" y="1830" on="0"/>
        <pt x="1084" y="1847" on="0"/>
        <pt x="1118" y="1872" on="0"/>
        <pt x="1144" y="1903" on="0"/>
        <pt x="1156" y="1917" on="1"/>
        <pt x="1214" y="1835" on="1"/>
        <pt x="1204" y="1808" on="0"/>
        <pt x="1166" y="1748" on="0"/>
        <pt x="1111" y="1698" on="0"/>
        <pt x="1037" y="1665" on="0"/>
        <pt x="990" y="1665" on="1"/>
        <pt x="936" y="1665" on="0"/>
        <pt x="861" y="1708" on="0"/>
        <pt x="798" y="1761" on="0"/>
        <pt x="736" y="1805" on="0"/>
        <pt x="694" y="1806" on="1"/>
        <pt x="645" y="1807" on="0"/>
        <pt x="576" y="1757" on="0"/>
        <pt x="547" y="1719" on="1"/>
      </contour>
    </TTGlyph>
    <TTGlyph name="B" xMin="28" yMin="-14" xMax="1205" yMax="1537">
      <contour>
        <pt x="37" y="87" on="1"/>
        <pt x="185" y="117" on="1"/>
        <pt x="346" y="1398" on="1"/>
        <pt x="213" y="1421" on="1"/>
        <pt x="225" y="1522" on="1"/>
        <pt x="454" y="1522" on="1"/>
        <pt x="529" y="1522" on="0"/>
        <pt x="678" y="1537" on="0"/>
        <pt x="759" y="1537" on="1"/>
        <pt x="876" y="1537" on="0"/>
        <pt x="1044" y="1484" on="0"/>
        <pt x="1152" y="1395" on="0"/>
        <pt x="1203" y="1280" on="0"/>
        <pt x="1204" y="1218" on="1"/>
        <pt x="1205" y="1136" on="0"/>
        <pt x="1164" y="1006" on="0"/>
        <pt x="1086" y="905" on="0"/>
        <pt x="974" y="833" on="0"/>
        <pt x="904" y="810" on="1"/>
        <pt x="966" y="801" on="0"/>
        <pt x="1072" y="747" on="0"/>
        <pt x="1150" y="664" on="0"/>
        <pt x="1195" y="554" on="0"/>
        <pt x="1196" y="490" on="1"/>
        <pt x="1198" y="399" on="0"/>
        <pt x="1149" y="254" on="0"/>
        <pt x="1060" y="142" on="0"/>
        <pt x="935" y="62" on="0"/>
        <pt x="784" y="10" on="0"/>
        <pt x="613" y="-14" on="0"/>
        <pt x="523" y="-14" on="1"/>
        <pt x="494" y="-14" on="0"/>
        <pt x="427" y="-10" on="0"/>
        <pt x="358" y="-4" on="0"/>
        <pt x="293" y="0" on="0"/>
        <pt x="266" y="0" on="1"/>
        <pt x="28" y="0" on="1"/>
      </contour>
      <contour>
        <pt x="479" y="852" on="1"/>
        <pt x="518" y="850" on="0"/>
        <pt x="611" y="851" on="0"/>
        <pt x="652" y="851" on="1"/>
        <pt x="726" y="851" on="0"/>
        <pt x="855" y="891" on="0"/>
        <pt x="950" y="974" on="0"/>
        <pt x="1004" y="1103" on="0"/>
        <pt x="1002" y="1192" on="1"/>
        <pt x="1001" y="1250" on="0"/>
        <pt x="969" y="1335" on="0"/>
        <pt x="900" y="1392" on="0"/>
        <pt x="791" y="1420" on="0"/>
        <pt x="712" y="1420" on="1"/>
        <pt x="701" y="1420" on="0"/>
        <pt x="660" y="1419" on="0"/>
        <pt x="614" y="1417" on="0"/>
        <pt x="567" y="1412" on="0"/>
        <pt x="549" y="1409" on="1"/>
      </contour>
      <contour>
        <pt x="388" y="127" on="1"/>
        <pt x="402" y="121" on="0"/>
        <pt x="449" y="114" on="0"/>
        <pt x="502" y="109" on="0"/>
        <pt x="551" y="107" on="0"/>
        <pt x="566" y="107" on="1"/>
        <pt x="659" y="107" on="0"/>
        <pt x="812" y="145" on="0"/>
        <pt x="922" y="231" on="0"/>
        <pt x="981" y="369" on="0"/>
        <pt x="979" y="468" on="1"/>
        <pt x="976" y="598" on="0"/>
        <pt x="837" y="725" on="0"/>
        <pt x="686" y="725" on="1"/>
        <pt x="608" y="725" on="0"/>
        <pt x="494" y="720" on="0"/>
        <pt x="462" y="718" on="1"/>
      </contour>
    </TTGlyph>
    <TTGlyph name="C" xMin="90" yMin="-16" xMax="1227" yMax="1538">
      <contour>
        <pt x="605" y="-16" on="1"/>
        <pt x="513" y="-16" on="0"/>
        <pt x="366" y="36" on="0"/>
        <pt x="253" y="127" on="0"/>
        <pt x="171" y="251" on="0"/>
        <pt x="119" y="394" on="0"/>
        <pt x="93" y="549" on="0"/>
        <pt x="92" y="627" on="1"/>
        <pt x="90" y="764" on="0"/>
        <pt x="141" y="1006" on="0"/>
        <pt x="239" y="1208" on="0"/>
        <pt x="377" y="1368" on="0"/>
        <pt x="543" y="1479" on="0"/>
        <pt x="733" y="1538" on="0"/>
        <pt x="834" y="1538" on="1"/>
        <pt x="902" y="1538" on="0"/>
        <pt x="1012" y="1528" on="0"/>
        <pt x="1099" y="1514" on="0"/>
        <pt x="1165" y="1498" on="0"/>
        <pt x="1189" y="1492" on="1"/>
        <pt x="1227" y="1481" on="1"/>
        <pt x="1161" y="1113" on="1"/>
        <pt x="1039" y="1113" on="1"/>
        <pt x="1015" y="1375" on="1"/>
        <pt x="1001" y="1384" on="0"/>
        <pt x="966" y="1401" on="0"/>
        <pt x="917" y="1413" on="0"/>
        <pt x="851" y="1420" on="0"/>
        <pt x="808" y="1420" on="1"/>
        <pt x="713" y="1420" on="0"/>
        <pt x="564" y="1347" on="0"/>
        <pt x="452" y="1226" on="0"/>
        <pt x="375" y="1067" on="0"/>
        <pt x="327" y="896" on="0"/>
        <pt x="307" y="723" on="0"/>
        <pt x="308" y="648" on="1"/>
        <pt x="309" y="582" on="0"/>
        <pt x="327" y="449" on="0"/>
        <pt x="361" y="328" on="0"/>
        <pt x="415" y="224" on="0"/>
        <pt x="489" y="147" on="0"/>
        <pt x="585" y="103" on="0"/>
        <pt x="645" y="103" on="1"/>
        <pt x="679" y="103" on="0"/>
        <pt x="759" y="114" on="0"/>
        <pt x="833" y="139" on="0"/>
        <pt x="894" y="178" on="0"/>
        <pt x="910" y="206" on="1"/>
        <pt x="910" y="206" on="0"/>
        <pt x="920" y="235" on="0"/>
        <pt x="935" y="278" on="0"/>
        <pt x="953" y="329" on="0"/>
        <pt x="968" y="373" on="0"/>
        <pt x="978" y="402" on="0"/>
        <pt x="978" y="403" on="1"/>
        <pt x="1102" y="402" on="1"/>
        <pt x="1062" y="73" on="1"/>
        <pt x="1036" y="64" on="0"/>
        <pt x="950" y="34" on="0"/>
        <pt x="834" y="5" on="0"/>
        <pt x="689" y="-16" on="0"/>
      </contour>
    </TTGlyph>
    <TTGlyph name="Cacute" xMin="90" yMin="-16" xMax="1227" yMax="2001">
      <contour>
        <pt x="605" y="-16" on="1"/>
        <pt x="513" y="-16" on="0"/>
        <pt x="366" y="36" on="0"/>
        <pt x="253" y="127" on="0"/>
        <pt x="171" y="251" on="0"/>
        <pt x="119" y="394" on="0"/>
        <pt x="93" y="549" on="0"/>
        <pt x="92" y="627" on="1"/>
        <pt x="90" y="764" on="0"/>
        <pt x="141" y="1006" on="0"/>
        <pt x="239" y="1208" on="0"/>
        <pt x="377" y="1368" on="0"/>
        <pt x="543" y="1479" on="0"/>
        <pt x="733" y="1538" on="0"/>
        <pt x="834" y="1538" on="1"/>
        <pt x="902" y="1538" on="0"/>
        <pt x="1012" y="1528" on="0"/>
        <pt x="1099" y="1514" on="0"/>
        <pt x="1165" y="1498" on="0"/>
        <pt x="1189" y="1492" on="1"/>
        <pt x="1227" y="1481" on="1"/>
        <pt x="1161" y="1113" on="1"/>
        <pt x="1039" y="1113" on="1"/>
        <pt x="1015" y="1375" on="1"/>
        <pt x="1001" y="1384" on="0"/>
        <pt x="966" y="1401" on="0"/>
        <pt x="917" y="1413" on="0"/>
        <pt x="851" y="1420" on="0"/>
        <pt x="808" y="1420" on="1"/>
        <pt x="713" y="1420" on="0"/>
        <pt x="564" y="1347" on="0"/>
        <pt x="452" y="1226" on="0"/>
        <pt x="375" y="1067" on="0"/>
        <pt x="327" y="896" on="0"/>
        <pt x="307" y="723" on="0"/>
        <pt x="308" y="648" on="1"/>
        <pt x="309" y="582" on="0"/>
        <pt x="327" y="449" on="0"/>
        <pt x="361" y="328" on="0"/>
        <pt x="415" y="224" on="0"/>
        <pt x="489" y="147" on="0"/>
        <pt x="585" y="103" on="0"/>
        <pt x="645" y="103" on="1"/>
        <pt x="679" y="103" on="0"/>
        <pt x="759" y="114" on="0"/>
        <pt x="833" y="139" on="0"/>
        <pt x="894" y="178" on="0"/>
        <pt x="910" y="206" on="1"/>
        <pt x="910" y="206" on="0"/>
        <pt x="920" y="235" on="0"/>
        <pt x="935" y="278" on="0"/>
        <pt x="953" y="329" on="0"/>
        <pt x="968" y="373" on="0"/>
        <pt x="978" y="402" on="0"/>
        <pt x="978" y="403" on="1"/>
        <pt x="1102" y="402" on="1"/>
        <pt x="1062" y="73" on="1"/>
        <pt x="1036" y="64" on="0"/>
        <pt x="950" y="34" on="0"/>
        <pt x="834" y="5" on="0"/>
        <pt x="689" y="-16" on="0"/>
      </contour>
      <contour>
        <pt x="717" y="1659" on="1"/>
        <pt x="993" y="2001" on="1"/>
        <pt x="1119" y="1880" on="1"/>
        <pt x="1099" y="1838" on="0"/>
        <pt x="1016" y="1754" on="0"/>
        <pt x="918" y="1681" on="0"/>
        <pt x="818" y="1624" on="0"/>
        <pt x="782" y="1611" on="1"/>
      </contour>
    </TTGlyph>
    <TTGlyph name="Ccaron" xMin="90" yMin="-16" xMax="1227" yMax="2001">
      <contour>
        <pt x="605" y="-16" on="1"/>
        <pt x="513" y="-16" on="0"/>
        <pt x="366" y="36" on="0"/>
        <pt x="253" y="127" on="0"/>
        <pt x="171" y="251" on="0"/>
        <pt x="119" y="394" on="0"/>
        <pt x="93" y="549" on="0"/>
        <pt x="92" y="627" on="1"/>
        <pt x="90" y="764" on="0"/>
        <pt x="141" y="1006" on="0"/>
        <pt x="239" y="1208" on="0"/>
        <pt x="377" y="1368" on="0"/>
        <pt x="543" y="1479" on="0"/>
        <pt x="733" y="1538" on="0"/>
        <pt x="834" y="1538" on="1"/>
        <pt x="902" y="1538" on="0"/>
        <pt x="1012" y="1528" on="0"/>
        <pt x="1099" y="1514" on="0"/>
        <pt x="1165" y="1498" on="0"/>
        <pt x="1189" y="1492" on="1"/>
        <pt x="1227" y="1481" on="1"/>
        <pt x="1161" y="1113" on="1"/>
        <pt x="1039" y="1113" on="1"/>
        <pt x="1015" y="1375" on="1"/>
        <pt x="1001" y="1384" on="0"/>
        <pt x="966" y="1401" on="0"/>
        <pt x="917" y="1413" on="0"/>
        <pt x="851" y="1420" on="0"/>
        <pt x="808" y="1420" on="1"/>
        <pt x="713" y="1420" on="0"/>
        <pt x="564" y="1347" on="0"/>
        <pt x="452" y="1226" on="0"/>
        <pt x="375" y="1067" on="0"/>
        <pt x="327" y="896" on="0"/>
        <pt x="307" y="723" on="0"/>
        <pt x="308" y="648" on="1"/>
        <pt x="309" y="582" on="0"/>
        <pt x="327" y="449" on="0"/>
        <pt x="361" y="328" on="0"/>
        <pt x="415" y="224" on="0"/>
        <pt x="489" y="147" on="0"/>
        <pt x="585" y="103" on="0"/>
        <pt x="645" y="103" on="1"/>
        <pt x="679" y="103" on="0"/>
        <pt x="759" y="114" on="0"/>
        <pt x="833" y="139" on="0"/>
        <pt x="894" y="178" on="0"/>
        <pt x="910" y="206" on="1"/>
        <pt x="910" y="206" on="0"/>
        <pt x="920" y="235" on="0"/>
        <pt x="935" y="278" on="0"/>
        <pt x="953" y="329" on="0"/>
        <pt x="968" y="373" on="0"/>
        <pt x="978" y="402" on="0"/>
        <pt x="978" y="403" on="1"/>
        <pt x="1102" y="402" on="1"/>
        <pt x="1062" y="73" on="1"/>
        <pt x="1036" y="64" on="0"/>
        <pt x="950" y="34" on="0"/>
        <pt x="834" y="5" on="0"/>
        <pt x="689" y="-16" on="0"/>
      </contour>
      <contour>
        <pt x="499" y="1943" on="1"/>
        <pt x="576" y="2001" on="1"/>
        <pt x="813" y="1768" on="1"/>
        <pt x="1130" y="2001" on="1"/>
        <pt x="1194" y="1944" on="1"/>
        <pt x="896" y="1623" on="1"/>
        <pt x="721" y="1623" on="1"/>
      </contour>
    </TTGlyph>
    <TTGlyph name="Ccedilla" xMin="90" yMin="-463" xMax="1227" yMax="1538">
      <contour>
        <pt x="316" y="-284" on="1"/>
        <pt x="322" y="-287" on="0"/>
        <pt x="344" y="-293" on="0"/>
        <pt x="369" y="-296" on="0"/>
        <pt x="395" y="-298" on="0"/>
        <pt x="407" y="-298" on="1"/>
        <pt x="449" y="-298" on="0"/>
        <pt x="517" y="-263" on="0"/>
        <pt x="564" y="-198" on="0"/>
        <pt x="590" y="-106" on="0"/>
        <pt x="590" y="-49" on="1"/>
        <pt x="590" y="-39" on="0"/>
        <pt x="590" y="-23" on="0"/>
        <pt x="589" y="-15" on="1"/>
        <pt x="500" y="-13" on="0"/>
        <pt x="358" y="41" on="0"/>
        <pt x="248" y="133" on="0"/>
        <pt x="169" y="256" on="0"/>
        <pt x="118" y="397" on="0"/>
        <pt x="93" y="550" on="0"/>
        <pt x="92" y="627" on="1"/>
        <pt x="90" y="764" on="0"/>
        <pt x="141" y="1006" on="0"/>
        <pt x="239" y="1208" on="0"/>
        <pt x="377" y="1368" on="0"/>
        <pt x="543" y="1479" on="0"/>
        <pt x="733" y="1538" on="0"/>
        <pt x="834" y="1538" on="1"/>
        <pt x="902" y="1538" on="0"/>
        <pt x="1012" y="1528" on="0"/>
        <pt x="1099" y="1514" on="0"/>
        <pt x="1165" y="1498" on="0"/>
        <pt x="1189" y="1492" on="1"/>
        <pt x="1227" y="1481" on="1"/>
        <pt x="1161" y="1113" on="1"/>
        <pt x="1039" y="1113" on="1"/>
        <pt x="1015" y="1375" on="1"/>
        <pt x="1001" y="1384" on="0"/>
        <pt x="966" y="1401" on="0"/>
        <pt x="917" y="1413" on="0"/>
        <pt x="851" y="1420" on="0"/>
        <pt x="808" y="1420" on="1"/>
        <pt x="713" y="1420" on="0"/>
        <pt x="564" y="1347" on="0"/>
        <pt x="452" y="1226" on="0"/>
        <pt x="375" y="1067" on="0"/>
        <pt x="327" y="896" on="0"/>
        <pt x="307" y="723" on="0"/>
        <pt x="308" y="648" on="1"/>
        <pt x="309" y="582" on="0"/>
        <pt x="327" y="449" on="0"/>
        <pt x="361" y="328" on="0"/>
        <pt x="415" y="224" on="0"/>
        <pt x="489" y="147" on="0"/>
        <pt x="585" y="103" on="0"/>
        <pt x="645" y="103" on="1"/>
        <pt x="679" y="103" on="0"/>
        <pt x="759" y="114" on="0"/>
        <pt x="833" y="139" on="0"/>
        <pt x="894" y="178" on="0"/>
        <pt x="910" y="206" on="1"/>
        <pt x="910" y="206" on="0"/>
        <pt x="920" y="235" on="0"/>
        <pt x="935" y="278" on="0"/>
        <pt x="953" y="329" on="0"/>
        <pt x="968" y="373" on="0"/>
        <pt x="978" y="402" on="0"/>
        <pt x="978" y="403" on="1"/>
        <pt x="1102" y="402" on="1"/>
        <pt x="1062" y="73" on="1"/>
        <pt x="1040" y="65" on="0"/>
        <pt x="971" y="41" on="0"/>
        <pt x="880" y="16" on="0"/>
        <pt x="768" y="-6" on="0"/>
        <pt x="703" y="-12" on="1"/>
        <pt x="714" y="-56" on="0"/>
        <pt x="714" y="-113" on="1"/>
        <pt x="714" y="-202" on="0"/>
        <pt x="670" y="-333" on="0"/>
        <pt x="594" y="-420" on="0"/>
        <pt x="491" y="-463" on="0"/>
        <pt x="431" y="-463" on="1"/>
        <pt x="391" y="-463" on="0"/>
        <pt x="317" y="-447" on="0"/>
        <pt x="300" y="-435" on="1"/>
        <pt x="316" y="-284" on="1"/>
      </contour>
    </TTGlyph>
    <TTGlyph name="Ccircumflex" xMin="90" yMin="-16" xMax="1227" yMax="2001">
      <contour>
        <pt x="605" y="-16" on="1"/>
        <pt x="513" y="-16" on="0"/>
        <pt x="366" y="36" on="0"/>
        <pt x="253" y="127" on="0"/>
        <pt x="171" y="251" on="0"/>
        <pt x="119" y="394" on="0"/>
        <pt x="93" y="549" on="0"/>
        <pt x="92" y="627" on="1"/>
        <pt x="90" y="764" on="0"/>
        <pt x="141" y="1006" on="0"/>
        <pt x="239" y="1208" on="0"/>
        <pt x="377" y="1368" on="0"/>
        <pt x="543" y="1479" on="0"/>
        <pt x="733" y="1538" on="0"/>
        <pt x="834" y="1538" on="1"/>
        <pt x="902" y="1538" on="0"/>
        <pt x="1012" y="1528" on="0"/>
        <pt x="1099" y="1514" on="0"/>
        <pt x="1165" y="1498" on="0"/>
        <pt x="1189" y="1492" on="1"/>
        <pt x="1227" y="1481" on="1"/>
        <pt x="1161" y="1113" on="1"/>
        <pt x="1039" y="1113" on="1"/>
        <pt x="1015" y="1375" on="1"/>
        <pt x="1001" y="1384" on="0"/>
        <pt x="966" y="1401" on="0"/>
        <pt x="917" y="1413" on="0"/>
        <pt x="851" y="1420" on="0"/>
        <pt x="808" y="1420" on="1"/>
        <pt x="713" y="1420" on="0"/>
        <pt x="564" y="1347" on="0"/>
        <pt x="452" y="1226" on="0"/>
        <pt x="375" y="1067" on="0"/>
        <pt x="327" y="896" on="0"/>
        <pt x="307" y="723" on="0"/>
        <pt x="308" y="648" on="1"/>
        <pt x="309" y="582" on="0"/>
        <pt x="327" y="449" on="0"/>
        <pt x="361" y="328" on="0"/>
        <pt x="415" y="224" on="0"/>
        <pt x="489" y="147" on="0"/>
        <pt x="585" y="103" on="0"/>
        <pt x="645" y="103" on="1"/>
        <pt x="679" y="103" on="0"/>
        <pt x="759" y="114" on="0"/>
        <pt x="833" y="139" on="0"/>
        <pt x="894" y="178" on="0"/>
        <pt x="910" y="206" on="1"/>
        <pt x="910" y="206" on="0"/>
        <pt x="920" y="235" on="0"/>
        <pt x="935" y="278" on="0"/>
        <pt x="953" y="329" on="0"/>
        <pt x="968" y="373" on="0"/>
        <pt x="978" y="402" on="0"/>
        <pt x="978" y="403" on="1"/>
        <pt x="1102" y="402" on="1"/>
        <pt x="1062" y="73" on="1"/>
        <pt x="1036" y="64" on="0"/>
        <pt x="950" y="34" on="0"/>
        <pt x="834" y="5" on="0"/>
        <pt x="689" y="-16" on="0"/>
      </contour>
      <contour>
        <pt x="468" y="1682" on="1"/>
        <pt x="776" y="2001" on="1"/>
        <pt x="953" y="2001" on="1"/>
        <pt x="1165" y="1682" on="1"/>
        <pt x="1094" y="1623" on="1"/>
        <pt x="855" y="1850" on="1"/>
        <pt x="531" y="1624" on="1"/>
      </contour>
    </TTGlyph>
    <TTGlyph name="Cdotaccent" xMin="90" yMin="-16" xMax="1227" yMax="1955">
      <contour>
        <pt x="810" y="1688" on="1"/>
        <pt x="786" y="1688" on="0"/>
        <pt x="743" y="1707" on="0"/>
        <pt x="712" y="1738" on="0"/>
        <pt x="693" y="1780" on="0"/>
        <pt x="693" y="1804" on="1"/>
        <pt x="693" y="1834" on="0"/>
        <pt x="719" y="1889" on="0"/>
        <pt x="761" y="1930" on="0"/>
        <pt x="813" y="1955" on="0"/>
        <pt x="839" y="1955" on="1"/>
        <pt x="867" y="1955" on="0"/>
        <pt x="913" y="1937" on="0"/>
        <pt x="946" y="1906" on="0"/>
        <pt x="964" y="1865" on="0"/>
        <pt x="964" y="1842" on="1"/>
        <pt x="964" y="1812" on="0"/>
        <pt x="939" y="1756" on="0"/>
        <pt x="897" y="1714" on="0"/>
        <pt x="841" y="1688" on="0"/>
      </contour>
      <contour>
        <pt x="605" y="-16" on="1"/>
        <pt x="513" y="-16" on="0"/>
        <pt x="366" y="36" on="0"/>
        <pt x="253" y="127" on="0"/>
        <pt x="171" y="251" on="0"/>
        <pt x="119" y="394" on="0"/>
        <pt x="93" y="549" on="0"/>
        <pt x="92" y="627" on="1"/>
        <pt x="90" y="764" on="0"/>
        <pt x="141" y="1006" on="0"/>
        <pt x="239" y="1208" on="0"/>
        <pt x="377" y="1368" on="0"/>
        <pt x="543" y="1479" on="0"/>
        <pt x="733" y="1538" on="0"/>
        <pt x="834" y="1538" on="1"/>
        <pt x="902" y="1538" on="0"/>
        <pt x="1012" y="1528" on="0"/>
        <pt x="1099" y="1514" on="0"/>
        <pt x="1165" y="1498" on="0"/>
        <pt x="1189" y="1492" on="1"/>
        <pt x="1227" y="1481" on="1"/>
        <pt x="1161" y="1113" on="1"/>
        <pt x="1039" y="1113" on="1"/>
        <pt x="1015" y="1375" on="1"/>
        <pt x="1001" y="1384" on="0"/>
        <pt x="966" y="1401" on="0"/>
        <pt x="917" y="1413" on="0"/>
        <pt x="851" y="1420" on="0"/>
        <pt x="808" y="1420" on="1"/>
        <pt x="713" y="1420" on="0"/>
        <pt x="564" y="1347" on="0"/>
        <pt x="452" y="1226" on="0"/>
        <pt x="375" y="1067" on="0"/>
        <pt x="327" y="896" on="0"/>
        <pt x="307" y="723" on="0"/>
        <pt x="308" y="648" on="1"/>
        <pt x="309" y="582" on="0"/>
        <pt x="327" y="449" on="0"/>
        <pt x="361" y="328" on="0"/>
        <pt x="415" y="224" on="0"/>
        <pt x="489" y="147" on="0"/>
        <pt x="585" y="103" on="0"/>
        <pt x="645" y="103" on="1"/>
        <pt x="679" y="103" on="0"/>
        <pt x="759" y="114" on="0"/>
        <pt x="833" y="139" on="0"/>
        <pt x="894" y="178" on="0"/>
        <pt x="910" y="206" on="1"/>
        <pt x="910" y="206" on="0"/>
        <pt x="920" y="235" on="0"/>
        <pt x="935" y="278" on="0"/>
        <pt x="953" y="329" on="0"/>
        <pt x="968" y="373" on="0"/>
        <pt x="978" y="402" on="0"/>
        <pt x="978" y="403" on="1"/>
        <pt x="1102" y="402" on="1"/>
        <pt x="1062" y="73" on="1"/>
        <pt x="1036" y="64" on="0"/>
        <pt x="950" y="34" on="0"/>
        <pt x="834" y="5" on="0"/>
        <pt x="689" y="-16" on="0"/>
      </contour>
    </TTGlyph>
    <TTGlyph name="D" xMin="26" yMin="-19" xMax="1373" yMax="1538">
      <contour>
        <pt x="36" y="87" on="1"/>
        <pt x="184" y="117" on="1"/>
        <pt x="346" y="1398" on="1"/>
        <pt x="213" y="1421" on="1"/>
        <pt x="225" y="1522" on="1"/>
        <pt x="522" y="1522" on="1"/>
        <pt x="588" y="1523" on="0"/>
        <pt x="720" y="1538" on="0"/>
        <pt x="791" y="1538" on="1"/>
        <pt x="945" y="1538" on="0"/>
        <pt x="1163" y="1450" on="0"/>
        <pt x="1302" y="1288" on="0"/>
        <pt x="1369" y="1061" on="0"/>
        <pt x="1371" y="922" on="1"/>
        <pt x="1373" y="790" on="0"/>
        <pt x="1325" y="546" on="0"/>
        <pt x="1230" y="335" on="0"/>
        <pt x="1091" y="164" on="0"/>
        <pt x="915" y="44" on="0"/>
        <pt x="705" y="-19" on="0"/>
        <pt x="586" y="-16" on="1"/>
        <pt x="575" y="-16" on="0"/>
        <pt x="547" y="-14" on="0"/>
        <pt x="516" y="-12" on="0"/>
        <pt x="486" y="-10" on="0"/>
        <pt x="474" y="-9" on="1"/>
        <pt x="457" y="-8" on="0"/>
        <pt x="407" y="-4" on="0"/>
        <pt x="351" y="-2" on="0"/>
        <pt x="296" y="0" on="0"/>
        <pt x="275" y="0" on="1"/>
        <pt x="26" y="0" on="1"/>
      </contour>
      <contour>
        <pt x="390" y="132" on="1"/>
        <pt x="412" y="124" on="0"/>
        <pt x="477" y="113" on="0"/>
        <pt x="546" y="106" on="0"/>
        <pt x="612" y="101" on="0"/>
        <pt x="636" y="101" on="1"/>
        <pt x="732" y="108" on="0"/>
        <pt x="885" y="180" on="0"/>
        <pt x="1002" y="297" on="0"/>
        <pt x="1086" y="450" on="0"/>
        <pt x="1139" y="624" on="0"/>
        <pt x="1162" y="812" on="0"/>
        <pt x="1161" y="905" on="1"/>
        <pt x="1159" y="1049" on="0"/>
        <pt x="1109" y="1246" on="0"/>
        <pt x="1006" y="1368" on="0"/>
        <pt x="846" y="1422" on="0"/>
        <pt x="733" y="1422" on="1"/>
        <pt x="712" y="1422" on="0"/>
        <pt x="661" y="1419" on="0"/>
        <pt x="609" y="1413" on="0"/>
        <pt x="564" y="1405" on="0"/>
        <pt x="549" y="1401" on="1"/>
      </contour>
    </TTGlyph>
    <TTGlyph name="Dcaron" xMin="18" yMin="-19" xMax="1365" yMax="2001">
      <contour>
        <pt x="494" y="1943" on="1"/>
        <pt x="571" y="2001" on="1"/>
        <pt x="808" y="1768" on="1"/>
        <pt x="1125" y="2001" on="1"/>
        <pt x="1189" y="1944" on="1"/>
        <pt x="891" y="1623" on="1"/>
        <pt x="716" y="1623" on="1"/>
      </contour>
      <contour>
        <pt x="28" y="87" on="1"/>
        <pt x="176" y="117" on="1"/>
        <pt x="338" y="1398" on="1"/>
        <pt x="205" y="1421" on="1"/>
        <pt x="217" y="1522" on="1"/>
        <pt x="514" y="1522" on="1"/>
        <pt x="580" y="1523" on="0"/>
        <pt x="712" y="1538" on="0"/>
        <pt x="783" y="1538" on="1"/>
        <pt x="937" y="1538" on="0"/>
        <pt x="1155" y="1450" on="0"/>
        <pt x="1294" y="1288" on="0"/>
        <pt x="1361" y="1061" on="0"/>
        <pt x="1363" y="922" on="1"/>
        <pt x="1365" y="790" on="0"/>
        <pt x="1317" y="546" on="0"/>
        <pt x="1222" y="335" on="0"/>
        <pt x="1083" y="164" on="0"/>
        <pt x="907" y="44" on="0"/>
        <pt x="697" y="-19" on="0"/>
        <pt x="578" y="-16" on="1"/>
        <pt x="567" y="-16" on="0"/>
        <pt x="539" y="-14" on="0"/>
        <pt x="508" y="-12" on="0"/>
        <pt x="478" y="-10" on="0"/>
        <pt x="466" y="-9" on="1"/>
        <pt x="449" y="-8" on="0"/>
        <pt x="399" y="-4" on="0"/>
        <pt x="343" y="-2" on="0"/>
        <pt x="288" y="0" on="0"/>
        <pt x="267" y="0" on="1"/>
        <pt x="18" y="0" on="1"/>
      </contour>
      <contour>
        <pt x="382" y="132" on="1"/>
        <pt x="404" y="124" on="0"/>
        <pt x="469" y="113" on="0"/>
        <pt x="538" y="106" on="0"/>
        <pt x="604" y="101" on="0"/>
        <pt x="628" y="101" on="1"/>
        <pt x="724" y="108" on="0"/>
        <pt x="877" y="180" on="0"/>
        <pt x="994" y="297" on="0"/>
        <pt x="1078" y="450" on="0"/>
        <pt x="1131" y="624" on="0"/>
        <pt x="1154" y="812" on="0"/>
        <pt x="1153" y="905" on="1"/>
        <pt x="1151" y="1049" on="0"/>
        <pt x="1101" y="1246" on="0"/>
        <pt x="998" y="1368" on="0"/>
        <pt x="838" y="1422" on="0"/>
        <pt x="725" y="1422" on="1"/>
        <pt x="704" y="1422" on="0"/>
        <pt x="653" y="1419" on="0"/>
        <pt x="601" y="1413" on="0"/>
        <pt x="556" y="1405" on="0"/>
        <pt x="541" y="1401" on="1"/>
      </contour>
    </TTGlyph>
    <TTGlyph name="Dcroat" xMin="17" yMin="-17" xMax="1364" yMax="1540">
      <contour>
        <pt x="27" y="89" on="1"/>
        <pt x="175" y="119" on="1"/>
        <pt x="251" y="721" on="1"/>
        <pt x="101" y="721" on="1"/>
        <pt x="117" y="853" on="1"/>
        <pt x="267" y="853" on="1"/>
        <pt x="337" y="1400" on="1"/>
        <pt x="204" y="1423" on="1"/>
        <pt x="216" y="1524" on="1"/>
        <pt x="513" y="1524" on="1"/>
        <pt x="579" y="1525" on="0"/>
        <pt x="711" y="1540" on="0"/>
        <pt x="782" y="1540" on="1"/>
        <pt x="936" y="1540" on="0"/>
        <pt x="1154" y="1452" on="0"/>
        <pt x="1293" y="1290" on="0"/>
        <pt x="1360" y="1063" on="0"/>
        <pt x="1362" y="924" on="1"/>
        <pt x="1364" y="791" on="0"/>
        <pt x="1316" y="548" on="0"/>
        <pt x="1221" y="337" on="0"/>
        <pt x="1082" y="166" on="0"/>
        <pt x="906" y="46" on="0"/>
        <pt x="696" y="-17" on="0"/>
        <pt x="577" y="-14" on="1"/>
        <pt x="566" y="-14" on="0"/>
        <pt x="538" y="-12" on="0"/>
        <pt x="507" y="-10" on="0"/>
        <pt x="477" y="-8" on="0"/>
        <pt x="465" y="-7" on="1"/>
        <pt x="448" y="-6" on="0"/>
        <pt x="398" y="-2" on="0"/>
        <pt x="342" y="0" on="0"/>
        <pt x="287" y="2" on="0"/>
        <pt x="266" y="2" on="1"/>
        <pt x="17" y="2" on="1"/>
      </contour>
      <contour>
        <pt x="381" y="134" on="1"/>
        <pt x="403" y="126" on="0"/>
        <pt x="468" y="115" on="0"/>
        <pt x="537" y="108" on="0"/>
        <pt x="603" y="103" on="0"/>
        <pt x="627" y="103" on="1"/>
        <pt x="723" y="110" on="0"/>
        <pt x="876" y="182" on="0"/>
        <pt x="993" y="299" on="0"/>
        <pt x="1077" y="452" on="0"/>
        <pt x="1130" y="626" on="0"/>
        <pt x="1153" y="814" on="0"/>
        <pt x="1152" y="907" on="1"/>
        <pt x="1150" y="1051" on="0"/>
        <pt x="1100" y="1248" on="0"/>
        <pt x="997" y="1370" on="0"/>
        <pt x="837" y="1424" on="0"/>
        <pt x="724" y="1424" on="1"/>
        <pt x="703" y="1424" on="0"/>
        <pt x="652" y="1421" on="0"/>
        <pt x="600" y="1415" on="0"/>
        <pt x="555" y="1407" on="0"/>
        <pt x="540" y="1403" on="1"/>
        <pt x="471" y="853" on="1"/>
        <pt x="858" y="853" on="1"/>
        <pt x="841" y="721" on="1"/>
        <pt x="454" y="721" on="1"/>
      </contour>
    </TTGlyph>
    <TTGlyph name="Delta" xMin="-34" yMin="0" xMax="1333" yMax="1509">
      <contour>
        <pt x="-34" y="22" on="1"/>
        <pt x="730" y="1509" on="1"/>
        <pt x="764" y="1509" on="1"/>
        <pt x="1333" y="27" on="1"/>
        <pt x="1316" y="0" on="1"/>
        <pt x="-22" y="0" on="1"/>
      </contour>
      <contour>
        <pt x="1070" y="124" on="1"/>
        <pt x="682" y="1183" on="1"/>
        <pt x="158" y="124" on="1"/>
      </contour>
    </TTGlyph>
    <TTGlyph name="Deltagreek" xMin="-34" yMin="0" xMax="1333" yMax="1509">
      <contour>
        <pt x="-34" y="22" on="1"/>
        <pt x="730" y="1509" on="1"/>
        <pt x="764" y="1509" on="1"/>
        <pt x="1333" y="27" on="1"/>
        <pt x="1316" y="0" on="1"/>
        <pt x="-22" y="0" on="1"/>
      </contour>
      <contour>
        <pt x="1070" y="124" on="1"/>
        <pt x="682" y="1183" on="1"/>
        <pt x="158" y="124" on="1"/>
      </contour>
    </TTGlyph>
    <TTGlyph name="E" xMin="25" yMin="0" xMax="1163" yMax="1522">
      <contour>
        <pt x="36" y="87" on="1"/>
        <pt x="185" y="116" on="1"/>
        <pt x="345" y="1398" on="1"/>
        <pt x="212" y="1421" on="1"/>
        <pt x="224" y="1522" on="1"/>
        <pt x="1158" y="1522" on="1"/>
        <pt x="1150" y="1210" on="1"/>
        <pt x="1039" y="1210" on="1"/>
        <pt x="992" y="1399" on="1"/>
        <pt x="555" y="1414" on="1"/>
        <pt x="483" y="855" on="1"/>
        <pt x="931" y="863" on="1"/>
        <pt x="918" y="704" on="1"/>
        <pt x="471" y="721" on="1"/>
        <pt x="388" y="117" on="1"/>
        <pt x="935" y="141" on="1"/>
        <pt x="1054" y="352" on="1"/>
        <pt x="1163" y="322" on="1"/>
        <pt x="1075" y="0" on="1"/>
        <pt x="25" y="0" on="1"/>
      </contour>
    </TTGlyph>
    <TTGlyph name="Eacute" xMin="25" yMin="0" xMax="1163" yMax="2001">
      <contour>
        <pt x="682" y="1659" on="1"/>
        <pt x="958" y="2001" on="1"/>
        <pt x="1084" y="1880" on="1"/>
        <pt x="1064" y="1838" on="0"/>
        <pt x="981" y="1754" on="0"/>
        <pt x="883" y="1681" on="0"/>
        <pt x="783" y="1624" on="0"/>
        <pt x="747" y="1611" on="1"/>
      </contour>
      <contour>
        <pt x="36" y="87" on="1"/>
        <pt x="185" y="116" on="1"/>
        <pt x="345" y="1398" on="1"/>
        <pt x="212" y="1421" on="1"/>
        <pt x="224" y="1522" on="1"/>
        <pt x="1158" y="1522" on="1"/>
        <pt x="1150" y="1210" on="1"/>
        <pt x="1039" y="1210" on="1"/>
        <pt x="992" y="1399" on="1"/>
        <pt x="555" y="1414" on="1"/>
        <pt x="483" y="855" on="1"/>
        <pt x="931" y="863" on="1"/>
        <pt x="918" y="704" on="1"/>
        <pt x="471" y="721" on="1"/>
        <pt x="388" y="117" on="1"/>
        <pt x="935" y="141" on="1"/>
        <pt x="1054" y="352" on="1"/>
        <pt x="1163" y="322" on="1"/>
        <pt x="1075" y="0" on="1"/>
        <pt x="25" y="0" on="1"/>
      </contour>
    </TTGlyph>
    <TTGlyph name="Ebreve" xMin="25" yMin="0" xMax="1163" yMax="1980">
      <contour>
        <pt x="777" y="1628" on="1"/>
        <pt x="699" y="1628" on="0"/>
        <pt x="589" y="1681" on="0"/>
        <pt x="518" y="1768" on="0"/>
        <pt x="486" y="1878" on="0"/>
        <pt x="486" y="1934" on="1"/>
        <pt x="486" y="1959" on="0"/>
        <pt x="489" y="1980" on="1"/>
        <pt x="600" y="1980" on="1"/>
        <pt x="602" y="1956" on="0"/>
        <pt x="614" y="1887" on="0"/>
        <pt x="651" y="1823" on="0"/>
        <pt x="721" y="1778" on="0"/>
        <pt x="782" y="1778" on="1"/>
        <pt x="837" y="1778" on="0"/>
        <pt x="913" y="1819" on="0"/>
        <pt x="964" y="1880" on="0"/>
        <pt x="994" y="1950" on="0"/>
        <pt x="1002" y="1980" on="1"/>
        <pt x="1107" y="1980" on="1"/>
        <pt x="1107" y="1918" on="0"/>
        <pt x="1054" y="1792" on="0"/>
        <pt x="963" y="1691" on="0"/>
        <pt x="843" y="1628" on="0"/>
      </contour>
      <contour>
        <pt x="36" y="87" on="1"/>
        <pt x="185" y="116" on="1"/>
        <pt x="345" y="1398" on="1"/>
        <pt x="212" y="1421" on="1"/>
        <pt x="224" y="1522" on="1"/>
        <pt x="1158" y="1522" on="1"/>
        <pt x="1150" y="1210" on="1"/>
        <pt x="1039" y="1210" on="1"/>
        <pt x="992" y="1399" on="1"/>
        <pt x="555" y="1414" on="1"/>
        <pt x="483" y="855" on="1"/>
        <pt x="931" y="863" on="1"/>
        <pt x="918" y="704" on="1"/>
        <pt x="471" y="721" on="1"/>
        <pt x="388" y="117" on="1"/>
        <pt x="935" y="141" on="1"/>
        <pt x="1054" y="352" on="1"/>
        <pt x="1163" y="322" on="1"/>
        <pt x="1075" y="0" on="1"/>
        <pt x="25" y="0" on="1"/>
      </contour>
    </TTGlyph>
    <TTGlyph name="Ecaron" xMin="25" yMin="0" xMax="1163" yMax="2001">
      <contour>
        <pt x="464" y="1943" on="1"/>
        <pt x="541" y="2001" on="1"/>
        <pt x="778" y="1768" on="1"/>
        <pt x="1095" y="2001" on="1"/>
        <pt x="1159" y="1944" on="1"/>
        <pt x="861" y="1623" on="1"/>
        <pt x="686" y="1623" on="1"/>
      </contour>
      <contour>
        <pt x="36" y="87" on="1"/>
        <pt x="185" y="116" on="1"/>
        <pt x="345" y="1398" on="1"/>
        <pt x="212" y="1421" on="1"/>
        <pt x="224" y="1522" on="1"/>
        <pt x="1158" y="1522" on="1"/>
        <pt x="1150" y="1210" on="1"/>
        <pt x="1039" y="1210" on="1"/>
        <pt x="992" y="1399" on="1"/>
        <pt x="555" y="1414" on="1"/>
        <pt x="483" y="855" on="1"/>
        <pt x="931" y="863" on="1"/>
        <pt x="918" y="704" on="1"/>
        <pt x="471" y="721" on="1"/>
        <pt x="388" y="117" on="1"/>
        <pt x="935" y="141" on="1"/>
        <pt x="1054" y="352" on="1"/>
        <pt x="1163" y="322" on="1"/>
        <pt x="1075" y="0" on="1"/>
        <pt x="25" y="0" on="1"/>
      </contour>
    </TTGlyph>
    <TTGlyph name="Ecircumflex" xMin="25" yMin="0" xMax="1163" yMax="2001">
      <contour>
        <pt x="36" y="87" on="1"/>
        <pt x="185" y="116" on="1"/>
        <pt x="345" y="1398" on="1"/>
        <pt x="212" y="1421" on="1"/>
        <pt x="224" y="1522" on="1"/>
        <pt x="1158" y="1522" on="1"/>
        <pt x="1150" y="1210" on="1"/>
        <pt x="1039" y="1210" on="1"/>
        <pt x="992" y="1399" on="1"/>
        <pt x="555" y="1414" on="1"/>
        <pt x="483" y="855" on="1"/>
        <pt x="931" y="863" on="1"/>
        <pt x="918" y="704" on="1"/>
        <pt x="471" y="721" on="1"/>
        <pt x="388" y="117" on="1"/>
        <pt x="935" y="141" on="1"/>
        <pt x="1054" y="352" on="1"/>
        <pt x="1163" y="322" on="1"/>
        <pt x="1075" y="0" on="1"/>
        <pt x="25" y="0" on="1"/>
      </contour>
      <contour>
        <pt x="433" y="1682" on="1"/>
        <pt x="741" y="2001" on="1"/>
        <pt x="918" y="2001" on="1"/>
        <pt x="1130" y="1682" on="1"/>
        <pt x="1059" y="1623" on="1"/>
        <pt x="820" y="1850" on="1"/>
        <pt x="496" y="1624" on="1"/>
      </contour>
    </TTGlyph>
    <TTGlyph name="Edieresis" xMin="25" yMin="0" xMax="1163" yMax="1990">
      <contour>
        <pt x="992" y="1724" on="1"/>
        <pt x="968" y="1724" on="0"/>
        <pt x="926" y="1743" on="0"/>
        <pt x="895" y="1776" on="0"/>
        <pt x="877" y="1819" on="0"/>
        <pt x="877" y="1844" on="1"/>
        <pt x="877" y="1874" on="0"/>
        <pt x="904" y="1927" on="0"/>
        <pt x="947" y="1967" on="0"/>
        <pt x="999" y="1990" on="0"/>
        <pt x="1023" y="1990" on="1"/>
        <pt x="1080" y="1990" on="0"/>
        <pt x="1145" y="1924" on="0"/>
        <pt x="1145" y="1878" on="1"/>
        <pt x="1145" y="1848" on="0"/>
        <pt x="1121" y="1792" on="0"/>
        <pt x="1079" y="1749" on="0"/>
        <pt x="1023" y="1724" on="0"/>
      </contour>
      <contour>
        <pt x="572" y="1724" on="1"/>
        <pt x="549" y="1724" on="0"/>
        <pt x="507" y="1743" on="0"/>
        <pt x="476" y="1774" on="0"/>
        <pt x="458" y="1816" on="0"/>
        <pt x="458" y="1840" on="1"/>
        <pt x="458" y="1870" on="0"/>
        <pt x="484" y="1924" on="0"/>
        <pt x="525" y="1966" on="0"/>
        <pt x="576" y="1990" on="0"/>
        <pt x="602" y="1990" on="1"/>
        <pt x="630" y="1990" on="0"/>
        <pt x="676" y="1972" on="0"/>
        <pt x="708" y="1941" on="0"/>
        <pt x="725" y="1900" on="0"/>
        <pt x="725" y="1877" on="1"/>
        <pt x="725" y="1847" on="0"/>
        <pt x="700" y="1791" on="0"/>
        <pt x="658" y="1749" on="0"/>
        <pt x="602" y="1724" on="0"/>
      </contour>
      <contour>
        <pt x="36" y="87" on="1"/>
        <pt x="185" y="116" on="1"/>
        <pt x="345" y="1398" on="1"/>
        <pt x="212" y="1421" on="1"/>
        <pt x="224" y="1522" on="1"/>
        <pt x="1158" y="1522" on="1"/>
        <pt x="1150" y="1210" on="1"/>
        <pt x="1039" y="1210" on="1"/>
        <pt x="992" y="1399" on="1"/>
        <pt x="555" y="1414" on="1"/>
        <pt x="483" y="855" on="1"/>
        <pt x="931" y="863" on="1"/>
        <pt x="918" y="704" on="1"/>
        <pt x="471" y="721" on="1"/>
        <pt x="388" y="117" on="1"/>
        <pt x="935" y="141" on="1"/>
        <pt x="1054" y="352" on="1"/>
        <pt x="1163" y="322" on="1"/>
        <pt x="1075" y="0" on="1"/>
        <pt x="25" y="0" on="1"/>
      </contour>
    </TTGlyph>
    <TTGlyph name="Edotaccent" xMin="25" yMin="0" xMax="1163" yMax="1955">
      <contour>
        <pt x="775" y="1688" on="1"/>
        <pt x="751" y="1688" on="0"/>
        <pt x="708" y="1707" on="0"/>
        <pt x="677" y="1738" on="0"/>
        <pt x="658" y="1780" on="0"/>
        <pt x="658" y="1804" on="1"/>
        <pt x="658" y="1834" on="0"/>
        <pt x="684" y="1889" on="0"/>
        <pt x="726" y="1930" on="0"/>
        <pt x="778" y="1955" on="0"/>
        <pt x="804" y="1955" on="1"/>
        <pt x="832" y="1955" on="0"/>
        <pt x="878" y="1937" on="0"/>
        <pt x="911" y="1906" on="0"/>
        <pt x="929" y="1865" on="0"/>
        <pt x="929" y="1842" on="1"/>
        <pt x="929" y="1812" on="0"/>
        <pt x="904" y="1756" on="0"/>
        <pt x="862" y="1714" on="0"/>
        <pt x="806" y="1688" on="0"/>
      </contour>
      <contour>
        <pt x="36" y="87" on="1"/>
        <pt x="185" y="116" on="1"/>
        <pt x="345" y="1398" on="1"/>
        <pt x="212" y="1421" on="1"/>
        <pt x="224" y="1522" on="1"/>
        <pt x="1158" y="1522" on="1"/>
        <pt x="1150" y="1210" on="1"/>
        <pt x="1039" y="1210" on="1"/>
        <pt x="992" y="1399" on="1"/>
        <pt x="555" y="1414" on="1"/>
        <pt x="483" y="855" on="1"/>
        <pt x="931" y="863" on="1"/>
        <pt x="918" y="704" on="1"/>
        <pt x="471" y="721" on="1"/>
        <pt x="388" y="117" on="1"/>
        <pt x="935" y="141" on="1"/>
        <pt x="1054" y="352" on="1"/>
        <pt x="1163" y="322" on="1"/>
        <pt x="1075" y="0" on="1"/>
        <pt x="25" y="0" on="1"/>
      </contour>
    </TTGlyph>
    <TTGlyph name="Egrave" xMin="25" yMin="0" xMax="1163" yMax="2001">
      <contour>
        <pt x="756" y="1611" on="1"/>
        <pt x="720" y="1624" on="0"/>
        <pt x="621" y="1682" on="0"/>
        <pt x="523" y="1756" on="0"/>
        <pt x="443" y="1840" on="0"/>
        <pt x="426" y="1880" on="1"/>
        <pt x="561" y="2001" on="1"/>
        <pt x="824" y="1659" on="1"/>
        <pt x="756" y="1611" on="1"/>
      </contour>
      <contour>
        <pt x="36" y="87" on="1"/>
        <pt x="185" y="116" on="1"/>
        <pt x="345" y="1398" on="1"/>
        <pt x="212" y="1421" on="1"/>
        <pt x="224" y="1522" on="1"/>
        <pt x="1158" y="1522" on="1"/>
        <pt x="1150" y="1210" on="1"/>
        <pt x="1039" y="1210" on="1"/>
        <pt x="992" y="1399" on="1"/>
        <pt x="555" y="1414" on="1"/>
        <pt x="483" y="855" on="1"/>
        <pt x="931" y="863" on="1"/>
        <pt x="918" y="704" on="1"/>
        <pt x="471" y="721" on="1"/>
        <pt x="388" y="117" on="1"/>
        <pt x="935" y="141" on="1"/>
        <pt x="1054" y="352" on="1"/>
        <pt x="1163" y="322" on="1"/>
        <pt x="1075" y="0" on="1"/>
        <pt x="25" y="0" on="1"/>
      </contour>
    </TTGlyph>
    <TTGlyph name="Emacron" xMin="25" yMin="0" xMax="1163" yMax="1880">
      <contour>
        <pt x="527" y="1880" on="1"/>
        <pt x="1039" y="1880" on="1"/>
        <pt x="1019" y="1728" on="1"/>
        <pt x="508" y="1728" on="1"/>
      </contour>
      <contour>
        <pt x="36" y="87" on="1"/>
        <pt x="185" y="116" on="1"/>
        <pt x="345" y="1398" on="1"/>
        <pt x="212" y="1421" on="1"/>
        <pt x="224" y="1522" on="1"/>
        <pt x="1158" y="1522" on="1"/>
        <pt x="1150" y="1210" on="1"/>
        <pt x="1039" y="1210" on="1"/>
        <pt x="992" y="1399" on="1"/>
        <pt x="555" y="1414" on="1"/>
        <pt x="483" y="855" on="1"/>
        <pt x="931" y="863" on="1"/>
        <pt x="918" y="704" on="1"/>
        <pt x="471" y="721" on="1"/>
        <pt x="388" y="117" on="1"/>
        <pt x="935" y="141" on="1"/>
        <pt x="1054" y="352" on="1"/>
        <pt x="1163" y="322" on="1"/>
        <pt x="1075" y="0" on="1"/>
        <pt x="25" y="0" on="1"/>
      </contour>
    </TTGlyph>
    <TTGlyph name="Eng" xMin="31" yMin="-370" xMax="1552" yMax="1522">
      <contour>
        <pt x="39" y="87" on="1"/>
        <pt x="175" y="115" on="1"/>
        <pt x="350" y="1398" on="1"/>
        <pt x="197" y="1421" on="1"/>
        <pt x="214" y="1522" on="1"/>
        <pt x="563" y="1522" on="1"/>
        <pt x="1036" y="426" on="1"/>
        <pt x="1097" y="231" on="1"/>
        <pt x="1232" y="1399" on="1"/>
        <pt x="1091" y="1421" on="1"/>
        <pt x="1103" y="1522" on="1"/>
        <pt x="1552" y="1522" on="1"/>
        <pt x="1542" y="1421" on="1"/>
        <pt x="1397" y="1398" on="1"/>
        <pt x="1198" y="0" on="1"/>
        <pt x="1185" y="-90" on="0"/>
        <pt x="1090" y="-218" on="0"/>
        <pt x="958" y="-305" on="0"/>
        <pt x="805" y="-357" on="0"/>
        <pt x="733" y="-370" on="1"/>
        <pt x="697" y="-281" on="1"/>
        <pt x="749" y="-263" on="0"/>
        <pt x="852" y="-210" on="0"/>
        <pt x="937" y="-140" on="0"/>
        <pt x="997" y="-53" on="0"/>
        <pt x="1006" y="0" on="1"/>
        <pt x="529" y="1085" on="1"/>
        <pt x="471" y="1270" on="1"/>
        <pt x="350" y="117" on="1"/>
        <pt x="506" y="88" on="1"/>
        <pt x="497" y="0" on="1"/>
        <pt x="31" y="0" on="1"/>
      </contour>
    </TTGlyph>
    <TTGlyph name="Eogonek" xMin="25" yMin="-419" xMax="1163" yMax="1522">
      <contour>
        <pt x="36" y="87" on="1"/>
        <pt x="185" y="116" on="1"/>
        <pt x="345" y="1398" on="1"/>
        <pt x="212" y="1421" on="1"/>
        <pt x="224" y="1522" on="1"/>
        <pt x="1158" y="1522" on="1"/>
        <pt x="1150" y="1210" on="1"/>
        <pt x="1039" y="1210" on="1"/>
        <pt x="992" y="1399" on="1"/>
        <pt x="555" y="1414" on="1"/>
        <pt x="483" y="855" on="1"/>
        <pt x="931" y="863" on="1"/>
        <pt x="918" y="704" on="1"/>
        <pt x="471" y="721" on="1"/>
        <pt x="388" y="117" on="1"/>
        <pt x="935" y="141" on="1"/>
        <pt x="1054" y="352" on="1"/>
        <pt x="1163" y="322" on="1"/>
        <pt x="1075" y="0" on="1"/>
        <pt x="972" y="0" on="1"/>
        <pt x="938" y="-27" on="0"/>
        <pt x="879" y="-80" on="0"/>
        <pt x="836" y="-130" on="0"/>
        <pt x="811" y="-178" on="0"/>
        <pt x="811" y="-202" on="1"/>
        <pt x="809" y="-226" on="0"/>
        <pt x="819" y="-259" on="0"/>
        <pt x="836" y="-278" on="0"/>
        <pt x="855" y="-287" on="0"/>
        <pt x="864" y="-287" on="1"/>
        <pt x="892" y="-287" on="0"/>
        <pt x="953" y="-260" on="0"/>
        <pt x="995" y="-227" on="1"/>
        <pt x="1022" y="-322" on="1"/>
        <pt x="1002" y="-340" on="0"/>
        <pt x="950" y="-375" on="0"/>
        <pt x="887" y="-402" on="0"/>
        <pt x="812" y="-419" on="0"/>
        <pt x="768" y="-419" on="1"/>
        <pt x="727" y="-419" on="0"/>
        <pt x="668" y="-394" on="0"/>
        <pt x="630" y="-355" on="0"/>
        <pt x="612" y="-305" on="0"/>
        <pt x="613" y="-281" on="1"/>
        <pt x="615" y="-249" on="0"/>
        <pt x="635" y="-181" on="0"/>
        <pt x="654" y="-157" on="1"/>
        <pt x="678" y="-125" on="0"/>
        <pt x="728" y="-79" on="0"/>
        <pt x="778" y="-43" on="0"/>
        <pt x="828" y="-14" on="0"/>
        <pt x="852" y="0" on="1"/>
        <pt x="25" y="0" on="1"/>
      </contour>
    </TTGlyph>
    <TTGlyph name="Eth" xMin="17" yMin="-17" xMax="1364" yMax="1540">
      <contour>
        <pt x="27" y="89" on="1"/>
        <pt x="175" y="119" on="1"/>
        <pt x="251" y="721" on="1"/>
        <pt x="101" y="721" on="1"/>
        <pt x="117" y="853" on="1"/>
        <pt x="267" y="853" on="1"/>
        <pt x="337" y="1400" on="1"/>
        <pt x="204" y="1423" on="1"/>
        <pt x="216" y="1524" on="1"/>
        <pt x="513" y="1524" on="1"/>
        <pt x="579" y="1525" on="0"/>
        <pt x="711" y="1540" on="0"/>
        <pt x="782" y="1540" on="1"/>
        <pt x="936" y="1540" on="0"/>
        <pt x="1154" y="1452" on="0"/>
        <pt x="1293" y="1290" on="0"/>
        <pt x="1360" y="1063" on="0"/>
        <pt x="1362" y="924" on="1"/>
        <pt x="1364" y="791" on="0"/>
        <pt x="1316" y="548" on="0"/>
        <pt x="1221" y="337" on="0"/>
        <pt x="1082" y="166" on="0"/>
        <pt x="906" y="46" on="0"/>
        <pt x="696" y="-17" on="0"/>
        <pt x="577" y="-14" on="1"/>
        <pt x="566" y="-14" on="0"/>
        <pt x="538" y="-12" on="0"/>
        <pt x="507" y="-10" on="0"/>
        <pt x="477" y="-8" on="0"/>
        <pt x="465" y="-7" on="1"/>
        <pt x="448" y="-6" on="0"/>
        <pt x="398" y="-2" on="0"/>
        <pt x="342" y="0" on="0"/>
        <pt x="287" y="2" on="0"/>
        <pt x="266" y="2" on="1"/>
        <pt x="17" y="2" on="1"/>
      </contour>
      <contour>
        <pt x="381" y="134" on="1"/>
        <pt x="403" y="126" on="0"/>
        <pt x="468" y="115" on="0"/>
        <pt x="537" y="108" on="0"/>
        <pt x="603" y="103" on="0"/>
        <pt x="627" y="103" on="1"/>
        <pt x="723" y="110" on="0"/>
        <pt x="876" y="182" on="0"/>
        <pt x="993" y="299" on="0"/>
        <pt x="1077" y="452" on="0"/>
        <pt x="1130" y="626" on="0"/>
        <pt x="1153" y="814" on="0"/>
        <pt x="1152" y="907" on="1"/>
        <pt x="1150" y="1051" on="0"/>
        <pt x="1100" y="1248" on="0"/>
        <pt x="997" y="1370" on="0"/>
        <pt x="837" y="1424" on="0"/>
        <pt x="724" y="1424" on="1"/>
        <pt x="703" y="1424" on="0"/>
        <pt x="652" y="1421" on="0"/>
        <pt x="600" y="1415" on="0"/>
        <pt x="555" y="1407" on="0"/>
        <pt x="540" y="1403" on="1"/>
        <pt x="471" y="853" on="1"/>
        <pt x="858" y="853" on="1"/>
        <pt x="841" y="721" on="1"/>
        <pt x="454" y="721" on="1"/>
      </contour>
    </TTGlyph>
    <TTGlyph name="Euro" xMin="26" yMin="-16" xMax="1319" yMax="1538">
      <contour>
        <pt x="41" y="695" on="1"/>
        <pt x="223" y="695" on="1"/>
        <pt x="227" y="799" on="0"/>
        <pt x="247" y="894" on="1"/>
        <pt x="89" y="894" on="1"/>
        <pt x="108" y="1025" on="1"/>
        <pt x="283" y="1025" on="1"/>
        <pt x="325" y="1145" on="0"/>
        <pt x="460" y="1336" on="0"/>
        <pt x="629" y="1468" on="0"/>
        <pt x="826" y="1538" on="0"/>
        <pt x="931" y="1538" on="1"/>
        <pt x="989" y="1538" on="0"/>
        <pt x="1082" y="1528" on="0"/>
        <pt x="1157" y="1512" on="0"/>
        <pt x="1218" y="1493" on="0"/>
        <pt x="1245" y="1484" on="1"/>
        <pt x="1263" y="1479" on="0"/>
        <pt x="1306" y="1467" on="0"/>
        <pt x="1319" y="1464" on="1"/>
        <pt x="1265" y="1241" on="1"/>
        <pt x="1156" y="1241" on="1"/>
        <pt x="1128" y="1348" on="1"/>
        <pt x="1115" y="1362" on="0"/>
        <pt x="1075" y="1388" on="0"/>
        <pt x="1015" y="1407" on="0"/>
        <pt x="933" y="1419" on="0"/>
        <pt x="878" y="1419" on="1"/>
        <pt x="804" y="1419" on="0"/>
        <pt x="679" y="1365" on="0"/>
        <pt x="579" y="1264" on="0"/>
        <pt x="503" y="1118" on="0"/>
        <pt x="478" y="1025" on="1"/>
        <pt x="1045" y="1025" on="1"/>
        <pt x="1025" y="894" on="1"/>
        <pt x="450" y="894" on="1"/>
        <pt x="442" y="847" on="0"/>
        <pt x="433" y="748" on="0"/>
        <pt x="431" y="695" on="1"/>
        <pt x="978" y="695" on="1"/>
        <pt x="965" y="563" on="1"/>
        <pt x="430" y="563" on="1"/>
        <pt x="433" y="457" on="0"/>
        <pt x="471" y="287" on="0"/>
        <pt x="543" y="167" on="0"/>
        <pt x="651" y="103" on="0"/>
        <pt x="725" y="103" on="1"/>
        <pt x="765" y="103" on="0"/>
        <pt x="849" y="115" on="0"/>
        <pt x="926" y="140" on="0"/>
        <pt x="988" y="179" on="0"/>
        <pt x="1007" y="206" on="1"/>
        <pt x="1075" y="343" on="1"/>
        <pt x="1196" y="342" on="1"/>
        <pt x="1150" y="70" on="1"/>
        <pt x="1121" y="68" on="0"/>
        <pt x="1057" y="54" on="0"/>
        <pt x="1020" y="44" on="1"/>
        <pt x="991" y="35" on="0"/>
        <pt x="921" y="14" on="0"/>
        <pt x="839" y="-4" on="0"/>
        <pt x="746" y="-16" on="0"/>
        <pt x="694" y="-16" on="1"/>
        <pt x="616" y="-16" on="0"/>
        <pt x="489" y="29" on="0"/>
        <pt x="389" y="109" on="0"/>
        <pt x="314" y="219" on="0"/>
        <pt x="262" y="347" on="0"/>
        <pt x="231" y="490" on="0"/>
        <pt x="226" y="563" on="1"/>
        <pt x="26" y="563" on="1"/>
      </contour>
    </TTGlyph>
    <TTGlyph name="F" xMin="28" yMin="0" xMax="1200" yMax="1522">
      <contour>
        <pt x="36" y="88" on="1"/>
        <pt x="185" y="117" on="1"/>
        <pt x="345" y="1398" on="1"/>
        <pt x="212" y="1421" on="1"/>
        <pt x="224" y="1522" on="1"/>
        <pt x="1200" y="1522" on="1"/>
        <pt x="1177" y="1209" on="1"/>
        <pt x="1052" y="1209" on="1"/>
        <pt x="1023" y="1393" on="1"/>
        <pt x="551" y="1412" on="1"/>
        <pt x="483" y="854" on="1"/>
        <pt x="954" y="863" on="1"/>
        <pt x="941" y="702" on="1"/>
        <pt x="471" y="720" on="1"/>
        <pt x="389" y="119" on="1"/>
        <pt x="658" y="88" on="1"/>
        <pt x="650" y="0" on="1"/>
        <pt x="28" y="0" on="1"/>
      </contour>
    </TTGlyph>
    <TTGlyph name="G" xMin="97" yMin="-16" xMax="1282" yMax="1538">
      <contour>
        <pt x="602" y="-16" on="1"/>
        <pt x="513" y="-16" on="0"/>
        <pt x="370" y="36" on="0"/>
        <pt x="259" y="127" on="0"/>
        <pt x="179" y="251" on="0"/>
        <pt x="127" y="394" on="0"/>
        <pt x="101" y="549" on="0"/>
        <pt x="100" y="627" on="1"/>
        <pt x="97" y="764" on="0"/>
        <pt x="149" y="1006" on="0"/>
        <pt x="246" y="1208" on="0"/>
        <pt x="383" y="1368" on="0"/>
        <pt x="549" y="1479" on="0"/>
        <pt x="739" y="1538" on="0"/>
        <pt x="840" y="1538" on="1"/>
        <pt x="917" y="1538" on="0"/>
        <pt x="1042" y="1526" on="0"/>
        <pt x="1141" y="1509" on="0"/>
        <pt x="1216" y="1490" on="0"/>
        <pt x="1243" y="1482" on="1"/>
        <pt x="1282" y="1471" on="1"/>
        <pt x="1224" y="1174" on="1"/>
        <pt x="1093" y="1174" on="1"/>
        <pt x="1071" y="1357" on="1"/>
        <pt x="1055" y="1370" on="0"/>
        <pt x="1013" y="1393" on="0"/>
        <pt x="953" y="1410" on="0"/>
        <pt x="872" y="1420" on="0"/>
        <pt x="818" y="1420" on="1"/>
        <pt x="722" y="1420" on="0"/>
        <pt x="572" y="1348" on="0"/>
        <pt x="460" y="1227" on="0"/>
        <pt x="382" y="1069" on="0"/>
        <pt x="334" y="897" on="0"/>
        <pt x="314" y="724" on="0"/>
        <pt x="315" y="648" on="1"/>
        <pt x="316" y="582" on="0"/>
        <pt x="334" y="450" on="0"/>
        <pt x="370" y="329" on="0"/>
        <pt x="425" y="224" on="0"/>
        <pt x="501" y="146" on="0"/>
        <pt x="600" y="102" on="0"/>
        <pt x="662" y="102" on="1"/>
        <pt x="697" y="102" on="0"/>
        <pt x="774" y="109" on="0"/>
        <pt x="851" y="129" on="0"/>
        <pt x="922" y="164" on="0"/>
        <pt x="951" y="193" on="1"/>
        <pt x="1008" y="590" on="1"/>
        <pt x="775" y="607" on="1"/>
        <pt x="788" y="724" on="1"/>
        <pt x="1235" y="724" on="1"/>
        <pt x="1145" y="94" on="1"/>
        <pt x="1116" y="91" on="0"/>
        <pt x="1057" y="73" on="0"/>
        <pt x="1015" y="61" on="1"/>
        <pt x="977" y="50" on="0"/>
        <pt x="884" y="23" on="0"/>
        <pt x="778" y="0" on="0"/>
        <pt x="662" y="-16" on="0"/>
      </contour>
    </TTGlyph>
    <TTGlyph name="Gbreve" xMin="97" yMin="-16" xMax="1282" yMax="1980">
      <contour>
        <pt x="843" y="1628" on="1"/>
        <pt x="765" y="1628" on="0"/>
        <pt x="655" y="1681" on="0"/>
        <pt x="584" y="1768" on="0"/>
        <pt x="552" y="1878" on="0"/>
        <pt x="552" y="1934" on="1"/>
        <pt x="552" y="1959" on="0"/>
        <pt x="555" y="1980" on="1"/>
        <pt x="666" y="1980" on="1"/>
        <pt x="668" y="1956" on="0"/>
        <pt x="680" y="1887" on="0"/>
        <pt x="717" y="1823" on="0"/>
        <pt x="787" y="1778" on="0"/>
        <pt x="848" y="1778" on="1"/>
        <pt x="903" y="1778" on="0"/>
        <pt x="979" y="1819" on="0"/>
        <pt x="1030" y="1880" on="0"/>
        <pt x="1060" y="1950" on="0"/>
        <pt x="1068" y="1980" on="1"/>
        <pt x="1173" y="1980" on="1"/>
        <pt x="1173" y="1918" on="0"/>
        <pt x="1120" y="1792" on="0"/>
        <pt x="1029" y="1691" on="0"/>
        <pt x="909" y="1628" on="0"/>
      </contour>
      <contour>
        <pt x="602" y="-16" on="1"/>
        <pt x="513" y="-16" on="0"/>
        <pt x="370" y="36" on="0"/>
        <pt x="259" y="127" on="0"/>
        <pt x="179" y="251" on="0"/>
        <pt x="127" y="394" on="0"/>
        <pt x="101" y="549" on="0"/>
        <pt x="100" y="627" on="1"/>
        <pt x="97" y="764" on="0"/>
        <pt x="149" y="1006" on="0"/>
        <pt x="246" y="1208" on="0"/>
        <pt x="383" y="1368" on="0"/>
        <pt x="549" y="1479" on="0"/>
        <pt x="739" y="1538" on="0"/>
        <pt x="840" y="1538" on="1"/>
        <pt x="917" y="1538" on="0"/>
        <pt x="1042" y="1526" on="0"/>
        <pt x="1141" y="1509" on="0"/>
        <pt x="1216" y="1490" on="0"/>
        <pt x="1243" y="1482" on="1"/>
        <pt x="1282" y="1471" on="1"/>
        <pt x="1224" y="1174" on="1"/>
        <pt x="1093" y="1174" on="1"/>
        <pt x="1071" y="1357" on="1"/>
        <pt x="1055" y="1370" on="0"/>
        <pt x="1013" y="1393" on="0"/>
        <pt x="953" y="1410" on="0"/>
        <pt x="872" y="1420" on="0"/>
        <pt x="818" y="1420" on="1"/>
        <pt x="722" y="1420" on="0"/>
        <pt x="572" y="1348" on="0"/>
        <pt x="460" y="1227" on="0"/>
        <pt x="382" y="1069" on="0"/>
        <pt x="334" y="897" on="0"/>
        <pt x="314" y="724" on="0"/>
        <pt x="315" y="648" on="1"/>
        <pt x="316" y="582" on="0"/>
        <pt x="334" y="450" on="0"/>
        <pt x="370" y="329" on="0"/>
        <pt x="425" y="224" on="0"/>
        <pt x="501" y="146" on="0"/>
        <pt x="600" y="102" on="0"/>
        <pt x="662" y="102" on="1"/>
        <pt x="697" y="102" on="0"/>
        <pt x="774" y="109" on="0"/>
        <pt x="851" y="129" on="0"/>
        <pt x="922" y="164" on="0"/>
        <pt x="951" y="193" on="1"/>
        <pt x="1008" y="590" on="1"/>
        <pt x="775" y="607" on="1"/>
        <pt x="788" y="724" on="1"/>
        <pt x="1235" y="724" on="1"/>
        <pt x="1145" y="94" on="1"/>
        <pt x="1116" y="91" on="0"/>
        <pt x="1057" y="73" on="0"/>
        <pt x="1015" y="61" on="1"/>
        <pt x="977" y="50" on="0"/>
        <pt x="884" y="23" on="0"/>
        <pt x="778" y="0" on="0"/>
        <pt x="662" y="-16" on="0"/>
      </contour>
    </TTGlyph>
    <TTGlyph name="Gcircumflex" xMin="97" yMin="-16" xMax="1282" yMax="2001">
      <contour>
        <pt x="602" y="-16" on="1"/>
        <pt x="513" y="-16" on="0"/>
        <pt x="370" y="36" on="0"/>
        <pt x="259" y="127" on="0"/>
        <pt x="179" y="251" on="0"/>
        <pt x="127" y="394" on="0"/>
        <pt x="101" y="549" on="0"/>
        <pt x="100" y="627" on="1"/>
        <pt x="97" y="764" on="0"/>
        <pt x="149" y="1006" on="0"/>
        <pt x="246" y="1208" on="0"/>
        <pt x="383" y="1368" on="0"/>
        <pt x="549" y="1479" on="0"/>
        <pt x="739" y="1538" on="0"/>
        <pt x="840" y="1538" on="1"/>
        <pt x="917" y="1538" on="0"/>
        <pt x="1042" y="1526" on="0"/>
        <pt x="1141" y="1509" on="0"/>
        <pt x="1216" y="1490" on="0"/>
        <pt x="1243" y="1482" on="1"/>
        <pt x="1282" y="1471" on="1"/>
        <pt x="1224" y="1174" on="1"/>
        <pt x="1093" y="1174" on="1"/>
        <pt x="1071" y="1357" on="1"/>
        <pt x="1055" y="1370" on="0"/>
        <pt x="1013" y="1393" on="0"/>
        <pt x="953" y="1410" on="0"/>
        <pt x="872" y="1420" on="0"/>
        <pt x="818" y="1420" on="1"/>
        <pt x="722" y="1420" on="0"/>
        <pt x="572" y="1348" on="0"/>
        <pt x="460" y="1227" on="0"/>
        <pt x="382" y="1069" on="0"/>
        <pt x="334" y="897" on="0"/>
        <pt x="314" y="724" on="0"/>
        <pt x="315" y="648" on="1"/>
        <pt x="316" y="582" on="0"/>
        <pt x="334" y="450" on="0"/>
        <pt x="370" y="329" on="0"/>
        <pt x="425" y="224" on="0"/>
        <pt x="501" y="146" on="0"/>
        <pt x="600" y="102" on="0"/>
        <pt x="662" y="102" on="1"/>
        <pt x="697" y="102" on="0"/>
        <pt x="774" y="109" on="0"/>
        <pt x="851" y="129" on="0"/>
        <pt x="922" y="164" on="0"/>
        <pt x="951" y="193" on="1"/>
        <pt x="1008" y="590" on="1"/>
        <pt x="775" y="607" on="1"/>
        <pt x="788" y="724" on="1"/>
        <pt x="1235" y="724" on="1"/>
        <pt x="1145" y="94" on="1"/>
        <pt x="1116" y="91" on="0"/>
        <pt x="1057" y="73" on="0"/>
        <pt x="1015" y="61" on="1"/>
        <pt x="977" y="50" on="0"/>
        <pt x="884" y="23" on="0"/>
        <pt x="778" y="0" on="0"/>
        <pt x="662" y="-16" on="0"/>
      </contour>
      <contour>
        <pt x="499" y="1682" on="1"/>
        <pt x="807" y="2001" on="1"/>
        <pt x="984" y="2001" on="1"/>
        <pt x="1196" y="1682" on="1"/>
        <pt x="1125" y="1623" on="1"/>
        <pt x="886" y="1850" on="1"/>
        <pt x="562" y="1624" on="1"/>
      </contour>
    </TTGlyph>
    <TTGlyph name="Gcommaaccent" xMin="97" yMin="-560" xMax="1282" yMax="1538">
      <contour>
        <pt x="641" y="-50" on="1"/>
        <pt x="672" y="-57" on="0"/>
        <pt x="718" y="-98" on="0"/>
        <pt x="749" y="-155" on="0"/>
        <pt x="765" y="-225" on="0"/>
        <pt x="765" y="-260" on="1"/>
        <pt x="765" y="-321" on="0"/>
        <pt x="728" y="-425" on="0"/>
        <pt x="673" y="-504" on="0"/>
        <pt x="610" y="-553" on="0"/>
        <pt x="584" y="-560" on="1"/>
        <pt x="506" y="-519" on="1"/>
        <pt x="506" y="-493" on="1"/>
        <pt x="541" y="-465" on="0"/>
        <pt x="581" y="-382" on="0"/>
        <pt x="581" y="-334" on="1"/>
        <pt x="581" y="-317" on="0"/>
        <pt x="570" y="-278" on="0"/>
        <pt x="550" y="-244" on="0"/>
        <pt x="524" y="-219" on="0"/>
        <pt x="509" y="-216" on="1"/>
        <pt x="510" y="-151" on="1"/>
      </contour>
      <contour>
        <pt x="602" y="-16" on="1"/>
        <pt x="513" y="-16" on="0"/>
        <pt x="370" y="36" on="0"/>
        <pt x="259" y="127" on="0"/>
        <pt x="179" y="251" on="0"/>
        <pt x="127" y="394" on="0"/>
        <pt x="101" y="549" on="0"/>
        <pt x="100" y="627" on="1"/>
        <pt x="97" y="764" on="0"/>
        <pt x="149" y="1006" on="0"/>
        <pt x="246" y="1208" on="0"/>
        <pt x="383" y="1368" on="0"/>
        <pt x="549" y="1479" on="0"/>
        <pt x="739" y="1538" on="0"/>
        <pt x="840" y="1538" on="1"/>
        <pt x="917" y="1538" on="0"/>
        <pt x="1042" y="1526" on="0"/>
        <pt x="1141" y="1509" on="0"/>
        <pt x="1216" y="1490" on="0"/>
        <pt x="1243" y="1482" on="1"/>
        <pt x="1282" y="1471" on="1"/>
        <pt x="1224" y="1174" on="1"/>
        <pt x="1093" y="1174" on="1"/>
        <pt x="1071" y="1357" on="1"/>
        <pt x="1055" y="1370" on="0"/>
        <pt x="1013" y="1393" on="0"/>
        <pt x="953" y="1410" on="0"/>
        <pt x="872" y="1420" on="0"/>
        <pt x="818" y="1420" on="1"/>
        <pt x="722" y="1420" on="0"/>
        <pt x="572" y="1348" on="0"/>
        <pt x="460" y="1227" on="0"/>
        <pt x="382" y="1069" on="0"/>
        <pt x="334" y="897" on="0"/>
        <pt x="314" y="724" on="0"/>
        <pt x="315" y="648" on="1"/>
        <pt x="316" y="582" on="0"/>
        <pt x="334" y="450" on="0"/>
        <pt x="370" y="329" on="0"/>
        <pt x="425" y="224" on="0"/>
        <pt x="501" y="146" on="0"/>
        <pt x="600" y="102" on="0"/>
        <pt x="662" y="102" on="1"/>
        <pt x="697" y="102" on="0"/>
        <pt x="774" y="109" on="0"/>
        <pt x="851" y="129" on="0"/>
        <pt x="922" y="164" on="0"/>
        <pt x="951" y="193" on="1"/>
        <pt x="1008" y="590" on="1"/>
        <pt x="775" y="607" on="1"/>
        <pt x="788" y="724" on="1"/>
        <pt x="1235" y="724" on="1"/>
        <pt x="1145" y="94" on="1"/>
        <pt x="1116" y="91" on="0"/>
        <pt x="1057" y="73" on="0"/>
        <pt x="1015" y="61" on="1"/>
        <pt x="977" y="50" on="0"/>
        <pt x="884" y="23" on="0"/>
        <pt x="778" y="0" on="0"/>
        <pt x="662" y="-16" on="0"/>
      </contour>
    </TTGlyph>
    <TTGlyph name="Gdotaccent" xMin="97" yMin="-16" xMax="1282" yMax="1955">
      <contour>
        <pt x="841" y="1688" on="1"/>
        <pt x="817" y="1688" on="0"/>
        <pt x="774" y="1707" on="0"/>
        <pt x="743" y="1738" on="0"/>
        <pt x="724" y="1780" on="0"/>
        <pt x="724" y="1804" on="1"/>
        <pt x="724" y="1834" on="0"/>
        <pt x="750" y="1889" on="0"/>
        <pt x="792" y="1930" on="0"/>
        <pt x="844" y="1955" on="0"/>
        <pt x="870" y="1955" on="1"/>
        <pt x="898" y="1955" on="0"/>
        <pt x="944" y="1937" on="0"/>
        <pt x="977" y="1906" on="0"/>
        <pt x="995" y="1865" on="0"/>
        <pt x="995" y="1842" on="1"/>
        <pt x="995" y="1812" on="0"/>
        <pt x="970" y="1756" on="0"/>
        <pt x="928" y="1714" on="0"/>
        <pt x="872" y="1688" on="0"/>
      </contour>
      <contour>
        <pt x="602" y="-16" on="1"/>
        <pt x="513" y="-16" on="0"/>
        <pt x="370" y="36" on="0"/>
        <pt x="259" y="127" on="0"/>
        <pt x="179" y="251" on="0"/>
        <pt x="127" y="394" on="0"/>
        <pt x="101" y="549" on="0"/>
        <pt x="100" y="627" on="1"/>
        <pt x="97" y="764" on="0"/>
        <pt x="149" y="1006" on="0"/>
        <pt x="246" y="1208" on="0"/>
        <pt x="383" y="1368" on="0"/>
        <pt x="549" y="1479" on="0"/>
        <pt x="739" y="1538" on="0"/>
        <pt x="840" y="1538" on="1"/>
        <pt x="917" y="1538" on="0"/>
        <pt x="1042" y="1526" on="0"/>
        <pt x="1141" y="1509" on="0"/>
        <pt x="1216" y="1490" on="0"/>
        <pt x="1243" y="1482" on="1"/>
        <pt x="1282" y="1471" on="1"/>
        <pt x="1224" y="1174" on="1"/>
        <pt x="1093" y="1174" on="1"/>
        <pt x="1071" y="1357" on="1"/>
        <pt x="1055" y="1370" on="0"/>
        <pt x="1013" y="1393" on="0"/>
        <pt x="953" y="1410" on="0"/>
        <pt x="872" y="1420" on="0"/>
        <pt x="818" y="1420" on="1"/>
        <pt x="722" y="1420" on="0"/>
        <pt x="572" y="1348" on="0"/>
        <pt x="460" y="1227" on="0"/>
        <pt x="382" y="1069" on="0"/>
        <pt x="334" y="897" on="0"/>
        <pt x="314" y="724" on="0"/>
        <pt x="315" y="648" on="1"/>
        <pt x="316" y="582" on="0"/>
        <pt x="334" y="450" on="0"/>
        <pt x="370" y="329" on="0"/>
        <pt x="425" y="224" on="0"/>
        <pt x="501" y="146" on="0"/>
        <pt x="600" y="102" on="0"/>
        <pt x="662" y="102" on="1"/>
        <pt x="697" y="102" on="0"/>
        <pt x="774" y="109" on="0"/>
        <pt x="851" y="129" on="0"/>
        <pt x="922" y="164" on="0"/>
        <pt x="951" y="193" on="1"/>
        <pt x="1008" y="590" on="1"/>
        <pt x="775" y="607" on="1"/>
        <pt x="788" y="724" on="1"/>
        <pt x="1235" y="724" on="1"/>
        <pt x="1145" y="94" on="1"/>
        <pt x="1116" y="91" on="0"/>
        <pt x="1057" y="73" on="0"/>
        <pt x="1015" y="61" on="1"/>
        <pt x="977" y="50" on="0"/>
        <pt x="884" y="23" on="0"/>
        <pt x="778" y="0" on="0"/>
        <pt x="662" y="-16" on="0"/>
      </contour>
    </TTGlyph>
    <TTGlyph name="H" xMin="28" yMin="0" xMax="1554" yMax="1522">
      <contour>
        <pt x="38" y="87" on="1"/>
        <pt x="185" y="117" on="1"/>
        <pt x="346" y="1398" on="1"/>
        <pt x="213" y="1421" on="1"/>
        <pt x="225" y="1522" on="1"/>
        <pt x="716" y="1522" on="1"/>
        <pt x="705" y="1421" on="1"/>
        <pt x="551" y="1398" on="1"/>
        <pt x="481" y="844" on="1"/>
        <pt x="1130" y="844" on="1"/>
        <pt x="1200" y="1398" on="1"/>
        <pt x="1049" y="1421" on="1"/>
        <pt x="1059" y="1522" on="1"/>
        <pt x="1554" y="1522" on="1"/>
        <pt x="1542" y="1421" on="1"/>
        <pt x="1404" y="1398" on="1"/>
        <pt x="1243" y="118" on="1"/>
        <pt x="1395" y="87" on="1"/>
        <pt x="1386" y="0" on="1"/>
        <pt x="868" y="0" on="1"/>
        <pt x="876" y="88" on="1"/>
        <pt x="1040" y="118" on="1"/>
        <pt x="1114" y="714" on="1"/>
        <pt x="464" y="714" on="1"/>
        <pt x="389" y="117" on="1"/>
        <pt x="547" y="88" on="1"/>
        <pt x="539" y="0" on="1"/>
        <pt x="28" y="0" on="1"/>
      </contour>
    </TTGlyph>
    <TTGlyph name="Hbar" xMin="19" yMin="0" xMax="1561" yMax="1522">
      <contour>
        <pt x="28" y="87" on="1"/>
        <pt x="176" y="117" on="1"/>
        <pt x="286" y="992" on="1"/>
        <pt x="91" y="992" on="1"/>
        <pt x="105" y="1122" on="1"/>
        <pt x="302" y="1122" on="1"/>
        <pt x="337" y="1398" on="1"/>
        <pt x="203" y="1421" on="1"/>
        <pt x="215" y="1522" on="1"/>
        <pt x="706" y="1522" on="1"/>
        <pt x="695" y="1421" on="1"/>
        <pt x="541" y="1398" on="1"/>
        <pt x="506" y="1122" on="1"/>
        <pt x="1156" y="1122" on="1"/>
        <pt x="1191" y="1398" on="1"/>
        <pt x="1040" y="1421" on="1"/>
        <pt x="1050" y="1522" on="1"/>
        <pt x="1545" y="1522" on="1"/>
        <pt x="1533" y="1421" on="1"/>
        <pt x="1394" y="1398" on="1"/>
        <pt x="1359" y="1122" on="1"/>
        <pt x="1561" y="1122" on="1"/>
        <pt x="1547" y="992" on="1"/>
        <pt x="1343" y="992" on="1"/>
        <pt x="1234" y="118" on="1"/>
        <pt x="1385" y="87" on="1"/>
        <pt x="1376" y="0" on="1"/>
        <pt x="858" y="0" on="1"/>
        <pt x="867" y="88" on="1"/>
        <pt x="1031" y="118" on="1"/>
        <pt x="1094" y="622" on="1"/>
        <pt x="443" y="622" on="1"/>
        <pt x="380" y="117" on="1"/>
        <pt x="537" y="88" on="1"/>
        <pt x="529" y="0" on="1"/>
        <pt x="19" y="0" on="1"/>
      </contour>
      <contour>
        <pt x="1110" y="752" on="1"/>
        <pt x="1140" y="992" on="1"/>
        <pt x="490" y="992" on="1"/>
        <pt x="460" y="752" on="1"/>
      </contour>
    </TTGlyph>
    <TTGlyph name="Hcircumflex" xMin="28" yMin="0" xMax="1554" yMax="2001">
      <contour>
        <pt x="38" y="87" on="1"/>
        <pt x="185" y="117" on="1"/>
        <pt x="346" y="1398" on="1"/>
        <pt x="213" y="1421" on="1"/>
        <pt x="225" y="1522" on="1"/>
        <pt x="716" y="1522" on="1"/>
        <pt x="705" y="1421" on="1"/>
        <pt x="551" y="1398" on="1"/>
        <pt x="481" y="844" on="1"/>
        <pt x="1130" y="844" on="1"/>
        <pt x="1200" y="1398" on="1"/>
        <pt x="1049" y="1421" on="1"/>
        <pt x="1059" y="1522" on="1"/>
        <pt x="1554" y="1522" on="1"/>
        <pt x="1542" y="1421" on="1"/>
        <pt x="1404" y="1398" on="1"/>
        <pt x="1243" y="118" on="1"/>
        <pt x="1395" y="87" on="1"/>
        <pt x="1386" y="0" on="1"/>
        <pt x="868" y="0" on="1"/>
        <pt x="876" y="88" on="1"/>
        <pt x="1040" y="118" on="1"/>
        <pt x="1114" y="714" on="1"/>
        <pt x="464" y="714" on="1"/>
        <pt x="389" y="117" on="1"/>
        <pt x="547" y="88" on="1"/>
        <pt x="539" y="0" on="1"/>
        <pt x="28" y="0" on="1"/>
      </contour>
      <contour>
        <pt x="553" y="1682" on="1"/>
        <pt x="861" y="2001" on="1"/>
        <pt x="1038" y="2001" on="1"/>
        <pt x="1250" y="1682" on="1"/>
        <pt x="1179" y="1623" on="1"/>
        <pt x="940" y="1850" on="1"/>
        <pt x="616" y="1624" on="1"/>
      </contour>
    </TTGlyph>
    <TTGlyph name="I" xMin="28" yMin="0" xMax="715" yMax="1522">
      <contour>
        <pt x="37" y="87" on="1"/>
        <pt x="185" y="117" on="1"/>
        <pt x="346" y="1398" on="1"/>
        <pt x="213" y="1421" on="1"/>
        <pt x="225" y="1522" on="1"/>
        <pt x="715" y="1522" on="1"/>
        <pt x="704" y="1421" on="1"/>
        <pt x="551" y="1398" on="1"/>
        <pt x="389" y="117" on="1"/>
        <pt x="547" y="88" on="1"/>
        <pt x="539" y="0" on="1"/>
        <pt x="28" y="0" on="1"/>
      </contour>
    </TTGlyph>
    <TTGlyph name="IJ" xMin="28" yMin="-345" xMax="1437" yMax="1522">
      <contour>
        <pt x="37" y="87" on="1"/>
        <pt x="185" y="117" on="1"/>
        <pt x="346" y="1398" on="1"/>
        <pt x="213" y="1421" on="1"/>
        <pt x="225" y="1522" on="1"/>
        <pt x="715" y="1522" on="1"/>
        <pt x="704" y="1421" on="1"/>
        <pt x="551" y="1398" on="1"/>
        <pt x="389" y="117" on="1"/>
        <pt x="547" y="88" on="1"/>
        <pt x="539" y="0" on="1"/>
        <pt x="28" y="0" on="1"/>
      </contour>
      <contour>
        <pt x="912" y="86" on="1"/>
        <pt x="944" y="232" on="0"/>
        <pt x="988" y="556" on="0"/>
        <pt x="1023" y="894" on="0"/>
        <pt x="1055" y="1235" on="0"/>
        <pt x="1074" y="1398" on="1"/>
        <pt x="933" y="1421" on="1"/>
        <pt x="947" y="1522" on="1"/>
        <pt x="1437" y="1522" on="1"/>
        <pt x="1426" y="1421" on="1"/>
        <pt x="1271" y="1399" on="1"/>
        <pt x="1253" y="1233" on="0"/>
        <pt x="1219" y="920" on="0"/>
        <pt x="1189" y="642" on="0"/>
        <pt x="1161" y="404" on="0"/>
        <pt x="1138" y="221" on="0"/>
        <pt x="1118" y="99" on="0"/>
        <pt x="1110" y="75" on="1"/>
        <pt x="1078" y="-27" on="0"/>
        <pt x="965" y="-174" on="0"/>
        <pt x="825" y="-274" on="0"/>
        <pt x="668" y="-332" on="0"/>
        <pt x="592" y="-345" on="1"/>
        <pt x="556" y="-256" on="1"/>
        <pt x="623" y="-237" on="0"/>
        <pt x="743" y="-162" on="0"/>
        <pt x="838" y="-67" on="0"/>
        <pt x="901" y="37" on="0"/>
      </contour>
    </TTGlyph>
    <TTGlyph name="Iacute" xMin="28" yMin="0" xMax="819" yMax="2001">
      <contour>
        <pt x="37" y="87" on="1"/>
        <pt x="185" y="117" on="1"/>
        <pt x="346" y="1398" on="1"/>
        <pt x="213" y="1421" on="1"/>
        <pt x="225" y="1522" on="1"/>
        <pt x="715" y="1522" on="1"/>
        <pt x="704" y="1421" on="1"/>
        <pt x="551" y="1398" on="1"/>
        <pt x="389" y="117" on="1"/>
        <pt x="547" y="88" on="1"/>
        <pt x="539" y="0" on="1"/>
        <pt x="28" y="0" on="1"/>
      </contour>
      <contour>
        <pt x="417" y="1659" on="1"/>
        <pt x="693" y="2001" on="1"/>
        <pt x="819" y="1880" on="1"/>
        <pt x="799" y="1838" on="0"/>
        <pt x="716" y="1754" on="0"/>
        <pt x="618" y="1681" on="0"/>
        <pt x="518" y="1624" on="0"/>
        <pt x="482" y="1611" on="1"/>
      </contour>
    </TTGlyph>
    <TTGlyph name="Ibreve" xMin="28" yMin="0" xMax="842" yMax="1980">
      <contour>
        <pt x="37" y="87" on="1"/>
        <pt x="185" y="117" on="1"/>
        <pt x="346" y="1398" on="1"/>
        <pt x="213" y="1421" on="1"/>
        <pt x="225" y="1522" on="1"/>
        <pt x="715" y="1522" on="1"/>
        <pt x="704" y="1421" on="1"/>
        <pt x="551" y="1398" on="1"/>
        <pt x="389" y="117" on="1"/>
        <pt x="547" y="88" on="1"/>
        <pt x="539" y="0" on="1"/>
        <pt x="28" y="0" on="1"/>
      </contour>
      <contour>
        <pt x="512" y="1628" on="1"/>
        <pt x="434" y="1628" on="0"/>
        <pt x="324" y="1681" on="0"/>
        <pt x="253" y="1768" on="0"/>
        <pt x="221" y="1878" on="0"/>
        <pt x="221" y="1934" on="1"/>
        <pt x="221" y="1959" on="0"/>
        <pt x="224" y="1980" on="1"/>
        <pt x="335" y="1980" on="1"/>
        <pt x="337" y="1956" on="0"/>
        <pt x="349" y="1887" on="0"/>
        <pt x="386" y="1823" on="0"/>
        <pt x="456" y="1778" on="0"/>
        <pt x="517" y="1778" on="1"/>
        <pt x="572" y="1778" on="0"/>
        <pt x="648" y="1819" on="0"/>
        <pt x="699" y="1880" on="0"/>
        <pt x="729" y="1950" on="0"/>
        <pt x="737" y="1980" on="1"/>
        <pt x="842" y="1980" on="1"/>
        <pt x="842" y="1918" on="0"/>
        <pt x="789" y="1792" on="0"/>
        <pt x="698" y="1691" on="0"/>
        <pt x="578" y="1628" on="0"/>
      </contour>
    </TTGlyph>
    <TTGlyph name="Icircumflex" xMin="28" yMin="0" xMax="865" yMax="2001">
      <contour>
        <pt x="37" y="87" on="1"/>
        <pt x="185" y="117" on="1"/>
        <pt x="346" y="1398" on="1"/>
        <pt x="213" y="1421" on="1"/>
        <pt x="225" y="1522" on="1"/>
        <pt x="715" y="1522" on="1"/>
        <pt x="704" y="1421" on="1"/>
        <pt x="551" y="1398" on="1"/>
        <pt x="389" y="117" on="1"/>
        <pt x="547" y="88" on="1"/>
        <pt x="539" y="0" on="1"/>
        <pt x="28" y="0" on="1"/>
      </contour>
      <contour>
        <pt x="168" y="1682" on="1"/>
        <pt x="476" y="2001" on="1"/>
        <pt x="653" y="2001" on="1"/>
        <pt x="865" y="1682" on="1"/>
        <pt x="794" y="1623" on="1"/>
        <pt x="555" y="1850" on="1"/>
        <pt x="231" y="1624" on="1"/>
      </contour>
    </TTGlyph>
    <TTGlyph name="Idieresis" xMin="28" yMin="0" xMax="880" yMax="1990">
      <contour>
        <pt x="37" y="87" on="1"/>
        <pt x="185" y="117" on="1"/>
        <pt x="346" y="1398" on="1"/>
        <pt x="213" y="1421" on="1"/>
        <pt x="225" y="1522" on="1"/>
        <pt x="715" y="1522" on="1"/>
        <pt x="704" y="1421" on="1"/>
        <pt x="551" y="1398" on="1"/>
        <pt x="389" y="117" on="1"/>
        <pt x="547" y="88" on="1"/>
        <pt x="539" y="0" on="1"/>
        <pt x="28" y="0" on="1"/>
      </contour>
      <contour>
        <pt x="727" y="1724" on="1"/>
        <pt x="703" y="1724" on="0"/>
        <pt x="661" y="1743" on="0"/>
        <pt x="630" y="1776" on="0"/>
        <pt x="612" y="1819" on="0"/>
        <pt x="612" y="1844" on="1"/>
        <pt x="612" y="1874" on="0"/>
        <pt x="639" y="1927" on="0"/>
        <pt x="682" y="1967" on="0"/>
        <pt x="734" y="1990" on="0"/>
        <pt x="758" y="1990" on="1"/>
        <pt x="815" y="1990" on="0"/>
        <pt x="880" y="1924" on="0"/>
        <pt x="880" y="1878" on="1"/>
        <pt x="880" y="1848" on="0"/>
        <pt x="856" y="1792" on="0"/>
        <pt x="814" y="1749" on="0"/>
        <pt x="758" y="1724" on="0"/>
      </contour>
      <contour>
        <pt x="307" y="1724" on="1"/>
        <pt x="284" y="1724" on="0"/>
        <pt x="242" y="1743" on="0"/>
        <pt x="211" y="1774" on="0"/>
        <pt x="193" y="1816" on="0"/>
        <pt x="193" y="1840" on="1"/>
        <pt x="193" y="1870" on="0"/>
        <pt x="219" y="1924" on="0"/>
        <pt x="260" y="1966" on="0"/>
        <pt x="311" y="1990" on="0"/>
        <pt x="337" y="1990" on="1"/>
        <pt x="365" y="1990" on="0"/>
        <pt x="411" y="1972" on="0"/>
        <pt x="443" y="1941" on="0"/>
        <pt x="460" y="1900" on="0"/>
        <pt x="460" y="1877" on="1"/>
        <pt x="460" y="1847" on="0"/>
        <pt x="435" y="1791" on="0"/>
        <pt x="393" y="1749" on="0"/>
        <pt x="337" y="1724" on="0"/>
      </contour>
    </TTGlyph>
    <TTGlyph name="Idotaccent" xMin="28" yMin="0" xMax="715" yMax="1955">
      <contour>
        <pt x="37" y="87" on="1"/>
        <pt x="185" y="117" on="1"/>
        <pt x="346" y="1398" on="1"/>
        <pt x="213" y="1421" on="1"/>
        <pt x="225" y="1522" on="1"/>
        <pt x="715" y="1522" on="1"/>
        <pt x="704" y="1421" on="1"/>
        <pt x="551" y="1398" on="1"/>
        <pt x="389" y="117" on="1"/>
        <pt x="547" y="88" on="1"/>
        <pt x="539" y="0" on="1"/>
        <pt x="28" y="0" on="1"/>
      </contour>
      <contour>
        <pt x="510" y="1688" on="1"/>
        <pt x="486" y="1688" on="0"/>
        <pt x="443" y="1707" on="0"/>
        <pt x="412" y="1738" on="0"/>
        <pt x="393" y="1780" on="0"/>
        <pt x="393" y="1804" on="1"/>
        <pt x="393" y="1834" on="0"/>
        <pt x="419" y="1889" on="0"/>
        <pt x="461" y="1930" on="0"/>
        <pt x="513" y="1955" on="0"/>
        <pt x="539" y="1955" on="1"/>
        <pt x="567" y="1955" on="0"/>
        <pt x="613" y="1937" on="0"/>
        <pt x="646" y="1906" on="0"/>
        <pt x="664" y="1865" on="0"/>
        <pt x="664" y="1842" on="1"/>
        <pt x="664" y="1812" on="0"/>
        <pt x="639" y="1756" on="0"/>
        <pt x="597" y="1714" on="0"/>
        <pt x="541" y="1688" on="0"/>
      </contour>
    </TTGlyph>
    <TTGlyph name="Igrave" xMin="28" yMin="0" xMax="715" yMax="2001">
      <contour>
        <pt x="37" y="87" on="1"/>
        <pt x="185" y="117" on="1"/>
        <pt x="346" y="1398" on="1"/>
        <pt x="213" y="1421" on="1"/>
        <pt x="225" y="1522" on="1"/>
        <pt x="715" y="1522" on="1"/>
        <pt x="704" y="1421" on="1"/>
        <pt x="551" y="1398" on="1"/>
        <pt x="389" y="117" on="1"/>
        <pt x="547" y="88" on="1"/>
        <pt x="539" y="0" on="1"/>
        <pt x="28" y="0" on="1"/>
      </contour>
      <contour>
        <pt x="491" y="1611" on="1"/>
        <pt x="455" y="1624" on="0"/>
        <pt x="356" y="1682" on="0"/>
        <pt x="258" y="1756" on="0"/>
        <pt x="178" y="1840" on="0"/>
        <pt x="161" y="1880" on="1"/>
        <pt x="296" y="2001" on="1"/>
        <pt x="559" y="1659" on="1"/>
        <pt x="491" y="1611" on="1"/>
      </contour>
    </TTGlyph>
    <TTGlyph name="Imacron" xMin="28" yMin="0" xMax="774" yMax="1880">
      <contour>
        <pt x="37" y="87" on="1"/>
        <pt x="185" y="117" on="1"/>
        <pt x="346" y="1398" on="1"/>
        <pt x="213" y="1421" on="1"/>
        <pt x="225" y="1522" on="1"/>
        <pt x="715" y="1522" on="1"/>
        <pt x="704" y="1421" on="1"/>
        <pt x="551" y="1398" on="1"/>
        <pt x="389" y="117" on="1"/>
        <pt x="547" y="88" on="1"/>
        <pt x="539" y="0" on="1"/>
        <pt x="28" y="0" on="1"/>
      </contour>
      <contour>
        <pt x="262" y="1880" on="1"/>
        <pt x="774" y="1880" on="1"/>
        <pt x="754" y="1728" on="1"/>
        <pt x="243" y="1728" on="1"/>
      </contour>
    </TTGlyph>
    <TTGlyph name="Iogonek" xMin="-12" yMin="-419" xMax="715" yMax="1522">
      <contour>
        <pt x="37" y="87" on="1"/>
        <pt x="185" y="117" on="1"/>
        <pt x="346" y="1398" on="1"/>
        <pt x="213" y="1421" on="1"/>
        <pt x="225" y="1522" on="1"/>
        <pt x="715" y="1522" on="1"/>
        <pt x="704" y="1421" on="1"/>
        <pt x="551" y="1398" on="1"/>
        <pt x="389" y="117" on="1"/>
        <pt x="547" y="88" on="1"/>
        <pt x="539" y="0" on="1"/>
        <pt x="347" y="0" on="1"/>
        <pt x="313" y="-27" on="0"/>
        <pt x="255" y="-80" on="0"/>
        <pt x="212" y="-130" on="0"/>
        <pt x="187" y="-178" on="0"/>
        <pt x="187" y="-202" on="1"/>
        <pt x="185" y="-226" on="0"/>
        <pt x="195" y="-259" on="0"/>
        <pt x="211" y="-278" on="0"/>
        <pt x="231" y="-287" on="0"/>
        <pt x="240" y="-287" on="1"/>
        <pt x="268" y="-287" on="0"/>
        <pt x="329" y="-260" on="0"/>
        <pt x="371" y="-227" on="1"/>
        <pt x="397" y="-322" on="1"/>
        <pt x="377" y="-340" on="0"/>
        <pt x="326" y="-375" on="0"/>
        <pt x="263" y="-402" on="0"/>
        <pt x="188" y="-419" on="0"/>
        <pt x="144" y="-419" on="1"/>
        <pt x="103" y="-419" on="0"/>
        <pt x="44" y="-394" on="0"/>
        <pt x="6" y="-355" on="0"/>
        <pt x="-12" y="-305" on="0"/>
        <pt x="-11" y="-281" on="1"/>
        <pt x="-9" y="-249" on="0"/>
        <pt x="11" y="-181" on="0"/>
        <pt x="30" y="-157" on="1"/>
        <pt x="54" y="-125" on="0"/>
        <pt x="103" y="-79" on="0"/>
        <pt x="153" y="-43" on="0"/>
        <pt x="203" y="-14" on="0"/>
        <pt x="228" y="0" on="1"/>
        <pt x="28" y="0" on="1"/>
      </contour>
    </TTGlyph>
    <TTGlyph name="Itilde" xMin="28" yMin="0" xMax="883" yMax="1971">
      <contour>
        <pt x="37" y="87" on="1"/>
        <pt x="185" y="117" on="1"/>
        <pt x="346" y="1398" on="1"/>
        <pt x="213" y="1421" on="1"/>
        <pt x="225" y="1522" on="1"/>
        <pt x="715" y="1522" on="1"/>
        <pt x="704" y="1421" on="1"/>
        <pt x="551" y="1398" on="1"/>
        <pt x="389" y="117" on="1"/>
        <pt x="547" y="88" on="1"/>
        <pt x="539" y="0" on="1"/>
        <pt x="28" y="0" on="1"/>
      </contour>
      <contour>
        <pt x="158" y="1801" on="1"/>
        <pt x="170" y="1833" on="0"/>
        <pt x="212" y="1894" on="0"/>
        <pt x="269" y="1942" on="0"/>
        <pt x="340" y="1971" on="0"/>
        <pt x="383" y="1971" on="1"/>
        <pt x="433" y="1971" on="0"/>
        <pt x="509" y="1927" on="0"/>
        <pt x="576" y="1874" on="0"/>
        <pt x="640" y="1830" on="0"/>
        <pt x="678" y="1830" on="1"/>
        <pt x="708" y="1830" on="0"/>
        <pt x="753" y="1847" on="0"/>
        <pt x="787" y="1872" on="0"/>
        <pt x="813" y="1903" on="0"/>
        <pt x="825" y="1917" on="1"/>
        <pt x="883" y="1835" on="1"/>
        <pt x="873" y="1808" on="0"/>
        <pt x="835" y="1748" on="0"/>
        <pt x="780" y="1698" on="0"/>
        <pt x="706" y="1665" on="0"/>
        <pt x="659" y="1665" on="1"/>
        <pt x="605" y="1665" on="0"/>
        <pt x="530" y="1708" on="0"/>
        <pt x="467" y="1761" on="0"/>
        <pt x="405" y="1805" on="0"/>
        <pt x="363" y="1806" on="1"/>
        <pt x="314" y="1807" on="0"/>
        <pt x="245" y="1757" on="0"/>
        <pt x="216" y="1719" on="1"/>
      </contour>
    </TTGlyph>
    <TTGlyph name="J" xMin="-152" yMin="-345" xMax="729" yMax="1522">
      <contour>
        <pt x="204" y="86" on="1"/>
        <pt x="236" y="232" on="0"/>
        <pt x="280" y="556" on="0"/>
        <pt x="315" y="894" on="0"/>
        <pt x="347" y="1235" on="0"/>
        <pt x="366" y="1398" on="1"/>
        <pt x="225" y="1421" on="1"/>
        <pt x="239" y="1522" on="1"/>
        <pt x="729" y="1522" on="1"/>
        <pt x="718" y="1421" on="1"/>
        <pt x="563" y="1399" on="1"/>
        <pt x="545" y="1233" on="0"/>
        <pt x="511" y="920" on="0"/>
        <pt x="481" y="642" on="0"/>
        <pt x="453" y="404" on="0"/>
        <pt x="430" y="221" on="0"/>
        <pt x="410" y="99" on="0"/>
        <pt x="402" y="75" on="1"/>
        <pt x="370" y="-27" on="0"/>
        <pt x="257" y="-174" on="0"/>
        <pt x="117" y="-274" on="0"/>
        <pt x="-40" y="-332" on="0"/>
        <pt x="-116" y="-345" on="1"/>
        <pt x="-152" y="-256" on="1"/>
        <pt x="-85" y="-237" on="0"/>
        <pt x="35" y="-162" on="0"/>
        <pt x="130" y="-67" on="0"/>
        <pt x="193" y="37" on="0"/>
      </contour>
    </TTGlyph>
    <TTGlyph name="Jcircumflex" xMin="-152" yMin="-345" xMax="865" yMax="2001">
      <contour>
        <pt x="204" y="86" on="1"/>
        <pt x="236" y="232" on="0"/>
        <pt x="280" y="556" on="0"/>
        <pt x="315" y="894" on="0"/>
        <pt x="347" y="1235" on="0"/>
        <pt x="366" y="1398" on="1"/>
        <pt x="225" y="1421" on="1"/>
        <pt x="239" y="1522" on="1"/>
        <pt x="729" y="1522" on="1"/>
        <pt x="718" y="1421" on="1"/>
        <pt x="563" y="1399" on="1"/>
        <pt x="545" y="1233" on="0"/>
        <pt x="511" y="920" on="0"/>
        <pt x="481" y="642" on="0"/>
        <pt x="453" y="404" on="0"/>
        <pt x="430" y="221" on="0"/>
        <pt x="410" y="99" on="0"/>
        <pt x="402" y="75" on="1"/>
        <pt x="370" y="-27" on="0"/>
        <pt x="257" y="-174" on="0"/>
        <pt x="117" y="-274" on="0"/>
        <pt x="-40" y="-332" on="0"/>
        <pt x="-116" y="-345" on="1"/>
        <pt x="-152" y="-256" on="1"/>
        <pt x="-85" y="-237" on="0"/>
        <pt x="35" y="-162" on="0"/>
        <pt x="130" y="-67" on="0"/>
        <pt x="193" y="37" on="0"/>
      </contour>
      <contour>
        <pt x="168" y="1682" on="1"/>
        <pt x="476" y="2001" on="1"/>
        <pt x="653" y="2001" on="1"/>
        <pt x="865" y="1682" on="1"/>
        <pt x="794" y="1623" on="1"/>
        <pt x="555" y="1850" on="1"/>
        <pt x="231" y="1624" on="1"/>
      </contour>
    </TTGlyph>
    <TTGlyph name="K" xMin="28" yMin="0" xMax="1386" yMax="1522">
      <contour>
        <pt x="37" y="87" on="1"/>
        <pt x="185" y="117" on="1"/>
        <pt x="346" y="1398" on="1"/>
        <pt x="213" y="1421" on="1"/>
        <pt x="225" y="1522" on="1"/>
        <pt x="715" y="1522" on="1"/>
        <pt x="704" y="1421" on="1"/>
        <pt x="550" y="1398" on="1"/>
        <pt x="461" y="688" on="1"/>
        <pt x="1072" y="1398" on="1"/>
        <pt x="954" y="1421" on="1"/>
        <pt x="966" y="1522" on="1"/>
        <pt x="1386" y="1522" on="1"/>
        <pt x="1372" y="1421" on="1"/>
        <pt x="1268" y="1398" on="1"/>
        <pt x="743" y="829" on="1"/>
        <pt x="768" y="786" on="0"/>
        <pt x="833" y="674" on="0"/>
        <pt x="899" y="562" on="0"/>
        <pt x="960" y="459" on="0"/>
        <pt x="981" y="425" on="1"/>
        <pt x="1026" y="351" on="0"/>
        <pt x="1089" y="250" on="0"/>
        <pt x="1135" y="184" on="0"/>
        <pt x="1169" y="147" on="0"/>
        <pt x="1185" y="138" on="1"/>
        <pt x="1315" y="94" on="1"/>
        <pt x="1301" y="0" on="1"/>
        <pt x="1023" y="0" on="1"/>
        <pt x="1003" y="3" on="0"/>
        <pt x="948" y="78" on="0"/>
        <pt x="888" y="186" on="0"/>
        <pt x="828" y="305" on="0"/>
        <pt x="804" y="352" on="1"/>
        <pt x="785" y="388" on="0"/>
        <pt x="738" y="477" on="0"/>
        <pt x="688" y="570" on="0"/>
        <pt x="639" y="659" on="0"/>
        <pt x="619" y="695" on="1"/>
        <pt x="437" y="497" on="1"/>
        <pt x="389" y="117" on="1"/>
        <pt x="547" y="88" on="1"/>
        <pt x="539" y="0" on="1"/>
        <pt x="28" y="0" on="1"/>
      </contour>
    </TTGlyph>
    <TTGlyph name="Kcommaaccent" xMin="20" yMin="-558" xMax="1378" yMax="1522">
      <contour>
        <pt x="661" y="-48" on="1"/>
        <pt x="692" y="-55" on="0"/>
        <pt x="738" y="-96" on="0"/>
        <pt x="769" y="-153" on="0"/>
        <pt x="785" y="-223" on="0"/>
        <pt x="785" y="-258" on="1"/>
        <pt x="785" y="-319" on="0"/>
        <pt x="748" y="-423" on="0"/>
        <pt x="693" y="-502" on="0"/>
        <pt x="630" y="-551" on="0"/>
        <pt x="604" y="-558" on="1"/>
        <pt x="526" y="-517" on="1"/>
        <pt x="526" y="-491" on="1"/>
        <pt x="561" y="-463" on="0"/>
        <pt x="601" y="-380" on="0"/>
        <pt x="601" y="-332" on="1"/>
        <pt x="601" y="-315" on="0"/>
        <pt x="590" y="-276" on="0"/>
        <pt x="570" y="-242" on="0"/>
        <pt x="544" y="-217" on="0"/>
        <pt x="529" y="-214" on="1"/>
        <pt x="530" y="-149" on="1"/>
      </contour>
      <contour>
        <pt x="29" y="87" on="1"/>
        <pt x="177" y="117" on="1"/>
        <pt x="338" y="1398" on="1"/>
        <pt x="205" y="1421" on="1"/>
        <pt x="217" y="1522" on="1"/>
        <pt x="707" y="1522" on="1"/>
        <pt x="696" y="1421" on="1"/>
        <pt x="542" y="1398" on="1"/>
        <pt x="453" y="688" on="1"/>
        <pt x="1064" y="1398" on="1"/>
        <pt x="946" y="1421" on="1"/>
        <pt x="958" y="1522" on="1"/>
        <pt x="1378" y="1522" on="1"/>
        <pt x="1364" y="1421" on="1"/>
        <pt x="1260" y="1398" on="1"/>
        <pt x="735" y="829" on="1"/>
        <pt x="760" y="786" on="0"/>
        <pt x="825" y="674" on="0"/>
        <pt x="891" y="562" on="0"/>
        <pt x="952" y="459" on="0"/>
        <pt x="973" y="425" on="1"/>
        <pt x="1018" y="351" on="0"/>
        <pt x="1081" y="250" on="0"/>
        <pt x="1127" y="184" on="0"/>
        <pt x="1161" y="147" on="0"/>
        <pt x="1177" y="138" on="1"/>
        <pt x="1307" y="94" on="1"/>
        <pt x="1293" y="0" on="1"/>
        <pt x="1015" y="0" on="1"/>
        <pt x="995" y="3" on="0"/>
        <pt x="940" y="78" on="0"/>
        <pt x="880" y="186" on="0"/>
        <pt x="820" y="305" on="0"/>
        <pt x="796" y="352" on="1"/>
        <pt x="777" y="388" on="0"/>
        <pt x="730" y="477" on="0"/>
        <pt x="680" y="570" on="0"/>
        <pt x="631" y="659" on="0"/>
        <pt x="611" y="695" on="1"/>
        <pt x="429" y="497" on="1"/>
        <pt x="381" y="117" on="1"/>
        <pt x="539" y="88" on="1"/>
        <pt x="531" y="0" on="1"/>
        <pt x="20" y="0" on="1"/>
      </contour>
    </TTGlyph>
    <TTGlyph name="L" xMin="29" yMin="0" xMax="1111" yMax="1522">
      <contour>
        <pt x="37" y="88" on="1"/>
        <pt x="185" y="117" on="1"/>
        <pt x="346" y="1398" on="1"/>
        <pt x="213" y="1421" on="1"/>
        <pt x="225" y="1522" on="1"/>
        <pt x="749" y="1522" on="1"/>
        <pt x="738" y="1421" on="1"/>
        <pt x="550" y="1398" on="1"/>
        <pt x="389" y="117" on="1"/>
        <pt x="853" y="128" on="1"/>
        <pt x="992" y="460" on="1"/>
        <pt x="1111" y="437" on="1"/>
        <pt x="1015" y="0" on="1"/>
        <pt x="29" y="0" on="1"/>
      </contour>
    </TTGlyph>
    <TTGlyph name="Lacute" xMin="29" yMin="0" xMax="1111" yMax="2003">
      <contour>
        <pt x="411" y="1661" on="1"/>
        <pt x="687" y="2003" on="1"/>
        <pt x="813" y="1882" on="1"/>
        <pt x="793" y="1840" on="0"/>
        <pt x="710" y="1756" on="0"/>
        <pt x="612" y="1683" on="0"/>
        <pt x="512" y="1626" on="0"/>
        <pt x="476" y="1613" on="1"/>
      </contour>
      <contour>
        <pt x="37" y="88" on="1"/>
        <pt x="185" y="117" on="1"/>
        <pt x="346" y="1398" on="1"/>
        <pt x="213" y="1421" on="1"/>
        <pt x="225" y="1522" on="1"/>
        <pt x="749" y="1522" on="1"/>
        <pt x="738" y="1421" on="1"/>
        <pt x="550" y="1398" on="1"/>
        <pt x="389" y="117" on="1"/>
        <pt x="853" y="128" on="1"/>
        <pt x="992" y="460" on="1"/>
        <pt x="1111" y="437" on="1"/>
        <pt x="1015" y="0" on="1"/>
        <pt x="29" y="0" on="1"/>
      </contour>
    </TTGlyph>
    <TTGlyph name="Lcaron" xMin="29" yMin="0" xMax="1141" yMax="1651">
      <contour>
        <pt x="37" y="88" on="1"/>
        <pt x="185" y="117" on="1"/>
        <pt x="346" y="1398" on="1"/>
        <pt x="213" y="1421" on="1"/>
        <pt x="225" y="1522" on="1"/>
        <pt x="749" y="1522" on="1"/>
        <pt x="738" y="1421" on="1"/>
        <pt x="550" y="1398" on="1"/>
        <pt x="389" y="117" on="1"/>
        <pt x="853" y="128" on="1"/>
        <pt x="992" y="460" on="1"/>
        <pt x="1111" y="437" on="1"/>
        <pt x="1015" y="0" on="1"/>
        <pt x="29" y="0" on="1"/>
      </contour>
      <contour>
        <pt x="915" y="1046" on="1"/>
        <pt x="909" y="1071" on="1"/>
        <pt x="925" y="1133" on="0"/>
        <pt x="951" y="1281" on="0"/>
        <pt x="960" y="1362" on="1"/>
        <pt x="963" y="1390" on="0"/>
        <pt x="960" y="1452" on="0"/>
        <pt x="950" y="1507" on="0"/>
        <pt x="936" y="1552" on="0"/>
        <pt x="929" y="1563" on="1"/>
        <pt x="948" y="1605" on="1"/>
        <pt x="1107" y="1651" on="1"/>
        <pt x="1120" y="1637" on="0"/>
        <pt x="1135" y="1589" on="0"/>
        <pt x="1141" y="1529" on="0"/>
        <pt x="1139" y="1460" on="0"/>
        <pt x="1136" y="1424" on="1"/>
        <pt x="1129" y="1358" on="0"/>
        <pt x="1097" y="1236" on="0"/>
        <pt x="1053" y="1131" on="0"/>
        <pt x="1003" y="1046" on="0"/>
        <pt x="978" y="1016" on="1"/>
      </contour>
    </TTGlyph>
    <TTGlyph name="Lcommaaccent" xMin="29" yMin="-558" xMax="1111" yMax="1522">
      <contour>
        <pt x="564" y="-48" on="1"/>
        <pt x="595" y="-55" on="0"/>
        <pt x="641" y="-96" on="0"/>
        <pt x="672" y="-153" on="0"/>
        <pt x="688" y="-223" on="0"/>
        <pt x="688" y="-258" on="1"/>
        <pt x="688" y="-319" on="0"/>
        <pt x="651" y="-423" on="0"/>
        <pt x="596" y="-502" on="0"/>
        <pt x="533" y="-551" on="0"/>
        <pt x="507" y="-558" on="1"/>
        <pt x="429" y="-517" on="1"/>
        <pt x="429" y="-491" on="1"/>
        <pt x="464" y="-463" on="0"/>
        <pt x="504" y="-380" on="0"/>
        <pt x="504" y="-332" on="1"/>
        <pt x="504" y="-315" on="0"/>
        <pt x="493" y="-276" on="0"/>
        <pt x="473" y="-242" on="0"/>
        <pt x="447" y="-217" on="0"/>
        <pt x="432" y="-214" on="1"/>
        <pt x="433" y="-149" on="1"/>
      </contour>
      <contour>
        <pt x="37" y="88" on="1"/>
        <pt x="185" y="117" on="1"/>
        <pt x="346" y="1398" on="1"/>
        <pt x="213" y="1421" on="1"/>
        <pt x="225" y="1522" on="1"/>
        <pt x="749" y="1522" on="1"/>
        <pt x="738" y="1421" on="1"/>
        <pt x="550" y="1398" on="1"/>
        <pt x="389" y="117" on="1"/>
        <pt x="853" y="128" on="1"/>
        <pt x="992" y="460" on="1"/>
        <pt x="1111" y="437" on="1"/>
        <pt x="1015" y="0" on="1"/>
        <pt x="29" y="0" on="1"/>
      </contour>
    </TTGlyph>
    <TTGlyph name="Ldot" xMin="29" yMin="0" xMax="1176" yMax="1522">
      <contour>
        <pt x="37" y="88" on="1"/>
        <pt x="185" y="117" on="1"/>
        <pt x="346" y="1398" on="1"/>
        <pt x="213" y="1421" on="1"/>
        <pt x="225" y="1522" on="1"/>
        <pt x="749" y="1522" on="1"/>
        <pt x="738" y="1421" on="1"/>
        <pt x="550" y="1398" on="1"/>
        <pt x="389" y="117" on="1"/>
        <pt x="853" y="128" on="1"/>
        <pt x="992" y="460" on="1"/>
        <pt x="1111" y="437" on="1"/>
        <pt x="1015" y="0" on="1"/>
        <pt x="29" y="0" on="1"/>
      </contour>
      <contour>
        <pt x="893" y="839" on="1"/>
        <pt x="897" y="870" on="0"/>
        <pt x="927" y="925" on="0"/>
        <pt x="970" y="965" on="0"/>
        <pt x="1024" y="988" on="0"/>
        <pt x="1052" y="988" on="1"/>
        <pt x="1088" y="988" on="0"/>
        <pt x="1137" y="968" on="0"/>
        <pt x="1166" y="933" on="0"/>
        <pt x="1176" y="887" on="0"/>
        <pt x="1173" y="861" on="1"/>
        <pt x="1169" y="827" on="0"/>
        <pt x="1138" y="772" on="0"/>
        <pt x="1091" y="733" on="0"/>
        <pt x="1034" y="712" on="0"/>
        <pt x="1004" y="712" on="1"/>
        <pt x="977" y="712" on="0"/>
        <pt x="933" y="729" on="0"/>
        <pt x="903" y="762" on="0"/>
        <pt x="889" y="809" on="0"/>
      </contour>
    </TTGlyph>
    <TTGlyph name="Lslash" xMin="29" yMin="2" xMax="1111" yMax="1524">
      <contour>
        <pt x="37" y="90" on="1"/>
        <pt x="185" y="119" on="1"/>
        <pt x="239" y="550" on="1"/>
        <pt x="80" y="483" on="1"/>
        <pt x="44" y="601" on="1"/>
        <pt x="257" y="692" on="1"/>
        <pt x="346" y="1400" on="1"/>
        <pt x="213" y="1423" on="1"/>
        <pt x="225" y="1524" on="1"/>
        <pt x="749" y="1524" on="1"/>
        <pt x="738" y="1423" on="1"/>
        <pt x="550" y="1400" on="1"/>
        <pt x="472" y="785" on="1"/>
        <pt x="871" y="957" on="1"/>
        <pt x="906" y="830" on="1"/>
        <pt x="454" y="640" on="1"/>
        <pt x="389" y="119" on="1"/>
        <pt x="853" y="130" on="1"/>
        <pt x="992" y="462" on="1"/>
        <pt x="1111" y="439" on="1"/>
        <pt x="1015" y="2" on="1"/>
        <pt x="29" y="2" on="1"/>
      </contour>
    </TTGlyph>
    <TTGlyph name="M" xMin="-54" yMin="-18" xMax="1854" yMax="1522">
      <contour>
        <pt x="-44" y="88" on="1"/>
        <pt x="116" y="117" on="1"/>
        <pt x="433" y="1398" on="1"/>
        <pt x="272" y="1421" on="1"/>
        <pt x="284" y="1522" on="1"/>
        <pt x="731" y="1522" on="1"/>
        <pt x="895" y="478" on="1"/>
        <pt x="910" y="311" on="1"/>
        <pt x="975" y="478" on="1"/>
        <pt x="1027" y="604" on="0"/>
        <pt x="1143" y="867" on="0"/>
        <pt x="1261" y="1133" on="0"/>
        <pt x="1377" y="1396" on="0"/>
        <pt x="1430" y="1522" on="1"/>
        <pt x="1854" y="1522" on="1"/>
        <pt x="1843" y="1421" on="1"/>
        <pt x="1678" y="1398" on="1"/>
        <pt x="1653" y="118" on="1"/>
        <pt x="1807" y="88" on="1"/>
        <pt x="1798" y="0" on="1"/>
        <pt x="1265" y="0" on="1"/>
        <pt x="1274" y="88" on="1"/>
        <pt x="1450" y="116" on="1"/>
        <pt x="1487" y="1017" on="1"/>
        <pt x="1517" y="1420" on="1"/>
        <pt x="1380" y="1065" on="1"/>
        <pt x="909" y="-3" on="1"/>
        <pt x="797" y="-18" on="1"/>
        <pt x="625" y="1041" on="1"/>
        <pt x="564" y="1418" on="1"/>
        <pt x="492" y="1031" on="1"/>
        <pt x="280" y="117" on="1"/>
        <pt x="467" y="88" on="1"/>
        <pt x="458" y="0" on="1"/>
        <pt x="-54" y="0" on="1"/>
      </contour>
    </TTGlyph>
    <TTGlyph name="N" xMin="32" yMin="0" xMax="1557" yMax="1522">
      <contour>
        <pt x="40" y="87" on="1"/>
        <pt x="176" y="115" on="1"/>
        <pt x="346" y="1398" on="1"/>
        <pt x="199" y="1421" on="1"/>
        <pt x="216" y="1522" on="1"/>
        <pt x="564" y="1522" on="1"/>
        <pt x="1028" y="423" on="1"/>
        <pt x="1099" y="190" on="1"/>
        <pt x="1243" y="1398" on="1"/>
        <pt x="1092" y="1421" on="1"/>
        <pt x="1104" y="1522" on="1"/>
        <pt x="1557" y="1522" on="1"/>
        <pt x="1547" y="1421" on="1"/>
        <pt x="1402" y="1398" on="1"/>
        <pt x="1199" y="0" on="1"/>
        <pt x="1004" y="0" on="1"/>
        <pt x="534" y="1104" on="1"/>
        <pt x="472" y="1326" on="1"/>
        <pt x="345" y="117" on="1"/>
        <pt x="507" y="88" on="1"/>
        <pt x="498" y="0" on="1"/>
        <pt x="32" y="0" on="1"/>
      </contour>
    </TTGlyph>
    <TTGlyph name="Nacute" xMin="32" yMin="0" xMax="1557" yMax="2001">
      <contour>
        <pt x="790" y="1659" on="1"/>
        <pt x="1066" y="2001" on="1"/>
        <pt x="1192" y="1880" on="1"/>
        <pt x="1172" y="1838" on="0"/>
        <pt x="1089" y="1754" on="0"/>
        <pt x="991" y="1681" on="0"/>
        <pt x="891" y="1624" on="0"/>
        <pt x="855" y="1611" on="1"/>
      </contour>
      <contour>
        <pt x="40" y="87" on="1"/>
        <pt x="176" y="115" on="1"/>
        <pt x="346" y="1398" on="1"/>
        <pt x="199" y="1421" on="1"/>
        <pt x="216" y="1522" on="1"/>
        <pt x="564" y="1522" on="1"/>
        <pt x="1028" y="423" on="1"/>
        <pt x="1099" y="190" on="1"/>
        <pt x="1243" y="1398" on="1"/>
        <pt x="1092" y="1421" on="1"/>
        <pt x="1104" y="1522" on="1"/>
        <pt x="1557" y="1522" on="1"/>
        <pt x="1547" y="1421" on="1"/>
        <pt x="1402" y="1398" on="1"/>
        <pt x="1199" y="0" on="1"/>
        <pt x="1004" y="0" on="1"/>
        <pt x="534" y="1104" on="1"/>
        <pt x="472" y="1326" on="1"/>
        <pt x="345" y="117" on="1"/>
        <pt x="507" y="88" on="1"/>
        <pt x="498" y="0" on="1"/>
        <pt x="32" y="0" on="1"/>
      </contour>
    </TTGlyph>
    <TTGlyph name="Ncaron" xMin="32" yMin="0" xMax="1557" yMax="2001">
      <contour>
        <pt x="572" y="1943" on="1"/>
        <pt x="649" y="2001" on="1"/>
        <pt x="886" y="1768" on="1"/>
        <pt x="1203" y="2001" on="1"/>
        <pt x="1267" y="1944" on="1"/>
        <pt x="969" y="1623" on="1"/>
        <pt x="794" y="1623" on="1"/>
      </contour>
      <contour>
        <pt x="40" y="87" on="1"/>
        <pt x="176" y="115" on="1"/>
        <pt x="346" y="1398" on="1"/>
        <pt x="199" y="1421" on="1"/>
        <pt x="216" y="1522" on="1"/>
        <pt x="564" y="1522" on="1"/>
        <pt x="1028" y="423" on="1"/>
        <pt x="1099" y="190" on="1"/>
        <pt x="1243" y="1398" on="1"/>
        <pt x="1092" y="1421" on="1"/>
        <pt x="1104" y="1522" on="1"/>
        <pt x="1557" y="1522" on="1"/>
        <pt x="1547" y="1421" on="1"/>
        <pt x="1402" y="1398" on="1"/>
        <pt x="1199" y="0" on="1"/>
        <pt x="1004" y="0" on="1"/>
        <pt x="534" y="1104" on="1"/>
        <pt x="472" y="1326" on="1"/>
        <pt x="345" y="117" on="1"/>
        <pt x="507" y="88" on="1"/>
        <pt x="498" y="0" on="1"/>
        <pt x="32" y="0" on="1"/>
      </contour>
    </TTGlyph>
    <TTGlyph name="Ncommaaccent" xMin="32" yMin="-560" xMax="1557" yMax="1522">
      <contour>
        <pt x="682" y="-50" on="1"/>
        <pt x="713" y="-57" on="0"/>
        <pt x="759" y="-98" on="0"/>
        <pt x="790" y="-155" on="0"/>
        <pt x="806" y="-225" on="0"/>
        <pt x="806" y="-260" on="1"/>
        <pt x="806" y="-321" on="0"/>
        <pt x="769" y="-425" on="0"/>
        <pt x="714" y="-504" on="0"/>
        <pt x="651" y="-553" on="0"/>
        <pt x="625" y="-560" on="1"/>
        <pt x="547" y="-519" on="1"/>
        <pt x="547" y="-493" on="1"/>
        <pt x="582" y="-465" on="0"/>
        <pt x="622" y="-382" on="0"/>
        <pt x="622" y="-334" on="1"/>
        <pt x="622" y="-317" on="0"/>
        <pt x="611" y="-278" on="0"/>
        <pt x="591" y="-244" on="0"/>
        <pt x="565" y="-219" on="0"/>
        <pt x="550" y="-216" on="1"/>
        <pt x="551" y="-151" on="1"/>
      </contour>
      <contour>
        <pt x="40" y="87" on="1"/>
        <pt x="176" y="115" on="1"/>
        <pt x="346" y="1398" on="1"/>
        <pt x="199" y="1421" on="1"/>
        <pt x="216" y="1522" on="1"/>
        <pt x="564" y="1522" on="1"/>
        <pt x="1028" y="423" on="1"/>
        <pt x="1099" y="190" on="1"/>
        <pt x="1243" y="1398" on="1"/>
        <pt x="1092" y="1421" on="1"/>
        <pt x="1104" y="1522" on="1"/>
        <pt x="1557" y="1522" on="1"/>
        <pt x="1547" y="1421" on="1"/>
        <pt x="1402" y="1398" on="1"/>
        <pt x="1199" y="0" on="1"/>
        <pt x="1004" y="0" on="1"/>
        <pt x="534" y="1104" on="1"/>
        <pt x="472" y="1326" on="1"/>
        <pt x="345" y="117" on="1"/>
        <pt x="507" y="88" on="1"/>
        <pt x="498" y="0" on="1"/>
        <pt x="32" y="0" on="1"/>
      </contour>
    </TTGlyph>
    <TTGlyph name="Ntilde" xMin="32" yMin="0" xMax="1557" yMax="1971">
      <contour>
        <pt x="531" y="1801" on="1"/>
        <pt x="543" y="1833" on="0"/>
        <pt x="585" y="1894" on="0"/>
        <pt x="642" y="1942" on="0"/>
        <pt x="713" y="1971" on="0"/>
        <pt x="756" y="1971" on="1"/>
        <pt x="806" y="1971" on="0"/>
        <pt x="882" y="1927" on="0"/>
        <pt x="949" y="1874" on="0"/>
        <pt x="1013" y="1830" on="0"/>
        <pt x="1051" y="1830" on="1"/>
        <pt x="1081" y="1830" on="0"/>
        <pt x="1126" y="1847" on="0"/>
        <pt x="1160" y="1872" on="0"/>
        <pt x="1186" y="1903" on="0"/>
        <pt x="1198" y="1917" on="1"/>
        <pt x="1256" y="1835" on="1"/>
        <pt x="1246" y="1808" on="0"/>
        <pt x="1208" y="1748" on="0"/>
        <pt x="1153" y="1698" on="0"/>
        <pt x="1079" y="1665" on="0"/>
        <pt x="1032" y="1665" on="1"/>
        <pt x="978" y="1665" on="0"/>
        <pt x="903" y="1708" on="0"/>
        <pt x="840" y="1761" on="0"/>
        <pt x="778" y="1805" on="0"/>
        <pt x="736" y="1806" on="1"/>
        <pt x="687" y="1807" on="0"/>
        <pt x="618" y="1757" on="0"/>
        <pt x="589" y="1719" on="1"/>
      </contour>
      <contour>
        <pt x="40" y="87" on="1"/>
        <pt x="176" y="115" on="1"/>
        <pt x="346" y="1398" on="1"/>
        <pt x="199" y="1421" on="1"/>
        <pt x="216" y="1522" on="1"/>
        <pt x="564" y="1522" on="1"/>
        <pt x="1028" y="423" on="1"/>
        <pt x="1099" y="190" on="1"/>
        <pt x="1243" y="1398" on="1"/>
        <pt x="1092" y="1421" on="1"/>
        <pt x="1104" y="1522" on="1"/>
        <pt x="1557" y="1522" on="1"/>
        <pt x="1547" y="1421" on="1"/>
        <pt x="1402" y="1398" on="1"/>
        <pt x="1199" y="0" on="1"/>
        <pt x="1004" y="0" on="1"/>
        <pt x="534" y="1104" on="1"/>
        <pt x="472" y="1326" on="1"/>
        <pt x="345" y="117" on="1"/>
        <pt x="507" y="88" on="1"/>
        <pt x="498" y="0" on="1"/>
        <pt x="32" y="0" on="1"/>
      </contour>
    </TTGlyph>
    <TTGlyph name="O" xMin="117" yMin="-20" xMax="1315" yMax="1542">
      <contour>
        <pt x="620" y="-20" on="1"/>
        <pt x="493" y="-20" on="0"/>
        <pt x="306" y="83" on="0"/>
        <pt x="183" y="258" on="0"/>
        <pt x="121" y="490" on="0"/>
        <pt x="119" y="619" on="1"/>
        <pt x="117" y="751" on="0"/>
        <pt x="162" y="991" on="0"/>
        <pt x="248" y="1196" on="0"/>
        <pt x="373" y="1362" on="0"/>
        <pt x="529" y="1479" on="0"/>
        <pt x="711" y="1542" on="0"/>
        <pt x="812" y="1542" on="1"/>
        <pt x="939" y="1542" on="0"/>
        <pt x="1125" y="1441" on="0"/>
        <pt x="1249" y="1269" on="0"/>
        <pt x="1311" y="1040" on="0"/>
        <pt x="1313" y="911" on="1"/>
        <pt x="1315" y="779" on="0"/>
        <pt x="1271" y="538" on="0"/>
        <pt x="1184" y="331" on="0"/>
        <pt x="1059" y="163" on="0"/>
        <pt x="904" y="44" on="0"/>
        <pt x="721" y="-20" on="0"/>
      </contour>
      <contour>
        <pt x="648" y="100" on="1"/>
        <pt x="746" y="100" on="0"/>
        <pt x="914" y="217" on="0"/>
        <pt x="1035" y="424" on="0"/>
        <pt x="1102" y="710" on="0"/>
        <pt x="1099" y="879" on="1"/>
        <pt x="1097" y="1001" on="0"/>
        <pt x="1055" y="1199" on="0"/>
        <pt x="975" y="1340" on="0"/>
        <pt x="856" y="1417" on="0"/>
        <pt x="778" y="1417" on="1"/>
        <pt x="680" y="1417" on="0"/>
        <pt x="512" y="1303" on="0"/>
        <pt x="390" y="1098" on="0"/>
        <pt x="324" y="815" on="0"/>
        <pt x="327" y="646" on="1"/>
        <pt x="329" y="526" on="0"/>
        <pt x="371" y="325" on="0"/>
        <pt x="451" y="180" on="0"/>
        <pt x="569" y="100" on="0"/>
      </contour>
    </TTGlyph>
    <TTGlyph name="OE" xMin="98" yMin="-20" xMax="2025" yMax="1539">
      <contour>
        <pt x="619" y="-20" on="1"/>
        <pt x="503" y="-20" on="0"/>
        <pt x="314" y="68" on="0"/>
        <pt x="179" y="234" on="0"/>
        <pt x="103" y="472" on="0"/>
        <pt x="100" y="622" on="1"/>
        <pt x="98" y="755" on="0"/>
        <pt x="145" y="994" on="0"/>
        <pt x="236" y="1198" on="0"/>
        <pt x="366" y="1362" on="0"/>
        <pt x="524" y="1477" on="0"/>
        <pt x="707" y="1539" on="0"/>
        <pt x="807" y="1539" on="1"/>
        <pt x="885" y="1539" on="0"/>
        <pt x="1016" y="1494" on="0"/>
        <pt x="1120" y="1413" on="0"/>
        <pt x="1199" y="1299" on="0"/>
        <pt x="1226" y="1230" on="1"/>
        <pt x="1261" y="1522" on="1"/>
        <pt x="2025" y="1522" on="1"/>
        <pt x="2017" y="1229" on="1"/>
        <pt x="1906" y="1229" on="1"/>
        <pt x="1859" y="1399" on="1"/>
        <pt x="1462" y="1414" on="1"/>
        <pt x="1387" y="847" on="1"/>
        <pt x="1788" y="871" on="1"/>
        <pt x="1772" y="704" on="1"/>
        <pt x="1377" y="721" on="1"/>
        <pt x="1303" y="117" on="1"/>
        <pt x="1814" y="141" on="1"/>
        <pt x="1910" y="331" on="1"/>
        <pt x="2018" y="300" on="1"/>
        <pt x="1953" y="0" on="1"/>
        <pt x="1081" y="0" on="1"/>
        <pt x="1111" y="259" on="1"/>
        <pt x="1067" y="194" on="0"/>
        <pt x="959" y="91" on="0"/>
        <pt x="834" y="19" on="0"/>
        <pt x="695" y="-20" on="0"/>
      </contour>
      <contour>
        <pt x="647" y="100" on="1"/>
        <pt x="746" y="99" on="0"/>
        <pt x="913" y="214" on="0"/>
        <pt x="1034" y="419" on="0"/>
        <pt x="1101" y="700" on="0"/>
        <pt x="1098" y="865" on="1"/>
        <pt x="1096" y="1010" on="0"/>
        <pt x="1053" y="1217" on="0"/>
        <pt x="972" y="1351" on="0"/>
        <pt x="852" y="1414" on="0"/>
        <pt x="774" y="1414" on="1"/>
        <pt x="676" y="1414" on="0"/>
        <pt x="505" y="1305" on="0"/>
        <pt x="379" y="1115" on="0"/>
        <pt x="308" y="857" on="0"/>
        <pt x="311" y="708" on="1"/>
        <pt x="314" y="568" on="0"/>
        <pt x="350" y="344" on="0"/>
        <pt x="429" y="186" on="0"/>
        <pt x="555" y="101" on="0"/>
      </contour>
    </TTGlyph>
    <TTGlyph name="Oacute" xMin="117" yMin="-20" xMax="1315" yMax="2001">
      <contour>
        <pt x="747" y="1659" on="1"/>
        <pt x="1023" y="2001" on="1"/>
        <pt x="1149" y="1880" on="1"/>
        <pt x="1129" y="1838" on="0"/>
        <pt x="1046" y="1754" on="0"/>
        <pt x="948" y="1681" on="0"/>
        <pt x="848" y="1624" on="0"/>
        <pt x="812" y="1611" on="1"/>
      </contour>
      <contour>
        <pt x="620" y="-20" on="1"/>
        <pt x="493" y="-20" on="0"/>
        <pt x="306" y="83" on="0"/>
        <pt x="183" y="258" on="0"/>
        <pt x="121" y="490" on="0"/>
        <pt x="119" y="619" on="1"/>
        <pt x="117" y="751" on="0"/>
        <pt x="162" y="991" on="0"/>
        <pt x="248" y="1196" on="0"/>
        <pt x="373" y="1362" on="0"/>
        <pt x="529" y="1479" on="0"/>
        <pt x="711" y="1542" on="0"/>
        <pt x="812" y="1542" on="1"/>
        <pt x="939" y="1542" on="0"/>
        <pt x="1125" y="1441" on="0"/>
        <pt x="1249" y="1269" on="0"/>
        <pt x="1311" y="1040" on="0"/>
        <pt x="1313" y="911" on="1"/>
        <pt x="1315" y="779" on="0"/>
        <pt x="1271" y="538" on="0"/>
        <pt x="1184" y="331" on="0"/>
        <pt x="1059" y="163" on="0"/>
        <pt x="904" y="44" on="0"/>
        <pt x="721" y="-20" on="0"/>
      </contour>
      <contour>
        <pt x="648" y="100" on="1"/>
        <pt x="746" y="100" on="0"/>
        <pt x="914" y="217" on="0"/>
        <pt x="1035" y="424" on="0"/>
        <pt x="1102" y="710" on="0"/>
        <pt x="1099" y="879" on="1"/>
        <pt x="1097" y="1001" on="0"/>
        <pt x="1055" y="1199" on="0"/>
        <pt x="975" y="1340" on="0"/>
        <pt x="856" y="1417" on="0"/>
        <pt x="778" y="1417" on="1"/>
        <pt x="680" y="1417" on="0"/>
        <pt x="512" y="1303" on="0"/>
        <pt x="390" y="1098" on="0"/>
        <pt x="324" y="815" on="0"/>
        <pt x="327" y="646" on="1"/>
        <pt x="329" y="526" on="0"/>
        <pt x="371" y="325" on="0"/>
        <pt x="451" y="180" on="0"/>
        <pt x="569" y="100" on="0"/>
      </contour>
    </TTGlyph>
    <TTGlyph name="Obreve" xMin="117" yMin="-20" xMax="1315" yMax="1980">
      <contour>
        <pt x="842" y="1628" on="1"/>
        <pt x="764" y="1628" on="0"/>
        <pt x="654" y="1681" on="0"/>
        <pt x="583" y="1768" on="0"/>
        <pt x="551" y="1878" on="0"/>
        <pt x="551" y="1934" on="1"/>
        <pt x="551" y="1959" on="0"/>
        <pt x="554" y="1980" on="1"/>
        <pt x="665" y="1980" on="1"/>
        <pt x="667" y="1956" on="0"/>
        <pt x="679" y="1887" on="0"/>
        <pt x="716" y="1823" on="0"/>
        <pt x="786" y="1778" on="0"/>
        <pt x="847" y="1778" on="1"/>
        <pt x="902" y="1778" on="0"/>
        <pt x="978" y="1819" on="0"/>
        <pt x="1029" y="1880" on="0"/>
        <pt x="1059" y="1950" on="0"/>
        <pt x="1067" y="1980" on="1"/>
        <pt x="1172" y="1980" on="1"/>
        <pt x="1172" y="1918" on="0"/>
        <pt x="1119" y="1792" on="0"/>
        <pt x="1028" y="1691" on="0"/>
        <pt x="908" y="1628" on="0"/>
      </contour>
      <contour>
        <pt x="620" y="-20" on="1"/>
        <pt x="493" y="-20" on="0"/>
        <pt x="306" y="83" on="0"/>
        <pt x="183" y="258" on="0"/>
        <pt x="121" y="490" on="0"/>
        <pt x="119" y="619" on="1"/>
        <pt x="117" y="751" on="0"/>
        <pt x="162" y="991" on="0"/>
        <pt x="248" y="1196" on="0"/>
        <pt x="373" y="1362" on="0"/>
        <pt x="529" y="1479" on="0"/>
        <pt x="711" y="1542" on="0"/>
        <pt x="812" y="1542" on="1"/>
        <pt x="939" y="1542" on="0"/>
        <pt x="1125" y="1441" on="0"/>
        <pt x="1249" y="1269" on="0"/>
        <pt x="1311" y="1040" on="0"/>
        <pt x="1313" y="911" on="1"/>
        <pt x="1315" y="779" on="0"/>
        <pt x="1271" y="538" on="0"/>
        <pt x="1184" y="331" on="0"/>
        <pt x="1059" y="163" on="0"/>
        <pt x="904" y="44" on="0"/>
        <pt x="721" y="-20" on="0"/>
      </contour>
      <contour>
        <pt x="648" y="100" on="1"/>
        <pt x="746" y="100" on="0"/>
        <pt x="914" y="217" on="0"/>
        <pt x="1035" y="424" on="0"/>
        <pt x="1102" y="710" on="0"/>
        <pt x="1099" y="879" on="1"/>
        <pt x="1097" y="1001" on="0"/>
        <pt x="1055" y="1199" on="0"/>
        <pt x="975" y="1340" on="0"/>
        <pt x="856" y="1417" on="0"/>
        <pt x="778" y="1417" on="1"/>
        <pt x="680" y="1417" on="0"/>
        <pt x="512" y="1303" on="0"/>
        <pt x="390" y="1098" on="0"/>
        <pt x="324" y="815" on="0"/>
        <pt x="327" y="646" on="1"/>
        <pt x="329" y="526" on="0"/>
        <pt x="371" y="325" on="0"/>
        <pt x="451" y="180" on="0"/>
        <pt x="569" y="100" on="0"/>
      </contour>
    </TTGlyph>
    <TTGlyph name="Ocircumflex" xMin="117" yMin="-20" xMax="1315" yMax="2001">
      <contour>
        <pt x="620" y="-20" on="1"/>
        <pt x="493" y="-20" on="0"/>
        <pt x="306" y="83" on="0"/>
        <pt x="183" y="258" on="0"/>
        <pt x="121" y="490" on="0"/>
        <pt x="119" y="619" on="1"/>
        <pt x="117" y="751" on="0"/>
        <pt x="162" y="991" on="0"/>
        <pt x="248" y="1196" on="0"/>
        <pt x="373" y="1362" on="0"/>
        <pt x="529" y="1479" on="0"/>
        <pt x="711" y="1542" on="0"/>
        <pt x="812" y="1542" on="1"/>
        <pt x="939" y="1542" on="0"/>
        <pt x="1125" y="1441" on="0"/>
        <pt x="1249" y="1269" on="0"/>
        <pt x="1311" y="1040" on="0"/>
        <pt x="1313" y="911" on="1"/>
        <pt x="1315" y="779" on="0"/>
        <pt x="1271" y="538" on="0"/>
        <pt x="1184" y="331" on="0"/>
        <pt x="1059" y="163" on="0"/>
        <pt x="904" y="44" on="0"/>
        <pt x="721" y="-20" on="0"/>
      </contour>
      <contour>
        <pt x="648" y="100" on="1"/>
        <pt x="746" y="100" on="0"/>
        <pt x="914" y="217" on="0"/>
        <pt x="1035" y="424" on="0"/>
        <pt x="1102" y="710" on="0"/>
        <pt x="1099" y="879" on="1"/>
        <pt x="1097" y="1001" on="0"/>
        <pt x="1055" y="1199" on="0"/>
        <pt x="975" y="1340" on="0"/>
        <pt x="856" y="1417" on="0"/>
        <pt x="778" y="1417" on="1"/>
        <pt x="680" y="1417" on="0"/>
        <pt x="512" y="1303" on="0"/>
        <pt x="390" y="1098" on="0"/>
        <pt x="324" y="815" on="0"/>
        <pt x="327" y="646" on="1"/>
        <pt x="329" y="526" on="0"/>
        <pt x="371" y="325" on="0"/>
        <pt x="451" y="180" on="0"/>
        <pt x="569" y="100" on="0"/>
      </contour>
      <contour>
        <pt x="498" y="1682" on="1"/>
        <pt x="806" y="2001" on="1"/>
        <pt x="983" y="2001" on="1"/>
        <pt x="1195" y="1682" on="1"/>
        <pt x="1124" y="1623" on="1"/>
        <pt x="885" y="1850" on="1"/>
        <pt x="561" y="1624" on="1"/>
      </contour>
    </TTGlyph>
    <TTGlyph name="Odieresis" xMin="117" yMin="-20" xMax="1315" yMax="1990">
      <contour>
        <pt x="1057" y="1724" on="1"/>
        <pt x="1033" y="1724" on="0"/>
        <pt x="991" y="1743" on="0"/>
        <pt x="960" y="1776" on="0"/>
        <pt x="942" y="1819" on="0"/>
        <pt x="942" y="1844" on="1"/>
        <pt x="942" y="1874" on="0"/>
        <pt x="969" y="1927" on="0"/>
        <pt x="1012" y="1967" on="0"/>
        <pt x="1064" y="1990" on="0"/>
        <pt x="1088" y="1990" on="1"/>
        <pt x="1145" y="1990" on="0"/>
        <pt x="1210" y="1924" on="0"/>
        <pt x="1210" y="1878" on="1"/>
        <pt x="1210" y="1848" on="0"/>
        <pt x="1186" y="1792" on="0"/>
        <pt x="1144" y="1749" on="0"/>
        <pt x="1088" y="1724" on="0"/>
      </contour>
      <contour>
        <pt x="637" y="1724" on="1"/>
        <pt x="614" y="1724" on="0"/>
        <pt x="572" y="1743" on="0"/>
        <pt x="541" y="1774" on="0"/>
        <pt x="523" y="1816" on="0"/>
        <pt x="523" y="1840" on="1"/>
        <pt x="523" y="1870" on="0"/>
        <pt x="549" y="1924" on="0"/>
        <pt x="590" y="1966" on="0"/>
        <pt x="641" y="1990" on="0"/>
        <pt x="667" y="1990" on="1"/>
        <pt x="695" y="1990" on="0"/>
        <pt x="741" y="1972" on="0"/>
        <pt x="773" y="1941" on="0"/>
        <pt x="790" y="1900" on="0"/>
        <pt x="790" y="1877" on="1"/>
        <pt x="790" y="1847" on="0"/>
        <pt x="765" y="1791" on="0"/>
        <pt x="723" y="1749" on="0"/>
        <pt x="667" y="1724" on="0"/>
      </contour>
      <contour>
        <pt x="620" y="-20" on="1"/>
        <pt x="493" y="-20" on="0"/>
        <pt x="306" y="83" on="0"/>
        <pt x="183" y="258" on="0"/>
        <pt x="121" y="490" on="0"/>
        <pt x="119" y="619" on="1"/>
        <pt x="117" y="751" on="0"/>
        <pt x="162" y="991" on="0"/>
        <pt x="248" y="1196" on="0"/>
        <pt x="373" y="1362" on="0"/>
        <pt x="529" y="1479" on="0"/>
        <pt x="711" y="1542" on="0"/>
        <pt x="812" y="1542" on="1"/>
        <pt x="939" y="1542" on="0"/>
        <pt x="1125" y="1441" on="0"/>
        <pt x="1249" y="1269" on="0"/>
        <pt x="1311" y="1040" on="0"/>
        <pt x="1313" y="911" on="1"/>
        <pt x="1315" y="779" on="0"/>
        <pt x="1271" y="538" on="0"/>
        <pt x="1184" y="331" on="0"/>
        <pt x="1059" y="163" on="0"/>
        <pt x="904" y="44" on="0"/>
        <pt x="721" y="-20" on="0"/>
      </contour>
      <contour>
        <pt x="648" y="100" on="1"/>
        <pt x="746" y="100" on="0"/>
        <pt x="914" y="217" on="0"/>
        <pt x="1035" y="424" on="0"/>
        <pt x="1102" y="710" on="0"/>
        <pt x="1099" y="879" on="1"/>
        <pt x="1097" y="1001" on="0"/>
        <pt x="1055" y="1199" on="0"/>
        <pt x="975" y="1340" on="0"/>
        <pt x="856" y="1417" on="0"/>
        <pt x="778" y="1417" on="1"/>
        <pt x="680" y="1417" on="0"/>
        <pt x="512" y="1303" on="0"/>
        <pt x="390" y="1098" on="0"/>
        <pt x="324" y="815" on="0"/>
        <pt x="327" y="646" on="1"/>
        <pt x="329" y="526" on="0"/>
        <pt x="371" y="325" on="0"/>
        <pt x="451" y="180" on="0"/>
        <pt x="569" y="100" on="0"/>
      </contour>
    </TTGlyph>
    <TTGlyph name="Ograve" xMin="117" yMin="-20" xMax="1315" yMax="2001">
      <contour>
        <pt x="821" y="1611" on="1"/>
        <pt x="785" y="1624" on="0"/>
        <pt x="686" y="1682" on="0"/>
        <pt x="588" y="1756" on="0"/>
        <pt x="508" y="1840" on="0"/>
        <pt x="491" y="1880" on="1"/>
        <pt x="626" y="2001" on="1"/>
        <pt x="889" y="1659" on="1"/>
        <pt x="821" y="1611" on="1"/>
      </contour>
      <contour>
        <pt x="620" y="-20" on="1"/>
        <pt x="493" y="-20" on="0"/>
        <pt x="306" y="83" on="0"/>
        <pt x="183" y="258" on="0"/>
        <pt x="121" y="490" on="0"/>
        <pt x="119" y="619" on="1"/>
        <pt x="117" y="751" on="0"/>
        <pt x="162" y="991" on="0"/>
        <pt x="248" y="1196" on="0"/>
        <pt x="373" y="1362" on="0"/>
        <pt x="529" y="1479" on="0"/>
        <pt x="711" y="1542" on="0"/>
        <pt x="812" y="1542" on="1"/>
        <pt x="939" y="1542" on="0"/>
        <pt x="1125" y="1441" on="0"/>
        <pt x="1249" y="1269" on="0"/>
        <pt x="1311" y="1040" on="0"/>
        <pt x="1313" y="911" on="1"/>
        <pt x="1315" y="779" on="0"/>
        <pt x="1271" y="538" on="0"/>
        <pt x="1184" y="331" on="0"/>
        <pt x="1059" y="163" on="0"/>
        <pt x="904" y="44" on="0"/>
        <pt x="721" y="-20" on="0"/>
      </contour>
      <contour>
        <pt x="648" y="100" on="1"/>
        <pt x="746" y="100" on="0"/>
        <pt x="914" y="217" on="0"/>
        <pt x="1035" y="424" on="0"/>
        <pt x="1102" y="710" on="0"/>
        <pt x="1099" y="879" on="1"/>
        <pt x="1097" y="1001" on="0"/>
        <pt x="1055" y="1199" on="0"/>
        <pt x="975" y="1340" on="0"/>
        <pt x="856" y="1417" on="0"/>
        <pt x="778" y="1417" on="1"/>
        <pt x="680" y="1417" on="0"/>
        <pt x="512" y="1303" on="0"/>
        <pt x="390" y="1098" on="0"/>
        <pt x="324" y="815" on="0"/>
        <pt x="327" y="646" on="1"/>
        <pt x="329" y="526" on="0"/>
        <pt x="371" y="325" on="0"/>
        <pt x="451" y="180" on="0"/>
        <pt x="569" y="100" on="0"/>
      </contour>
    </TTGlyph>
    <TTGlyph name="Ohungarumlaut" xMin="117" yMin="-20" xMax="1415" yMax="2001">
      <contour>
        <pt x="620" y="-20" on="1"/>
        <pt x="493" y="-20" on="0"/>
        <pt x="306" y="83" on="0"/>
        <pt x="183" y="258" on="0"/>
        <pt x="121" y="490" on="0"/>
        <pt x="119" y="619" on="1"/>
        <pt x="117" y="751" on="0"/>
        <pt x="162" y="991" on="0"/>
        <pt x="248" y="1196" on="0"/>
        <pt x="373" y="1362" on="0"/>
        <pt x="529" y="1479" on="0"/>
        <pt x="711" y="1542" on="0"/>
        <pt x="812" y="1542" on="1"/>
        <pt x="939" y="1542" on="0"/>
        <pt x="1125" y="1441" on="0"/>
        <pt x="1249" y="1269" on="0"/>
        <pt x="1311" y="1040" on="0"/>
        <pt x="1313" y="911" on="1"/>
        <pt x="1315" y="779" on="0"/>
        <pt x="1271" y="538" on="0"/>
        <pt x="1184" y="331" on="0"/>
        <pt x="1059" y="163" on="0"/>
        <pt x="904" y="44" on="0"/>
        <pt x="721" y="-20" on="0"/>
      </contour>
      <contour>
        <pt x="648" y="100" on="1"/>
        <pt x="746" y="100" on="0"/>
        <pt x="914" y="217" on="0"/>
        <pt x="1035" y="424" on="0"/>
        <pt x="1102" y="710" on="0"/>
        <pt x="1099" y="879" on="1"/>
        <pt x="1097" y="1001" on="0"/>
        <pt x="1055" y="1199" on="0"/>
        <pt x="975" y="1340" on="0"/>
        <pt x="856" y="1417" on="0"/>
        <pt x="778" y="1417" on="1"/>
        <pt x="680" y="1417" on="0"/>
        <pt x="512" y="1303" on="0"/>
        <pt x="390" y="1098" on="0"/>
        <pt x="324" y="815" on="0"/>
        <pt x="327" y="646" on="1"/>
        <pt x="329" y="526" on="0"/>
        <pt x="371" y="325" on="0"/>
        <pt x="451" y="180" on="0"/>
        <pt x="569" y="100" on="0"/>
      </contour>
      <contour>
        <pt x="1003" y="1677" on="1"/>
        <pt x="1279" y="2001" on="1"/>
        <pt x="1415" y="1881" on="1"/>
        <pt x="1389" y="1837" on="0"/>
        <pt x="1310" y="1753" on="0"/>
        <pt x="1221" y="1681" on="0"/>
        <pt x="1132" y="1625" on="0"/>
        <pt x="1097" y="1611" on="1"/>
      </contour>
      <contour>
        <pt x="566" y="1677" on="1"/>
        <pt x="842" y="2001" on="1"/>
        <pt x="976" y="1882" on="1"/>
        <pt x="963" y="1853" on="0"/>
        <pt x="917" y="1795" on="0"/>
        <pt x="859" y="1741" on="0"/>
        <pt x="794" y="1692" on="0"/>
        <pt x="730" y="1651" on="0"/>
        <pt x="672" y="1620" on="0"/>
        <pt x="651" y="1611" on="1"/>
      </contour>
    </TTGlyph>
    <TTGlyph name="Omacron" xMin="117" yMin="-20" xMax="1315" yMax="1880">
      <contour>
        <pt x="592" y="1880" on="1"/>
        <pt x="1104" y="1880" on="1"/>
        <pt x="1084" y="1728" on="1"/>
        <pt x="573" y="1728" on="1"/>
      </contour>
      <contour>
        <pt x="620" y="-20" on="1"/>
        <pt x="493" y="-20" on="0"/>
        <pt x="306" y="83" on="0"/>
        <pt x="183" y="258" on="0"/>
        <pt x="121" y="490" on="0"/>
        <pt x="119" y="619" on="1"/>
        <pt x="117" y="751" on="0"/>
        <pt x="162" y="991" on="0"/>
        <pt x="248" y="1196" on="0"/>
        <pt x="373" y="1362" on="0"/>
        <pt x="529" y="1479" on="0"/>
        <pt x="711" y="1542" on="0"/>
        <pt x="812" y="1542" on="1"/>
        <pt x="939" y="1542" on="0"/>
        <pt x="1125" y="1441" on="0"/>
        <pt x="1249" y="1269" on="0"/>
        <pt x="1311" y="1040" on="0"/>
        <pt x="1313" y="911" on="1"/>
        <pt x="1315" y="779" on="0"/>
        <pt x="1271" y="538" on="0"/>
        <pt x="1184" y="331" on="0"/>
        <pt x="1059" y="163" on="0"/>
        <pt x="904" y="44" on="0"/>
        <pt x="721" y="-20" on="0"/>
      </contour>
      <contour>
        <pt x="648" y="100" on="1"/>
        <pt x="746" y="100" on="0"/>
        <pt x="914" y="217" on="0"/>
        <pt x="1035" y="424" on="0"/>
        <pt x="1102" y="710" on="0"/>
        <pt x="1099" y="879" on="1"/>
        <pt x="1097" y="1001" on="0"/>
        <pt x="1055" y="1199" on="0"/>
        <pt x="975" y="1340" on="0"/>
        <pt x="856" y="1417" on="0"/>
        <pt x="778" y="1417" on="1"/>
        <pt x="680" y="1417" on="0"/>
        <pt x="512" y="1303" on="0"/>
        <pt x="390" y="1098" on="0"/>
        <pt x="324" y="815" on="0"/>
        <pt x="327" y="646" on="1"/>
        <pt x="329" y="526" on="0"/>
        <pt x="371" y="325" on="0"/>
        <pt x="451" y="180" on="0"/>
        <pt x="569" y="100" on="0"/>
      </contour>
    </TTGlyph>
    <TTGlyph name="Omega" xMin="-18" yMin="0" xMax="1625" yMax="1545">
      <contour>
        <pt x="-9" y="362" on="1"/>
        <pt x="123" y="368" on="1"/>
        <pt x="143" y="152" on="1"/>
        <pt x="482" y="152" on="1"/>
        <pt x="445" y="177" on="0"/>
        <pt x="368" y="256" on="0"/>
        <pt x="296" y="357" on="0"/>
        <pt x="232" y="477" on="0"/>
        <pt x="184" y="608" on="0"/>
        <pt x="156" y="747" on="0"/>
        <pt x="156" y="817" on="1"/>
        <pt x="156" y="977" on="0"/>
        <pt x="272" y="1244" on="0"/>
        <pt x="478" y="1437" on="0"/>
        <pt x="760" y="1545" on="0"/>
        <pt x="925" y="1545" on="1"/>
        <pt x="1058" y="1545" on="0"/>
        <pt x="1282" y="1472" on="0"/>
        <pt x="1444" y="1331" on="0"/>
        <pt x="1535" y="1122" on="0"/>
        <pt x="1535" y="987" on="1"/>
        <pt x="1535" y="918" on="0"/>
        <pt x="1502" y="765" on="0"/>
        <pt x="1444" y="611" on="0"/>
        <pt x="1362" y="460" on="0"/>
        <pt x="1264" y="323" on="0"/>
        <pt x="1153" y="205" on="0"/>
        <pt x="1095" y="162" on="1"/>
        <pt x="1415" y="162" on="1"/>
        <pt x="1504" y="399" on="1"/>
        <pt x="1625" y="392" on="1"/>
        <pt x="1556" y="0" on="1"/>
        <pt x="926" y="0" on="1"/>
        <pt x="905" y="130" on="1"/>
        <pt x="987" y="181" on="0"/>
        <pt x="1138" y="351" on="0"/>
        <pt x="1253" y="569" on="0"/>
        <pt x="1321" y="827" on="0"/>
        <pt x="1321" y="968" on="1"/>
        <pt x="1321" y="1091" on="0"/>
        <pt x="1252" y="1266" on="0"/>
        <pt x="1135" y="1379" on="0"/>
        <pt x="982" y="1432" on="0"/>
        <pt x="898" y="1432" on="1"/>
        <pt x="783" y="1432" on="0"/>
        <pt x="588" y="1358" on="0"/>
        <pt x="445" y="1203" on="0"/>
        <pt x="365" y="966" on="0"/>
        <pt x="365" y="803" on="1"/>
        <pt x="365" y="686" on="0"/>
        <pt x="419" y="471" on="0"/>
        <pt x="503" y="294" on="0"/>
        <pt x="606" y="163" on="0"/>
        <pt x="654" y="130" on="1"/>
        <pt x="614" y="0" on="1"/>
        <pt x="-18" y="0" on="1"/>
      </contour>
    </TTGlyph>
    <TTGlyph name="Omegagreek" xMin="-18" yMin="0" xMax="1625" yMax="1545">
      <contour>
        <pt x="-9" y="362" on="1"/>
        <pt x="123" y="368" on="1"/>
        <pt x="143" y="152" on="1"/>
        <pt x="482" y="152" on="1"/>
        <pt x="445" y="177" on="0"/>
        <pt x="368" y="256" on="0"/>
        <pt x="296" y="357" on="0"/>
        <pt x="232" y="477" on="0"/>
        <pt x="184" y="608" on="0"/>
        <pt x="156" y="747" on="0"/>
        <pt x="156" y="817" on="1"/>
        <pt x="156" y="977" on="0"/>
        <pt x="272" y="1244" on="0"/>
        <pt x="478" y="1437" on="0"/>
        <pt x="760" y="1545" on="0"/>
        <pt x="925" y="1545" on="1"/>
        <pt x="1058" y="1545" on="0"/>
        <pt x="1282" y="1472" on="0"/>
        <pt x="1444" y="1331" on="0"/>
        <pt x="1535" y="1122" on="0"/>
        <pt x="1535" y="987" on="1"/>
        <pt x="1535" y="918" on="0"/>
        <pt x="1502" y="765" on="0"/>
        <pt x="1444" y="611" on="0"/>
        <pt x="1362" y="460" on="0"/>
        <pt x="1264" y="323" on="0"/>
        <pt x="1153" y="205" on="0"/>
        <pt x="1095" y="162" on="1"/>
        <pt x="1415" y="162" on="1"/>
        <pt x="1504" y="399" on="1"/>
        <pt x="1625" y="392" on="1"/>
        <pt x="1556" y="0" on="1"/>
        <pt x="926" y="0" on="1"/>
        <pt x="905" y="130" on="1"/>
        <pt x="987" y="181" on="0"/>
        <pt x="1138" y="351" on="0"/>
        <pt x="1253" y="569" on="0"/>
        <pt x="1321" y="827" on="0"/>
        <pt x="1321" y="968" on="1"/>
        <pt x="1321" y="1091" on="0"/>
        <pt x="1252" y="1266" on="0"/>
        <pt x="1135" y="1379" on="0"/>
        <pt x="982" y="1432" on="0"/>
        <pt x="898" y="1432" on="1"/>
        <pt x="783" y="1432" on="0"/>
        <pt x="588" y="1358" on="0"/>
        <pt x="445" y="1203" on="0"/>
        <pt x="365" y="966" on="0"/>
        <pt x="365" y="803" on="1"/>
        <pt x="365" y="686" on="0"/>
        <pt x="419" y="471" on="0"/>
        <pt x="503" y="294" on="0"/>
        <pt x="606" y="163" on="0"/>
        <pt x="654" y="130" on="1"/>
        <pt x="614" y="0" on="1"/>
        <pt x="-18" y="0" on="1"/>
      </contour>
    </TTGlyph>
    <TTGlyph name="Oslash" xMin="117" yMin="-184" xMax="1315" yMax="1709">
      <contour>
        <pt x="282" y="125" on="1"/>
        <pt x="241" y="169" on="0"/>
        <pt x="181" y="280" on="0"/>
        <pt x="141" y="407" on="0"/>
        <pt x="120" y="547" on="0"/>
        <pt x="119" y="621" on="1"/>
        <pt x="117" y="753" on="0"/>
        <pt x="162" y="993" on="0"/>
        <pt x="248" y="1198" on="0"/>
        <pt x="373" y="1364" on="0"/>
        <pt x="529" y="1481" on="0"/>
        <pt x="711" y="1544" on="0"/>
        <pt x="812" y="1544" on="1"/>
        <pt x="877" y="1544" on="0"/>
        <pt x="987" y="1517" on="0"/>
        <pt x="1035" y="1491" on="1"/>
        <pt x="1166" y="1709" on="1"/>
        <pt x="1257" y="1667" on="1"/>
        <pt x="1120" y="1432" on="1"/>
        <pt x="1168" y="1389" on="0"/>
        <pt x="1239" y="1276" on="0"/>
        <pt x="1287" y="1143" on="0"/>
        <pt x="1311" y="993" on="0"/>
        <pt x="1313" y="913" on="1"/>
        <pt x="1315" y="781" on="0"/>
        <pt x="1271" y="540" on="0"/>
        <pt x="1184" y="333" on="0"/>
        <pt x="1059" y="165" on="0"/>
        <pt x="904" y="46" on="0"/>
        <pt x="721" y="-18" on="0"/>
        <pt x="620" y="-18" on="1"/>
        <pt x="543" y="-18" on="0"/>
        <pt x="415" y="21" on="0"/>
        <pt x="362" y="56" on="1"/>
        <pt x="215" y="-184" on="1"/>
        <pt x="123" y="-140" on="1"/>
      </contour>
      <contour>
        <pt x="956" y="1348" on="1"/>
        <pt x="882" y="1419" on="0"/>
        <pt x="778" y="1419" on="1"/>
        <pt x="680" y="1419" on="0"/>
        <pt x="512" y="1305" on="0"/>
        <pt x="390" y="1100" on="0"/>
        <pt x="324" y="817" on="0"/>
        <pt x="327" y="648" on="1"/>
        <pt x="329" y="539" on="0"/>
        <pt x="363" y="355" on="0"/>
        <pt x="395" y="285" on="1"/>
      </contour>
      <contour>
        <pt x="447" y="199" on="1"/>
        <pt x="485" y="152" on="0"/>
        <pt x="585" y="102" on="0"/>
        <pt x="648" y="102" on="1"/>
        <pt x="746" y="102" on="0"/>
        <pt x="914" y="219" on="0"/>
        <pt x="1035" y="426" on="0"/>
        <pt x="1102" y="712" on="0"/>
        <pt x="1099" y="881" on="1"/>
        <pt x="1097" y="1004" on="0"/>
        <pt x="1054" y="1203" on="0"/>
        <pt x="1013" y="1274" on="1"/>
      </contour>
    </TTGlyph>
    <TTGlyph name="Otilde" xMin="117" yMin="-20" xMax="1315" yMax="1971">
      <contour>
        <pt x="488" y="1801" on="1"/>
        <pt x="500" y="1833" on="0"/>
        <pt x="542" y="1894" on="0"/>
        <pt x="599" y="1942" on="0"/>
        <pt x="670" y="1971" on="0"/>
        <pt x="713" y="1971" on="1"/>
        <pt x="763" y="1971" on="0"/>
        <pt x="839" y="1927" on="0"/>
        <pt x="906" y="1874" on="0"/>
        <pt x="970" y="1830" on="0"/>
        <pt x="1008" y="1830" on="1"/>
        <pt x="1038" y="1830" on="0"/>
        <pt x="1083" y="1847" on="0"/>
        <pt x="1117" y="1872" on="0"/>
        <pt x="1143" y="1903" on="0"/>
        <pt x="1155" y="1917" on="1"/>
        <pt x="1213" y="1835" on="1"/>
        <pt x="1203" y="1808" on="0"/>
        <pt x="1165" y="1748" on="0"/>
        <pt x="1110" y="1698" on="0"/>
        <pt x="1036" y="1665" on="0"/>
        <pt x="989" y="1665" on="1"/>
        <pt x="935" y="1665" on="0"/>
        <pt x="860" y="1708" on="0"/>
        <pt x="797" y="1761" on="0"/>
        <pt x="735" y="1805" on="0"/>
        <pt x="693" y="1806" on="1"/>
        <pt x="644" y="1807" on="0"/>
        <pt x="575" y="1757" on="0"/>
        <pt x="546" y="1719" on="1"/>
      </contour>
      <contour>
        <pt x="620" y="-20" on="1"/>
        <pt x="493" y="-20" on="0"/>
        <pt x="306" y="83" on="0"/>
        <pt x="183" y="258" on="0"/>
        <pt x="121" y="490" on="0"/>
        <pt x="119" y="619" on="1"/>
        <pt x="117" y="751" on="0"/>
        <pt x="162" y="991" on="0"/>
        <pt x="248" y="1196" on="0"/>
        <pt x="373" y="1362" on="0"/>
        <pt x="529" y="1479" on="0"/>
        <pt x="711" y="1542" on="0"/>
        <pt x="812" y="1542" on="1"/>
        <pt x="939" y="1542" on="0"/>
        <pt x="1125" y="1441" on="0"/>
        <pt x="1249" y="1269" on="0"/>
        <pt x="1311" y="1040" on="0"/>
        <pt x="1313" y="911" on="1"/>
        <pt x="1315" y="779" on="0"/>
        <pt x="1271" y="538" on="0"/>
        <pt x="1184" y="331" on="0"/>
        <pt x="1059" y="163" on="0"/>
        <pt x="904" y="44" on="0"/>
        <pt x="721" y="-20" on="0"/>
      </contour>
      <contour>
        <pt x="648" y="100" on="1"/>
        <pt x="746" y="100" on="0"/>
        <pt x="914" y="217" on="0"/>
        <pt x="1035" y="424" on="0"/>
        <pt x="1102" y="710" on="0"/>
        <pt x="1099" y="879" on="1"/>
        <pt x="1097" y="1001" on="0"/>
        <pt x="1055" y="1199" on="0"/>
        <pt x="975" y="1340" on="0"/>
        <pt x="856" y="1417" on="0"/>
        <pt x="778" y="1417" on="1"/>
        <pt x="680" y="1417" on="0"/>
        <pt x="512" y="1303" on="0"/>
        <pt x="390" y="1098" on="0"/>
        <pt x="324" y="815" on="0"/>
        <pt x="327" y="646" on="1"/>
        <pt x="329" y="526" on="0"/>
        <pt x="371" y="325" on="0"/>
        <pt x="451" y="180" on="0"/>
        <pt x="569" y="100" on="0"/>
      </contour>
    </TTGlyph>
    <TTGlyph name="P" xMin="28" yMin="0" xMax="1230" yMax="1539">
      <contour>
        <pt x="37" y="87" on="1"/>
        <pt x="185" y="117" on="1"/>
        <pt x="346" y="1398" on="1"/>
        <pt x="213" y="1421" on="1"/>
        <pt x="225" y="1522" on="1"/>
        <pt x="480" y="1522" on="1"/>
        <pt x="516" y="1522" on="0"/>
        <pt x="585" y="1527" on="0"/>
        <pt x="655" y="1534" on="0"/>
        <pt x="728" y="1539" on="0"/>
        <pt x="767" y="1539" on="1"/>
        <pt x="987" y="1539" on="0"/>
        <pt x="1225" y="1347" on="0"/>
        <pt x="1228" y="1148" on="1"/>
        <pt x="1230" y="1050" on="0"/>
        <pt x="1186" y="884" on="0"/>
        <pt x="1105" y="749" on="0"/>
        <pt x="991" y="647" on="0"/>
        <pt x="853" y="578" on="0"/>
        <pt x="694" y="543" on="0"/>
        <pt x="610" y="543" on="1"/>
        <pt x="543" y="543" on="0"/>
        <pt x="467" y="545" on="0"/>
        <pt x="440" y="547" on="1"/>
        <pt x="389" y="117" on="1"/>
        <pt x="589" y="88" on="1"/>
        <pt x="581" y="0" on="1"/>
        <pt x="28" y="0" on="1"/>
      </contour>
      <contour>
        <pt x="455" y="677" on="1"/>
        <pt x="501" y="669" on="0"/>
        <pt x="583" y="663" on="0"/>
        <pt x="620" y="663" on="1"/>
        <pt x="728" y="664" on="0"/>
        <pt x="877" y="725" on="0"/>
        <pt x="970" y="844" on="0"/>
        <pt x="1012" y="1017" on="0"/>
        <pt x="1014" y="1131" on="1"/>
        <pt x="1015" y="1201" on="0"/>
        <pt x="991" y="1311" on="0"/>
        <pt x="927" y="1385" on="0"/>
        <pt x="818" y="1422" on="0"/>
        <pt x="734" y="1420" on="1"/>
        <pt x="715" y="1420" on="0"/>
        <pt x="669" y="1416" on="0"/>
        <pt x="619" y="1411" on="0"/>
        <pt x="571" y="1403" on="0"/>
        <pt x="551" y="1399" on="1"/>
      </contour>
    </TTGlyph>
    <TTGlyph name="Q" xMin="113" yMin="-361" xMax="1312" yMax="1543">
      <contour>
        <pt x="583" y="-18" on="1"/>
        <pt x="464" y="-11" on="0"/>
        <pt x="290" y="96" on="0"/>
        <pt x="175" y="270" on="0"/>
        <pt x="117" y="495" on="0"/>
        <pt x="115" y="620" on="1"/>
        <pt x="113" y="752" on="0"/>
        <pt x="158" y="992" on="0"/>
        <pt x="244" y="1197" on="0"/>
        <pt x="369" y="1363" on="0"/>
        <pt x="525" y="1480" on="0"/>
        <pt x="707" y="1543" on="0"/>
        <pt x="808" y="1543" on="1"/>
        <pt x="935" y="1543" on="0"/>
        <pt x="1121" y="1442" on="0"/>
        <pt x="1245" y="1270" on="0"/>
        <pt x="1307" y="1041" on="0"/>
        <pt x="1309" y="912" on="1"/>
        <pt x="1312" y="730" on="0"/>
        <pt x="1226" y="413" on="0"/>
        <pt x="1068" y="169" on="0"/>
        <pt x="847" y="12" on="0"/>
        <pt x="714" y="-10" on="1"/>
        <pt x="718" y="-69" on="0"/>
        <pt x="767" y="-138" on="0"/>
        <pt x="844" y="-172" on="0"/>
        <pt x="944" y="-181" on="0"/>
        <pt x="999" y="-181" on="1"/>
        <pt x="1019" y="-181" on="0"/>
        <pt x="1074" y="-175" on="0"/>
        <pt x="1132" y="-164" on="0"/>
        <pt x="1188" y="-148" on="0"/>
        <pt x="1210" y="-138" on="1"/>
        <pt x="1212" y="-276" on="1"/>
        <pt x="1194" y="-291" on="0"/>
        <pt x="1133" y="-321" on="0"/>
        <pt x="1058" y="-346" on="0"/>
        <pt x="972" y="-361" on="0"/>
        <pt x="929" y="-361" on="1"/>
        <pt x="851" y="-361" on="0"/>
        <pt x="712" y="-319" on="0"/>
        <pt x="613" y="-234" on="0"/>
        <pt x="567" y="-105" on="0"/>
      </contour>
      <contour>
        <pt x="644" y="101" on="1"/>
        <pt x="742" y="101" on="0"/>
        <pt x="910" y="218" on="0"/>
        <pt x="1031" y="425" on="0"/>
        <pt x="1098" y="711" on="0"/>
        <pt x="1095" y="880" on="1"/>
        <pt x="1093" y="1002" on="0"/>
        <pt x="1051" y="1200" on="0"/>
        <pt x="971" y="1341" on="0"/>
        <pt x="852" y="1418" on="0"/>
        <pt x="774" y="1418" on="1"/>
        <pt x="676" y="1418" on="0"/>
        <pt x="508" y="1304" on="0"/>
        <pt x="386" y="1099" on="0"/>
        <pt x="320" y="816" on="0"/>
        <pt x="323" y="647" on="1"/>
        <pt x="325" y="527" on="0"/>
        <pt x="367" y="326" on="0"/>
        <pt x="447" y="181" on="0"/>
        <pt x="565" y="101" on="0"/>
      </contour>
    </TTGlyph>
    <TTGlyph name="R" xMin="47" yMin="0" xMax="1294" yMax="1538">
      <contour>
        <pt x="56" y="87" on="1"/>
        <pt x="185" y="117" on="1"/>
        <pt x="346" y="1398" on="1"/>
        <pt x="213" y="1421" on="1"/>
        <pt x="225" y="1522" on="1"/>
        <pt x="497" y="1522" on="1"/>
        <pt x="557" y="1522" on="0"/>
        <pt x="677" y="1538" on="0"/>
        <pt x="737" y="1538" on="1"/>
        <pt x="864" y="1538" on="0"/>
        <pt x="1045" y="1497" on="0"/>
        <pt x="1161" y="1413" on="0"/>
        <pt x="1217" y="1284" on="0"/>
        <pt x="1219" y="1196" on="1"/>
        <pt x="1221" y="1105" on="0"/>
        <pt x="1172" y="945" on="0"/>
        <pt x="1076" y="815" on="0"/>
        <pt x="933" y="720" on="0"/>
        <pt x="842" y="694" on="1"/>
        <pt x="865" y="674" on="0"/>
        <pt x="918" y="602" on="0"/>
        <pt x="968" y="519" on="0"/>
        <pt x="1011" y="434" on="0"/>
        <pt x="1026" y="402" on="1"/>
        <pt x="1057" y="336" on="0"/>
        <pt x="1100" y="240" on="0"/>
        <pt x="1135" y="172" on="0"/>
        <pt x="1167" y="130" on="0"/>
        <pt x="1206" y="106" on="0"/>
        <pt x="1257" y="98" on="0"/>
        <pt x="1294" y="98" on="1"/>
        <pt x="1289" y="0" on="1"/>
        <pt x="1056" y="0" on="1"/>
        <pt x="1035" y="0" on="0"/>
        <pt x="997" y="24" on="0"/>
        <pt x="954" y="87" on="0"/>
        <pt x="903" y="197" on="0"/>
        <pt x="869" y="282" on="1"/>
        <pt x="851" y="327" on="0"/>
        <pt x="814" y="419" on="0"/>
        <pt x="775" y="505" on="0"/>
        <pt x="735" y="581" on="0"/>
        <pt x="693" y="637" on="0"/>
        <pt x="649" y="670" on="0"/>
        <pt x="627" y="671" on="1"/>
        <pt x="590" y="670" on="0"/>
        <pt x="556" y="670" on="1"/>
        <pt x="444" y="670" on="1"/>
        <pt x="381" y="117" on="1"/>
        <pt x="566" y="88" on="1"/>
        <pt x="558" y="0" on="1"/>
        <pt x="47" y="0" on="1"/>
      </contour>
      <contour>
        <pt x="460" y="789" on="1"/>
        <pt x="477" y="788" on="0"/>
        <pt x="538" y="786" on="0"/>
        <pt x="602" y="785" on="0"/>
        <pt x="660" y="785" on="0"/>
        <pt x="675" y="786" on="1"/>
        <pt x="765" y="792" on="0"/>
        <pt x="895" y="860" on="0"/>
        <pt x="978" y="967" on="0"/>
        <pt x="1015" y="1104" on="0"/>
        <pt x="1013" y="1180" on="1"/>
        <pt x="1011" y="1239" on="0"/>
        <pt x="983" y="1328" on="0"/>
        <pt x="915" y="1388" on="0"/>
        <pt x="798" y="1419" on="0"/>
        <pt x="707" y="1419" on="1"/>
        <pt x="696" y="1419" on="0"/>
        <pt x="655" y="1417" on="0"/>
        <pt x="607" y="1413" on="0"/>
        <pt x="560" y="1408" on="0"/>
        <pt x="544" y="1405" on="1"/>
      </contour>
    </TTGlyph>
    <TTGlyph name="Racute" xMin="47" yMin="0" xMax="1294" yMax="2001">
      <contour>
        <pt x="56" y="87" on="1"/>
        <pt x="185" y="117" on="1"/>
        <pt x="346" y="1398" on="1"/>
        <pt x="213" y="1421" on="1"/>
        <pt x="225" y="1522" on="1"/>
        <pt x="497" y="1522" on="1"/>
        <pt x="557" y="1522" on="0"/>
        <pt x="677" y="1538" on="0"/>
        <pt x="737" y="1538" on="1"/>
        <pt x="864" y="1538" on="0"/>
        <pt x="1045" y="1497" on="0"/>
        <pt x="1161" y="1413" on="0"/>
        <pt x="1217" y="1284" on="0"/>
        <pt x="1219" y="1196" on="1"/>
        <pt x="1221" y="1105" on="0"/>
        <pt x="1172" y="945" on="0"/>
        <pt x="1076" y="815" on="0"/>
        <pt x="933" y="720" on="0"/>
        <pt x="842" y="694" on="1"/>
        <pt x="865" y="674" on="0"/>
        <pt x="918" y="602" on="0"/>
        <pt x="968" y="519" on="0"/>
        <pt x="1011" y="434" on="0"/>
        <pt x="1026" y="402" on="1"/>
        <pt x="1057" y="336" on="0"/>
        <pt x="1100" y="240" on="0"/>
        <pt x="1135" y="172" on="0"/>
        <pt x="1167" y="130" on="0"/>
        <pt x="1206" y="106" on="0"/>
        <pt x="1257" y="98" on="0"/>
        <pt x="1294" y="98" on="1"/>
        <pt x="1289" y="0" on="1"/>
        <pt x="1056" y="0" on="1"/>
        <pt x="1035" y="0" on="0"/>
        <pt x="997" y="24" on="0"/>
        <pt x="954" y="87" on="0"/>
        <pt x="903" y="197" on="0"/>
        <pt x="869" y="282" on="1"/>
        <pt x="851" y="327" on="0"/>
        <pt x="814" y="419" on="0"/>
        <pt x="775" y="505" on="0"/>
        <pt x="735" y="581" on="0"/>
        <pt x="693" y="637" on="0"/>
        <pt x="649" y="670" on="0"/>
        <pt x="627" y="671" on="1"/>
        <pt x="590" y="670" on="0"/>
        <pt x="556" y="670" on="1"/>
        <pt x="444" y="670" on="1"/>
        <pt x="381" y="117" on="1"/>
        <pt x="566" y="88" on="1"/>
        <pt x="558" y="0" on="1"/>
        <pt x="47" y="0" on="1"/>
      </contour>
      <contour>
        <pt x="460" y="789" on="1"/>
        <pt x="477" y="788" on="0"/>
        <pt x="538" y="786" on="0"/>
        <pt x="602" y="785" on="0"/>
        <pt x="660" y="785" on="0"/>
        <pt x="675" y="786" on="1"/>
        <pt x="765" y="792" on="0"/>
        <pt x="895" y="860" on="0"/>
        <pt x="978" y="967" on="0"/>
        <pt x="1015" y="1104" on="0"/>
        <pt x="1013" y="1180" on="1"/>
        <pt x="1011" y="1239" on="0"/>
        <pt x="983" y="1328" on="0"/>
        <pt x="915" y="1388" on="0"/>
        <pt x="798" y="1419" on="0"/>
        <pt x="707" y="1419" on="1"/>
        <pt x="696" y="1419" on="0"/>
        <pt x="655" y="1417" on="0"/>
        <pt x="607" y="1413" on="0"/>
        <pt x="560" y="1408" on="0"/>
        <pt x="544" y="1405" on="1"/>
      </contour>
      <contour>
        <pt x="667" y="1659" on="1"/>
        <pt x="943" y="2001" on="1"/>
        <pt x="1069" y="1880" on="1"/>
        <pt x="1049" y="1838" on="0"/>
        <pt x="966" y="1754" on="0"/>
        <pt x="868" y="1681" on="0"/>
        <pt x="768" y="1624" on="0"/>
        <pt x="732" y="1611" on="1"/>
      </contour>
    </TTGlyph>
    <TTGlyph name="Rcaron" xMin="39" yMin="0" xMax="1286" yMax="2001">
      <contour>
        <pt x="450" y="1943" on="1"/>
        <pt x="527" y="2001" on="1"/>
        <pt x="764" y="1768" on="1"/>
        <pt x="1081" y="2001" on="1"/>
        <pt x="1145" y="1944" on="1"/>
        <pt x="847" y="1623" on="1"/>
        <pt x="672" y="1623" on="1"/>
      </contour>
      <contour>
        <pt x="48" y="87" on="1"/>
        <pt x="177" y="117" on="1"/>
        <pt x="338" y="1398" on="1"/>
        <pt x="205" y="1421" on="1"/>
        <pt x="217" y="1522" on="1"/>
        <pt x="489" y="1522" on="1"/>
        <pt x="549" y="1522" on="0"/>
        <pt x="669" y="1538" on="0"/>
        <pt x="729" y="1538" on="1"/>
        <pt x="856" y="1538" on="0"/>
        <pt x="1037" y="1497" on="0"/>
        <pt x="1153" y="1413" on="0"/>
        <pt x="1209" y="1284" on="0"/>
        <pt x="1211" y="1196" on="1"/>
        <pt x="1213" y="1105" on="0"/>
        <pt x="1164" y="945" on="0"/>
        <pt x="1068" y="815" on="0"/>
        <pt x="925" y="720" on="0"/>
        <pt x="834" y="694" on="1"/>
        <pt x="857" y="674" on="0"/>
        <pt x="910" y="602" on="0"/>
        <pt x="960" y="519" on="0"/>
        <pt x="1003" y="434" on="0"/>
        <pt x="1018" y="402" on="1"/>
        <pt x="1049" y="336" on="0"/>
        <pt x="1092" y="240" on="0"/>
        <pt x="1127" y="172" on="0"/>
        <pt x="1159" y="130" on="0"/>
        <pt x="1198" y="106" on="0"/>
        <pt x="1249" y="98" on="0"/>
        <pt x="1286" y="98" on="1"/>
        <pt x="1281" y="0" on="1"/>
        <pt x="1048" y="0" on="1"/>
        <pt x="1027" y="0" on="0"/>
        <pt x="989" y="24" on="0"/>
        <pt x="946" y="87" on="0"/>
        <pt x="895" y="197" on="0"/>
        <pt x="861" y="282" on="1"/>
        <pt x="843" y="327" on="0"/>
        <pt x="806" y="419" on="0"/>
        <pt x="767" y="505" on="0"/>
        <pt x="727" y="581" on="0"/>
        <pt x="685" y="637" on="0"/>
        <pt x="641" y="670" on="0"/>
        <pt x="619" y="671" on="1"/>
        <pt x="582" y="670" on="0"/>
        <pt x="548" y="670" on="1"/>
        <pt x="436" y="670" on="1"/>
        <pt x="373" y="117" on="1"/>
        <pt x="558" y="88" on="1"/>
        <pt x="550" y="0" on="1"/>
        <pt x="39" y="0" on="1"/>
      </contour>
      <contour>
        <pt x="452" y="789" on="1"/>
        <pt x="469" y="788" on="0"/>
        <pt x="530" y="786" on="0"/>
        <pt x="594" y="785" on="0"/>
        <pt x="652" y="785" on="0"/>
        <pt x="667" y="786" on="1"/>
        <pt x="757" y="792" on="0"/>
        <pt x="887" y="860" on="0"/>
        <pt x="970" y="967" on="0"/>
        <pt x="1007" y="1104" on="0"/>
        <pt x="1005" y="1180" on="1"/>
        <pt x="1003" y="1239" on="0"/>
        <pt x="975" y="1328" on="0"/>
        <pt x="907" y="1388" on="0"/>
        <pt x="790" y="1419" on="0"/>
        <pt x="699" y="1419" on="1"/>
        <pt x="688" y="1419" on="0"/>
        <pt x="647" y="1417" on="0"/>
        <pt x="599" y="1413" on="0"/>
        <pt x="552" y="1408" on="0"/>
        <pt x="536" y="1405" on="1"/>
      </contour>
    </TTGlyph>
    <TTGlyph name="Rcommaaccent" xMin="39" yMin="-560" xMax="1286" yMax="1538">
      <contour>
        <pt x="671" y="-50" on="1"/>
        <pt x="702" y="-57" on="0"/>
        <pt x="748" y="-98" on="0"/>
        <pt x="779" y="-155" on="0"/>
        <pt x="795" y="-225" on="0"/>
        <pt x="795" y="-260" on="1"/>
        <pt x="795" y="-321" on="0"/>
        <pt x="758" y="-425" on="0"/>
        <pt x="703" y="-504" on="0"/>
        <pt x="640" y="-553" on="0"/>
        <pt x="614" y="-560" on="1"/>
        <pt x="536" y="-519" on="1"/>
        <pt x="536" y="-493" on="1"/>
        <pt x="571" y="-465" on="0"/>
        <pt x="611" y="-382" on="0"/>
        <pt x="611" y="-334" on="1"/>
        <pt x="611" y="-317" on="0"/>
        <pt x="600" y="-278" on="0"/>
        <pt x="580" y="-244" on="0"/>
        <pt x="554" y="-219" on="0"/>
        <pt x="539" y="-216" on="1"/>
        <pt x="540" y="-151" on="1"/>
      </contour>
      <contour>
        <pt x="48" y="87" on="1"/>
        <pt x="177" y="117" on="1"/>
        <pt x="338" y="1398" on="1"/>
        <pt x="205" y="1421" on="1"/>
        <pt x="217" y="1522" on="1"/>
        <pt x="489" y="1522" on="1"/>
        <pt x="549" y="1522" on="0"/>
        <pt x="669" y="1538" on="0"/>
        <pt x="729" y="1538" on="1"/>
        <pt x="856" y="1538" on="0"/>
        <pt x="1037" y="1497" on="0"/>
        <pt x="1153" y="1413" on="0"/>
        <pt x="1209" y="1284" on="0"/>
        <pt x="1211" y="1196" on="1"/>
        <pt x="1213" y="1105" on="0"/>
        <pt x="1164" y="945" on="0"/>
        <pt x="1068" y="815" on="0"/>
        <pt x="925" y="720" on="0"/>
        <pt x="834" y="694" on="1"/>
        <pt x="857" y="674" on="0"/>
        <pt x="910" y="602" on="0"/>
        <pt x="960" y="519" on="0"/>
        <pt x="1003" y="434" on="0"/>
        <pt x="1018" y="402" on="1"/>
        <pt x="1049" y="336" on="0"/>
        <pt x="1092" y="240" on="0"/>
        <pt x="1127" y="172" on="0"/>
        <pt x="1159" y="130" on="0"/>
        <pt x="1198" y="106" on="0"/>
        <pt x="1249" y="98" on="0"/>
        <pt x="1286" y="98" on="1"/>
        <pt x="1281" y="0" on="1"/>
        <pt x="1048" y="0" on="1"/>
        <pt x="1027" y="0" on="0"/>
        <pt x="989" y="24" on="0"/>
        <pt x="946" y="87" on="0"/>
        <pt x="895" y="197" on="0"/>
        <pt x="861" y="282" on="1"/>
        <pt x="843" y="327" on="0"/>
        <pt x="806" y="419" on="0"/>
        <pt x="767" y="505" on="0"/>
        <pt x="727" y="581" on="0"/>
        <pt x="685" y="637" on="0"/>
        <pt x="641" y="670" on="0"/>
        <pt x="619" y="671" on="1"/>
        <pt x="582" y="670" on="0"/>
        <pt x="548" y="670" on="1"/>
        <pt x="436" y="670" on="1"/>
        <pt x="373" y="117" on="1"/>
        <pt x="558" y="88" on="1"/>
        <pt x="550" y="0" on="1"/>
        <pt x="39" y="0" on="1"/>
      </contour>
      <contour>
        <pt x="452" y="789" on="1"/>
        <pt x="469" y="788" on="0"/>
        <pt x="530" y="786" on="0"/>
        <pt x="594" y="785" on="0"/>
        <pt x="652" y="785" on="0"/>
        <pt x="667" y="786" on="1"/>
        <pt x="757" y="792" on="0"/>
        <pt x="887" y="860" on="0"/>
        <pt x="970" y="967" on="0"/>
        <pt x="1007" y="1104" on="0"/>
        <pt x="1005" y="1180" on="1"/>
        <pt x="1003" y="1239" on="0"/>
        <pt x="975" y="1328" on="0"/>
        <pt x="907" y="1388" on="0"/>
        <pt x="790" y="1419" on="0"/>
        <pt x="699" y="1419" on="1"/>
        <pt x="688" y="1419" on="0"/>
        <pt x="647" y="1417" on="0"/>
        <pt x="599" y="1413" on="0"/>
        <pt x="552" y="1408" on="0"/>
        <pt x="536" y="1405" on="1"/>
      </contour>
    </TTGlyph>
    <TTGlyph name="S" xMin="54" yMin="-23" xMax="1042" yMax="1542">
      <contour>
        <pt x="96" y="347" on="1"/>
        <pt x="216" y="347" on="1"/>
        <pt x="241" y="154" on="1"/>
        <pt x="261" y="140" on="0"/>
        <pt x="315" y="118" on="0"/>
        <pt x="375" y="102" on="0"/>
        <pt x="438" y="94" on="0"/>
        <pt x="468" y="94" on="1"/>
        <pt x="516" y="94" on="0"/>
        <pt x="623" y="121" on="0"/>
        <pt x="715" y="180" on="0"/>
        <pt x="778" y="274" on="0"/>
        <pt x="782" y="341" on="1"/>
        <pt x="785" y="401" on="0"/>
        <pt x="747" y="499" on="0"/>
        <pt x="679" y="580" on="0"/>
        <pt x="587" y="649" on="0"/>
        <pt x="535" y="681" on="1"/>
        <pt x="474" y="719" on="0"/>
        <pt x="353" y="807" on="0"/>
        <pt x="257" y="915" on="0"/>
        <pt x="196" y="1046" on="0"/>
        <pt x="195" y="1127" on="1"/>
        <pt x="193" y="1219" on="0"/>
        <pt x="270" y="1372" on="0"/>
        <pt x="403" y="1481" on="0"/>
        <pt x="579" y="1542" on="0"/>
        <pt x="677" y="1542" on="1"/>
        <pt x="749" y="1542" on="0"/>
        <pt x="865" y="1526" on="0"/>
        <pt x="956" y="1501" on="0"/>
        <pt x="1021" y="1471" on="0"/>
        <pt x="1042" y="1457" on="1"/>
        <pt x="995" y="1194" on="1"/>
        <pt x="886" y="1194" on="1"/>
        <pt x="858" y="1374" on="1"/>
        <pt x="828" y="1396" on="0"/>
        <pt x="720" y="1425" on="0"/>
        <pt x="660" y="1425" on="1"/>
        <pt x="615" y="1425" on="0"/>
        <pt x="522" y="1400" on="0"/>
        <pt x="445" y="1346" on="0"/>
        <pt x="397" y="1262" on="0"/>
        <pt x="397" y="1204" on="1"/>
        <pt x="397" y="1142" on="0"/>
        <pt x="437" y="1042" on="0"/>
        <pt x="507" y="958" on="0"/>
        <pt x="601" y="885" on="0"/>
        <pt x="655" y="852" on="1"/>
        <pt x="715" y="814" on="0"/>
        <pt x="832" y="734" on="0"/>
        <pt x="925" y="636" on="0"/>
        <pt x="983" y="515" on="0"/>
        <pt x="985" y="436" on="1"/>
        <pt x="987" y="329" on="0"/>
        <pt x="909" y="159" on="0"/>
        <pt x="768" y="40" on="0"/>
        <pt x="575" y="-23" on="0"/>
        <pt x="462" y="-23" on="1"/>
        <pt x="392" y="-23" on="0"/>
        <pt x="261" y="-6" on="0"/>
        <pt x="152" y="20" on="0"/>
        <pt x="72" y="51" on="0"/>
        <pt x="54" y="65" on="1"/>
      </contour>
    </TTGlyph>
    <TTGlyph name="Sacute" xMin="54" yMin="-23" xMax="1042" yMax="2001">
      <contour>
        <pt x="96" y="347" on="1"/>
        <pt x="216" y="347" on="1"/>
        <pt x="241" y="154" on="1"/>
        <pt x="261" y="140" on="0"/>
        <pt x="315" y="118" on="0"/>
        <pt x="375" y="102" on="0"/>
        <pt x="438" y="94" on="0"/>
        <pt x="468" y="94" on="1"/>
        <pt x="516" y="94" on="0"/>
        <pt x="623" y="121" on="0"/>
        <pt x="715" y="180" on="0"/>
        <pt x="778" y="274" on="0"/>
        <pt x="782" y="341" on="1"/>
        <pt x="785" y="401" on="0"/>
        <pt x="747" y="499" on="0"/>
        <pt x="679" y="580" on="0"/>
        <pt x="587" y="649" on="0"/>
        <pt x="535" y="681" on="1"/>
        <pt x="474" y="719" on="0"/>
        <pt x="353" y="807" on="0"/>
        <pt x="257" y="915" on="0"/>
        <pt x="196" y="1046" on="0"/>
        <pt x="195" y="1127" on="1"/>
        <pt x="193" y="1219" on="0"/>
        <pt x="270" y="1372" on="0"/>
        <pt x="403" y="1481" on="0"/>
        <pt x="579" y="1542" on="0"/>
        <pt x="677" y="1542" on="1"/>
        <pt x="749" y="1542" on="0"/>
        <pt x="865" y="1526" on="0"/>
        <pt x="956" y="1501" on="0"/>
        <pt x="1021" y="1471" on="0"/>
        <pt x="1042" y="1457" on="1"/>
        <pt x="995" y="1194" on="1"/>
        <pt x="886" y="1194" on="1"/>
        <pt x="858" y="1374" on="1"/>
        <pt x="828" y="1396" on="0"/>
        <pt x="720" y="1425" on="0"/>
        <pt x="660" y="1425" on="1"/>
        <pt x="615" y="1425" on="0"/>
        <pt x="522" y="1400" on="0"/>
        <pt x="445" y="1346" on="0"/>
        <pt x="397" y="1262" on="0"/>
        <pt x="397" y="1204" on="1"/>
        <pt x="397" y="1142" on="0"/>
        <pt x="437" y="1042" on="0"/>
        <pt x="507" y="958" on="0"/>
        <pt x="601" y="885" on="0"/>
        <pt x="655" y="852" on="1"/>
        <pt x="715" y="814" on="0"/>
        <pt x="832" y="734" on="0"/>
        <pt x="925" y="636" on="0"/>
        <pt x="983" y="515" on="0"/>
        <pt x="985" y="436" on="1"/>
        <pt x="987" y="329" on="0"/>
        <pt x="909" y="159" on="0"/>
        <pt x="768" y="40" on="0"/>
        <pt x="575" y="-23" on="0"/>
        <pt x="462" y="-23" on="1"/>
        <pt x="392" y="-23" on="0"/>
        <pt x="261" y="-6" on="0"/>
        <pt x="152" y="20" on="0"/>
        <pt x="72" y="51" on="0"/>
        <pt x="54" y="65" on="1"/>
      </contour>
      <contour>
        <pt x="617" y="1659" on="1"/>
        <pt x="893" y="2001" on="1"/>
        <pt x="1019" y="1880" on="1"/>
        <pt x="999" y="1838" on="0"/>
        <pt x="916" y="1754" on="0"/>
        <pt x="818" y="1681" on="0"/>
        <pt x="718" y="1624" on="0"/>
        <pt x="682" y="1611" on="1"/>
      </contour>
    </TTGlyph>
    <TTGlyph name="Scaron" xMin="54" yMin="-23" xMax="1094" yMax="2001">
      <contour>
        <pt x="96" y="347" on="1"/>
        <pt x="216" y="347" on="1"/>
        <pt x="241" y="154" on="1"/>
        <pt x="261" y="140" on="0"/>
        <pt x="315" y="118" on="0"/>
        <pt x="375" y="102" on="0"/>
        <pt x="438" y="94" on="0"/>
        <pt x="468" y="94" on="1"/>
        <pt x="516" y="94" on="0"/>
        <pt x="623" y="121" on="0"/>
        <pt x="715" y="180" on="0"/>
        <pt x="778" y="274" on="0"/>
        <pt x="782" y="341" on="1"/>
        <pt x="785" y="401" on="0"/>
        <pt x="747" y="499" on="0"/>
        <pt x="679" y="580" on="0"/>
        <pt x="587" y="649" on="0"/>
        <pt x="535" y="681" on="1"/>
        <pt x="474" y="719" on="0"/>
        <pt x="353" y="807" on="0"/>
        <pt x="257" y="915" on="0"/>
        <pt x="196" y="1046" on="0"/>
        <pt x="195" y="1127" on="1"/>
        <pt x="193" y="1219" on="0"/>
        <pt x="270" y="1372" on="0"/>
        <pt x="403" y="1481" on="0"/>
        <pt x="579" y="1542" on="0"/>
        <pt x="677" y="1542" on="1"/>
        <pt x="749" y="1542" on="0"/>
        <pt x="865" y="1526" on="0"/>
        <pt x="956" y="1501" on="0"/>
        <pt x="1021" y="1471" on="0"/>
        <pt x="1042" y="1457" on="1"/>
        <pt x="995" y="1194" on="1"/>
        <pt x="886" y="1194" on="1"/>
        <pt x="858" y="1374" on="1"/>
        <pt x="828" y="1396" on="0"/>
        <pt x="720" y="1425" on="0"/>
        <pt x="660" y="1425" on="1"/>
        <pt x="615" y="1425" on="0"/>
        <pt x="522" y="1400" on="0"/>
        <pt x="445" y="1346" on="0"/>
        <pt x="397" y="1262" on="0"/>
        <pt x="397" y="1204" on="1"/>
        <pt x="397" y="1142" on="0"/>
        <pt x="437" y="1042" on="0"/>
        <pt x="507" y="958" on="0"/>
        <pt x="601" y="885" on="0"/>
        <pt x="655" y="852" on="1"/>
        <pt x="715" y="814" on="0"/>
        <pt x="832" y="734" on="0"/>
        <pt x="925" y="636" on="0"/>
        <pt x="983" y="515" on="0"/>
        <pt x="985" y="436" on="1"/>
        <pt x="987" y="329" on="0"/>
        <pt x="909" y="159" on="0"/>
        <pt x="768" y="40" on="0"/>
        <pt x="575" y="-23" on="0"/>
        <pt x="462" y="-23" on="1"/>
        <pt x="392" y="-23" on="0"/>
        <pt x="261" y="-6" on="0"/>
        <pt x="152" y="20" on="0"/>
        <pt x="72" y="51" on="0"/>
        <pt x="54" y="65" on="1"/>
      </contour>
      <contour>
        <pt x="399" y="1943" on="1"/>
        <pt x="476" y="2001" on="1"/>
        <pt x="713" y="1768" on="1"/>
        <pt x="1030" y="2001" on="1"/>
        <pt x="1094" y="1944" on="1"/>
        <pt x="796" y="1623" on="1"/>
        <pt x="621" y="1623" on="1"/>
      </contour>
    </TTGlyph>
    <TTGlyph name="Scedilla" xMin="54" yMin="-465" xMax="1042" yMax="1542">
      <contour>
        <pt x="96" y="347" on="1"/>
        <pt x="216" y="347" on="1"/>
        <pt x="241" y="154" on="1"/>
        <pt x="261" y="140" on="0"/>
        <pt x="315" y="118" on="0"/>
        <pt x="375" y="102" on="0"/>
        <pt x="438" y="94" on="0"/>
        <pt x="468" y="94" on="1"/>
        <pt x="516" y="94" on="0"/>
        <pt x="623" y="121" on="0"/>
        <pt x="715" y="180" on="0"/>
        <pt x="778" y="274" on="0"/>
        <pt x="782" y="341" on="1"/>
        <pt x="785" y="401" on="0"/>
        <pt x="747" y="499" on="0"/>
        <pt x="679" y="580" on="0"/>
        <pt x="587" y="649" on="0"/>
        <pt x="535" y="681" on="1"/>
        <pt x="474" y="719" on="0"/>
        <pt x="353" y="807" on="0"/>
        <pt x="257" y="915" on="0"/>
        <pt x="196" y="1046" on="0"/>
        <pt x="195" y="1127" on="1"/>
        <pt x="193" y="1219" on="0"/>
        <pt x="270" y="1372" on="0"/>
        <pt x="403" y="1481" on="0"/>
        <pt x="579" y="1542" on="0"/>
        <pt x="677" y="1542" on="1"/>
        <pt x="749" y="1542" on="0"/>
        <pt x="865" y="1526" on="0"/>
        <pt x="956" y="1501" on="0"/>
        <pt x="1021" y="1471" on="0"/>
        <pt x="1042" y="1457" on="1"/>
        <pt x="995" y="1194" on="1"/>
        <pt x="886" y="1194" on="1"/>
        <pt x="858" y="1374" on="1"/>
        <pt x="828" y="1396" on="0"/>
        <pt x="720" y="1425" on="0"/>
        <pt x="660" y="1425" on="1"/>
        <pt x="615" y="1425" on="0"/>
        <pt x="522" y="1400" on="0"/>
        <pt x="445" y="1346" on="0"/>
        <pt x="397" y="1262" on="0"/>
        <pt x="397" y="1204" on="1"/>
        <pt x="397" y="1142" on="0"/>
        <pt x="437" y="1042" on="0"/>
        <pt x="507" y="958" on="0"/>
        <pt x="601" y="885" on="0"/>
        <pt x="655" y="852" on="1"/>
        <pt x="715" y="814" on="0"/>
        <pt x="832" y="734" on="0"/>
        <pt x="925" y="636" on="0"/>
        <pt x="983" y="515" on="0"/>
        <pt x="985" y="436" on="1"/>
        <pt x="986" y="337" on="0"/>
        <pt x="919" y="175" on="0"/>
        <pt x="796" y="58" on="0"/>
        <pt x="625" y="-12" on="0"/>
        <pt x="524" y="-20" on="1"/>
        <pt x="529" y="-40" on="0"/>
        <pt x="534" y="-89" on="0"/>
        <pt x="534" y="-115" on="1"/>
        <pt x="534" y="-204" on="0"/>
        <pt x="490" y="-335" on="0"/>
        <pt x="414" y="-422" on="0"/>
        <pt x="311" y="-465" on="0"/>
        <pt x="251" y="-465" on="1"/>
        <pt x="211" y="-465" on="0"/>
        <pt x="137" y="-449" on="0"/>
        <pt x="120" y="-437" on="1"/>
        <pt x="136" y="-286" on="1"/>
        <pt x="142" y="-289" on="0"/>
        <pt x="164" y="-295" on="0"/>
        <pt x="189" y="-298" on="0"/>
        <pt x="215" y="-300" on="0"/>
        <pt x="227" y="-300" on="1"/>
        <pt x="269" y="-300" on="0"/>
        <pt x="337" y="-265" on="0"/>
        <pt x="384" y="-200" on="0"/>
        <pt x="410" y="-108" on="0"/>
        <pt x="410" y="-51" on="1"/>
        <pt x="410" y="-43" on="0"/>
        <pt x="409" y="-28" on="0"/>
        <pt x="409" y="-21" on="1"/>
        <pt x="347" y="-18" on="0"/>
        <pt x="233" y="0" on="0"/>
        <pt x="139" y="24" on="0"/>
        <pt x="70" y="52" on="0"/>
        <pt x="54" y="65" on="1"/>
      </contour>
    </TTGlyph>
    <TTGlyph name="Scircumflex" xMin="54" yMin="-23" xMax="1065" yMax="2001">
      <contour>
        <pt x="96" y="347" on="1"/>
        <pt x="216" y="347" on="1"/>
        <pt x="241" y="154" on="1"/>
        <pt x="261" y="140" on="0"/>
        <pt x="315" y="118" on="0"/>
        <pt x="375" y="102" on="0"/>
        <pt x="438" y="94" on="0"/>
        <pt x="468" y="94" on="1"/>
        <pt x="516" y="94" on="0"/>
        <pt x="623" y="121" on="0"/>
        <pt x="715" y="180" on="0"/>
        <pt x="778" y="274" on="0"/>
        <pt x="782" y="341" on="1"/>
        <pt x="785" y="401" on="0"/>
        <pt x="747" y="499" on="0"/>
        <pt x="679" y="580" on="0"/>
        <pt x="587" y="649" on="0"/>
        <pt x="535" y="681" on="1"/>
        <pt x="474" y="719" on="0"/>
        <pt x="353" y="807" on="0"/>
        <pt x="257" y="915" on="0"/>
        <pt x="196" y="1046" on="0"/>
        <pt x="195" y="1127" on="1"/>
        <pt x="193" y="1219" on="0"/>
        <pt x="270" y="1372" on="0"/>
        <pt x="403" y="1481" on="0"/>
        <pt x="579" y="1542" on="0"/>
        <pt x="677" y="1542" on="1"/>
        <pt x="749" y="1542" on="0"/>
        <pt x="865" y="1526" on="0"/>
        <pt x="956" y="1501" on="0"/>
        <pt x="1021" y="1471" on="0"/>
        <pt x="1042" y="1457" on="1"/>
        <pt x="995" y="1194" on="1"/>
        <pt x="886" y="1194" on="1"/>
        <pt x="858" y="1374" on="1"/>
        <pt x="828" y="1396" on="0"/>
        <pt x="720" y="1425" on="0"/>
        <pt x="660" y="1425" on="1"/>
        <pt x="615" y="1425" on="0"/>
        <pt x="522" y="1400" on="0"/>
        <pt x="445" y="1346" on="0"/>
        <pt x="397" y="1262" on="0"/>
        <pt x="397" y="1204" on="1"/>
        <pt x="397" y="1142" on="0"/>
        <pt x="437" y="1042" on="0"/>
        <pt x="507" y="958" on="0"/>
        <pt x="601" y="885" on="0"/>
        <pt x="655" y="852" on="1"/>
        <pt x="715" y="814" on="0"/>
        <pt x="832" y="734" on="0"/>
        <pt x="925" y="636" on="0"/>
        <pt x="983" y="515" on="0"/>
        <pt x="985" y="436" on="1"/>
        <pt x="987" y="329" on="0"/>
        <pt x="909" y="159" on="0"/>
        <pt x="768" y="40" on="0"/>
        <pt x="575" y="-23" on="0"/>
        <pt x="462" y="-23" on="1"/>
        <pt x="392" y="-23" on="0"/>
        <pt x="261" y="-6" on="0"/>
        <pt x="152" y="20" on="0"/>
        <pt x="72" y="51" on="0"/>
        <pt x="54" y="65" on="1"/>
      </contour>
      <contour>
        <pt x="368" y="1682" on="1"/>
        <pt x="676" y="2001" on="1"/>
        <pt x="853" y="2001" on="1"/>
        <pt x="1065" y="1682" on="1"/>
        <pt x="994" y="1623" on="1"/>
        <pt x="755" y="1850" on="1"/>
        <pt x="431" y="1624" on="1"/>
      </contour>
    </TTGlyph>
    <TTGlyph name="T" xMin="83" yMin="0" xMax="1308" yMax="1522">
      <contour>
        <pt x="202" y="94" on="1"/>
        <pt x="446" y="117" on="1"/>
        <pt x="611" y="1414" on="1"/>
        <pt x="295" y="1394" on="1"/>
        <pt x="199" y="1053" on="1"/>
        <pt x="83" y="1051" on="1"/>
        <pt x="160" y="1522" on="1"/>
        <pt x="1308" y="1522" on="1"/>
        <pt x="1241" y="1051" on="1"/>
        <pt x="1130" y="1051" on="1"/>
        <pt x="1137" y="1393" on="1"/>
        <pt x="816" y="1414" on="1"/>
        <pt x="650" y="117" on="1"/>
        <pt x="900" y="94" on="1"/>
        <pt x="893" y="0" on="1"/>
        <pt x="193" y="0" on="1"/>
      </contour>
    </TTGlyph>
    <TTGlyph name="Tbar" xMin="83" yMin="0" xMax="1308" yMax="1522">
      <contour>
        <pt x="202" y="94" on="1"/>
        <pt x="446" y="117" on="1"/>
        <pt x="522" y="720" on="1"/>
        <pt x="282" y="720" on="1"/>
        <pt x="298" y="851" on="1"/>
        <pt x="539" y="851" on="1"/>
        <pt x="611" y="1414" on="1"/>
        <pt x="295" y="1394" on="1"/>
        <pt x="199" y="1053" on="1"/>
        <pt x="83" y="1051" on="1"/>
        <pt x="160" y="1522" on="1"/>
        <pt x="1308" y="1522" on="1"/>
        <pt x="1241" y="1051" on="1"/>
        <pt x="1130" y="1051" on="1"/>
        <pt x="1137" y="1393" on="1"/>
        <pt x="816" y="1414" on="1"/>
        <pt x="744" y="851" on="1"/>
        <pt x="1040" y="851" on="1"/>
        <pt x="1024" y="720" on="1"/>
        <pt x="727" y="720" on="1"/>
        <pt x="650" y="117" on="1"/>
        <pt x="900" y="94" on="1"/>
        <pt x="893" y="0" on="1"/>
        <pt x="193" y="0" on="1"/>
      </contour>
    </TTGlyph>
    <TTGlyph name="Tcaron" xMin="83" yMin="0" xMax="1308" yMax="2001">
      <contour>
        <pt x="452" y="1943" on="1"/>
        <pt x="529" y="2001" on="1"/>
        <pt x="766" y="1768" on="1"/>
        <pt x="1083" y="2001" on="1"/>
        <pt x="1147" y="1944" on="1"/>
        <pt x="849" y="1623" on="1"/>
        <pt x="674" y="1623" on="1"/>
      </contour>
      <contour>
        <pt x="202" y="94" on="1"/>
        <pt x="446" y="117" on="1"/>
        <pt x="611" y="1414" on="1"/>
        <pt x="295" y="1394" on="1"/>
        <pt x="199" y="1053" on="1"/>
        <pt x="83" y="1051" on="1"/>
        <pt x="160" y="1522" on="1"/>
        <pt x="1308" y="1522" on="1"/>
        <pt x="1241" y="1051" on="1"/>
        <pt x="1130" y="1051" on="1"/>
        <pt x="1137" y="1393" on="1"/>
        <pt x="816" y="1414" on="1"/>
        <pt x="650" y="117" on="1"/>
        <pt x="900" y="94" on="1"/>
        <pt x="893" y="0" on="1"/>
        <pt x="193" y="0" on="1"/>
      </contour>
    </TTGlyph>
    <TTGlyph name="Thorn" xMin="28" yMin="0" xMax="1198" yMax="1530">
      <contour>
        <pt x="38" y="87" on="1"/>
        <pt x="185" y="117" on="1"/>
        <pt x="346" y="1405" on="1"/>
        <pt x="213" y="1428" on="1"/>
        <pt x="225" y="1530" on="1"/>
        <pt x="716" y="1530" on="1"/>
        <pt x="705" y="1428" on="1"/>
        <pt x="551" y="1405" on="1"/>
        <pt x="524" y="1195" on="1"/>
        <pt x="577" y="1204" on="0"/>
        <pt x="688" y="1212" on="0"/>
        <pt x="741" y="1212" on="1"/>
        <pt x="855" y="1212" on="0"/>
        <pt x="1027" y="1161" on="0"/>
        <pt x="1141" y="1063" on="0"/>
        <pt x="1198" y="921" on="0"/>
        <pt x="1198" y="830" on="1"/>
        <pt x="1198" y="712" on="0"/>
        <pt x="1104" y="521" on="0"/>
        <pt x="940" y="386" on="0"/>
        <pt x="717" y="312" on="0"/>
        <pt x="588" y="312" on="1"/>
        <pt x="522" y="312" on="0"/>
        <pt x="441" y="313" on="0"/>
        <pt x="414" y="315" on="1"/>
        <pt x="389" y="117" on="1"/>
        <pt x="563" y="88" on="1"/>
        <pt x="555" y="0" on="1"/>
        <pt x="28" y="0" on="1"/>
      </contour>
      <contour>
        <pt x="429" y="436" on="1"/>
        <pt x="472" y="430" on="0"/>
        <pt x="551" y="425" on="0"/>
        <pt x="586" y="425" on="1"/>
        <pt x="690" y="425" on="0"/>
        <pt x="845" y="480" on="0"/>
        <pt x="946" y="577" on="0"/>
        <pt x="995" y="710" on="0"/>
        <pt x="994" y="787" on="1"/>
        <pt x="992" y="865" on="0"/>
        <pt x="964" y="980" on="0"/>
        <pt x="895" y="1056" on="0"/>
        <pt x="777" y="1093" on="0"/>
        <pt x="686" y="1093" on="1"/>
        <pt x="635" y="1093" on="0"/>
        <pt x="547" y="1082" on="0"/>
        <pt x="509" y="1074" on="1"/>
      </contour>
    </TTGlyph>
    <TTGlyph name="U" xMin="127" yMin="-20" xMax="1446" yMax="1522">
      <contour>
        <pt x="145" y="428" on="1"/>
        <pt x="145" y="467" on="0"/>
        <pt x="148" y="548" on="0"/>
        <pt x="153" y="593" on="1"/>
        <pt x="260" y="1398" on="1"/>
        <pt x="127" y="1422" on="1"/>
        <pt x="139" y="1522" on="1"/>
        <pt x="630" y="1522" on="1"/>
        <pt x="619" y="1422" on="1"/>
        <pt x="466" y="1397" on="1"/>
        <pt x="362" y="611" on="1"/>
        <pt x="356" y="555" on="0"/>
        <pt x="350" y="461" on="0"/>
        <pt x="351" y="418" on="1"/>
        <pt x="354" y="256" on="0"/>
        <pt x="501" y="91" on="0"/>
        <pt x="632" y="91" on="1"/>
        <pt x="803" y="91" on="0"/>
        <pt x="1002" y="363" on="0"/>
        <pt x="1032" y="626" on="1"/>
        <pt x="1135" y="1397" on="1"/>
        <pt x="1001" y="1421" on="1"/>
        <pt x="1012" y="1522" on="1"/>
        <pt x="1446" y="1522" on="1"/>
        <pt x="1434" y="1421" on="1"/>
        <pt x="1310" y="1398" on="1"/>
        <pt x="1206" y="627" on="1"/>
        <pt x="1183" y="450" on="0"/>
        <pt x="1085" y="204" on="0"/>
        <pt x="933" y="49" on="0"/>
        <pt x="729" y="-20" on="0"/>
        <pt x="601" y="-20" on="1"/>
        <pt x="491" y="-20" on="0"/>
        <pt x="323" y="43" on="0"/>
        <pt x="208" y="159" on="0"/>
        <pt x="147" y="325" on="0"/>
      </contour>
    </TTGlyph>
    <TTGlyph name="Uacute" xMin="127" yMin="-20" xMax="1446" yMax="2001">
      <contour>
        <pt x="733" y="1659" on="1"/>
        <pt x="1009" y="2001" on="1"/>
        <pt x="1135" y="1880" on="1"/>
        <pt x="1115" y="1838" on="0"/>
        <pt x="1032" y="1754" on="0"/>
        <pt x="934" y="1681" on="0"/>
        <pt x="834" y="1624" on="0"/>
        <pt x="798" y="1611" on="1"/>
      </contour>
      <contour>
        <pt x="145" y="428" on="1"/>
        <pt x="145" y="467" on="0"/>
        <pt x="148" y="548" on="0"/>
        <pt x="153" y="593" on="1"/>
        <pt x="260" y="1398" on="1"/>
        <pt x="127" y="1422" on="1"/>
        <pt x="139" y="1522" on="1"/>
        <pt x="630" y="1522" on="1"/>
        <pt x="619" y="1422" on="1"/>
        <pt x="466" y="1397" on="1"/>
        <pt x="362" y="611" on="1"/>
        <pt x="356" y="555" on="0"/>
        <pt x="350" y="461" on="0"/>
        <pt x="351" y="418" on="1"/>
        <pt x="354" y="256" on="0"/>
        <pt x="501" y="91" on="0"/>
        <pt x="632" y="91" on="1"/>
        <pt x="803" y="91" on="0"/>
        <pt x="1002" y="363" on="0"/>
        <pt x="1032" y="626" on="1"/>
        <pt x="1135" y="1397" on="1"/>
        <pt x="1001" y="1421" on="1"/>
        <pt x="1012" y="1522" on="1"/>
        <pt x="1446" y="1522" on="1"/>
        <pt x="1434" y="1421" on="1"/>
        <pt x="1310" y="1398" on="1"/>
        <pt x="1206" y="627" on="1"/>
        <pt x="1183" y="450" on="0"/>
        <pt x="1085" y="204" on="0"/>
        <pt x="933" y="49" on="0"/>
        <pt x="729" y="-20" on="0"/>
        <pt x="601" y="-20" on="1"/>
        <pt x="491" y="-20" on="0"/>
        <pt x="323" y="43" on="0"/>
        <pt x="208" y="159" on="0"/>
        <pt x="147" y="325" on="0"/>
      </contour>
    </TTGlyph>
</ttFont>
